<svg version="1.1" xmlns="http://www.w3.org/2000/svg" xmlns:xlink="http://www.w3.org/1999/xlink" width="1450" height="1591"><defs/><g><g/><g/><g/><g/><g/><g/><g/><g/><g/><g/><g/><g/><g/><g/><g/><g/><g/><g/><g/><g/><g/><g/><g/><g/><g><rect fill="white" stroke="none" x="0" y="0" width="1450" height="1591"/></g><g><text fill="black" stroke="none" font-family="sans-serif" font-size="16.5pt" font-style="normal" font-weight="normal" text-decoration="normal" x="655.3868652872968" y="24.50280495" text-anchor="start" dominant-baseline="alphabetic">Invite to group</text></g><g/><g><path fill="none" stroke="black" paint-order="fill stroke markers" d=" M 23.64361483359375 128.80307802049998 L 23.64361483359375 1591.729246912602" stroke-miterlimit="10" stroke-width="1.3612669416666667" stroke-dasharray="12.565541,5.445067766666667"/><path fill="none" stroke="black" paint-order="fill stroke markers" d=" M 133.05248371458333 128.80307802049998 L 133.05248371458333 1591.729246912602" stroke-miterlimit="10" stroke-width="1.3612669416666667" stroke-dasharray="12.565541,5.445067766666667"/><path fill="none" stroke="black" paint-order="fill stroke markers" d=" M 264.2910260515599 128.80307802049998 L 264.2910260515599 1591.729246912602" stroke-miterlimit="10" stroke-width="1.3612669416666667" stroke-dasharray="12.565541,5.445067766666667"/><path fill="none" stroke="black" paint-order="fill stroke markers" d=" M 408.1601836229115 128.80307802049998 L 408.1601836229115 1591.729246912602" stroke-miterlimit="10" stroke-width="1.3612669416666667" stroke-dasharray="12.565541,5.445067766666667"/><path fill="none" stroke="black" paint-order="fill stroke markers" d=" M 588.6500300083933 128.80307802049998 L 588.6500300083933 1591.729246912602" stroke-miterlimit="10" stroke-width="1.3612669416666667" stroke-dasharray="12.565541,5.445067766666667"/><path fill="none" stroke="black" paint-order="fill stroke markers" d=" M 794.6826015959584 128.80307802049998 L 794.6826015959584 1591.729246912602" stroke-miterlimit="10" stroke-width="1.3612669416666667" stroke-dasharray="12.565541,5.445067766666667"/><path fill="none" stroke="black" paint-order="fill stroke markers" d=" M 958.372804089185 128.80307802049998 L 958.372804089185 1591.729246912602" stroke-miterlimit="10" stroke-width="1.3612669416666667" stroke-dasharray="12.565541,5.445067766666667"/><path fill="none" stroke="black" paint-order="fill stroke markers" d=" M 1072.0737487699116 128.80307802049998 L 1072.0737487699116 1591.729246912602" stroke-miterlimit="10" stroke-width="1.3612669416666667" stroke-dasharray="12.565541,5.445067766666667"/><path fill="none" stroke="black" paint-order="fill stroke markers" d=" M 1211.3151368710483 128.80307802049998 L 1211.3151368710483 1591.729246912602" stroke-miterlimit="10" stroke-width="1.3612669416666667" stroke-dasharray="12.565541,5.445067766666667"/><path fill="none" stroke="black" paint-order="fill stroke markers" d=" M 1355.0447146694505 128.80307802049998 L 1355.0447146694505 1591.729246912602" stroke-miterlimit="10" stroke-width="1.3612669416666667" stroke-dasharray="12.565541,5.445067766666667"/></g><g><g><path fill="white" stroke="black" paint-order="fill stroke markers" d=" M 32.95468071459375 59.70516806150002 A 9.311065881 9.311065881 0 1 1 32.9546760590612 59.69585699717086 M 23.64361483359375 69.01623394250002 L 23.64361483359375 88.94518196850002 M 11.882268457593753 76.20372339450002 L 35.40496120959375 76.20372339450002 M 23.64361483359375 88.94518196850002 L 11.882268457593753 107.56731373050002 M 23.64361483359375 88.94518196850002 L 35.40496120959375 107.56731373050002" stroke-miterlimit="10" stroke-width="2.7769845610000004" stroke-dasharray=""/></g><g><g/><text fill="black" stroke="none" font-family="sans-serif" font-size="11pt" font-style="normal" font-weight="normal" text-decoration="normal" x="8.167601650000002" y="123.90251703050001" text-anchor="start" dominant-baseline="alphabetic">User</text></g><path fill="none" stroke="none"/><g><path fill="white" stroke="black" paint-order="fill stroke markers" d=" M 85.58291563652473 84.69802911050002 L 180.52205179264195 84.69802911050002 L 180.52205179264195 128.8030780205 L 85.58291563652473 128.8030780205 L 85.58291563652473 84.69802911050002 Z" stroke-miterlimit="10" stroke-width="2.613632528" stroke-dasharray=""/></g><g><g/><text fill="black" stroke="none" font-family="sans-serif" font-size="11pt" font-style="normal" font-weight="normal" text-decoration="normal" x="103.30661121702474" y="112.46787472049999" text-anchor="start" dominant-baseline="alphabetic">TextInput</text></g><path fill="none" stroke="none"/><g><path fill="white" stroke="black" paint-order="fill stroke markers" d=" M 196.85725509264194 84.69802911050002 L 331.7247970104779 84.69802911050002 L 331.7247970104779 128.8030780205 L 196.85725509264194 128.8030780205 L 196.85725509264194 84.69802911050002 Z" stroke-miterlimit="10" stroke-width="2.613632528" stroke-dasharray=""/></g><g><g/><text fill="black" stroke="none" font-family="sans-serif" font-size="11pt" font-style="normal" font-weight="normal" text-decoration="normal" x="214.58095067314196" y="112.46787472049999" text-anchor="start" dominant-baseline="alphabetic">AddUserButton</text></g><path fill="none" stroke="none"/><g><path fill="white" stroke="black" paint-order="fill stroke markers" d=" M 348.0600003104779 84.69802911050002 L 468.26036693534513 84.69802911050002 L 468.26036693534513 128.8030780205 L 348.0600003104779 128.8030780205 L 348.0600003104779 84.69802911050002 Z" stroke-miterlimit="10" stroke-width="2.613632528" stroke-dasharray=""/></g><g><g/><text fill="black" stroke="none" font-family="sans-serif" font-size="11pt" font-style="normal" font-weight="normal" text-decoration="normal" x="365.7836958909779" y="112.46787472049999" text-anchor="start" dominant-baseline="alphabetic">invite_user.js</text></g><path fill="none" stroke="none"/><g><path fill="white" stroke="black" paint-order="fill stroke markers" d=" M 549.7416649332644 84.69802911050002 L 627.5583950835222 84.69802911050002 L 627.5583950835222 128.8030780205 L 549.7416649332644 128.8030780205 L 549.7416649332644 84.69802911050002 Z" stroke-miterlimit="10" stroke-width="2.613632528" stroke-dasharray=""/></g><g><g/><text fill="black" stroke="none" font-family="sans-serif" font-size="11pt" font-style="normal" font-weight="normal" text-decoration="normal" x="567.4653605137644" y="112.46787472049999" text-anchor="start" dominant-baseline="alphabetic">chat.js</text></g><path fill="none" stroke="none"/><g><path fill="white" stroke="black" paint-order="fill stroke markers" d=" M 692.3454798069623 84.69802911050002 L 897.0197233849545 84.69802911050002 L 897.0197233849545 128.8030780205 L 692.3454798069623 128.8030780205 L 692.3454798069623 84.69802911050002 Z" stroke-miterlimit="10" stroke-width="2.613632528" stroke-dasharray=""/></g><g><g/><text fill="black" stroke="none" font-family="sans-serif" font-size="11pt" font-style="normal" font-weight="normal" text-decoration="normal" x="710.0691753874623" y="112.46787472049999" text-anchor="start" dominant-baseline="alphabetic">ChatFunctionsWebSocket</text></g><path fill="none" stroke="none"/><g><path fill="white" stroke="black" paint-order="fill stroke markers" d=" M 913.3549266849545 84.69802911050002 L 1003.3906814934155 84.69802911050002 L 1003.3906814934155 128.8030780205 L 913.3549266849545 128.8030780205 L 913.3549266849545 84.69802911050002 Z" stroke-miterlimit="10" stroke-width="2.613632528" stroke-dasharray=""/></g><g><g/><text fill="black" stroke="none" font-family="sans-serif" font-size="11pt" font-style="normal" font-weight="normal" text-decoration="normal" x="931.0786222654546" y="112.46787472049999" text-anchor="start" dominant-baseline="alphabetic">Provider</text></g><path fill="none" stroke="none"/><g><path fill="white" stroke="black" paint-order="fill stroke markers" d=" M 1019.7258847934155 84.69802911050002 L 1124.4216127464076 84.69802911050002 L 1124.4216127464076 128.8030780205 L 1019.7258847934155 128.8030780205 L 1019.7258847934155 84.69802911050002 Z" stroke-miterlimit="10" stroke-width="2.613632528" stroke-dasharray=""/></g><g><g/><text fill="black" stroke="none" font-family="sans-serif" font-size="11pt" font-style="normal" font-weight="normal" text-decoration="normal" x="1037.4495803739155" y="112.46787472049999" text-anchor="start" dominant-baseline="alphabetic">user_list.js</text></g><path fill="none" stroke="none"/><g><path fill="white" stroke="black" paint-order="fill stroke markers" d=" M 1140.7568160464077 84.69802911050002 L 1281.873457695689 84.69802911050002 L 1281.873457695689 128.8030780205 L 1140.7568160464077 128.8030780205 L 1140.7568160464077 84.69802911050002 Z" stroke-miterlimit="10" stroke-width="2.613632528" stroke-dasharray=""/></g><g><g/><text fill="black" stroke="none" font-family="sans-serif" font-size="11pt" font-style="normal" font-weight="normal" text-decoration="normal" x="1158.4805116269076" y="112.46787472049999" text-anchor="start" dominant-baseline="alphabetic">ChatWebSocket</text></g><path fill="none" stroke="none"/><g><path fill="white" stroke="black" paint-order="fill stroke markers" d=" M 1298.208660995689 84.69802911050002 L 1411.8807683432124 84.69802911050002 L 1411.8807683432124 128.8030780205 L 1298.208660995689 128.8030780205 L 1298.208660995689 84.69802911050002 Z" stroke-miterlimit="10" stroke-width="2.613632528" stroke-dasharray=""/></g><g><g/><text fill="black" stroke="none" font-family="sans-serif" font-size="11pt" font-style="normal" font-weight="normal" text-decoration="normal" x="1315.9323565761888" y="112.46787472049999" text-anchor="start" dominant-baseline="alphabetic">group_list.js</text></g></g><g><path fill="white" stroke="black" paint-order="fill stroke markers" d=" M 256.12342440155993 228.44781815049998 L 272.4586277015599 228.44781815049998 L 272.4586277015599 1575.394043612602 L 256.12342440155993 1575.394043612602 L 256.12342440155993 228.44781815049998" stroke-miterlimit="10" stroke-width="1.3612669416666667" stroke-dasharray=""/><path fill="white" stroke="black" paint-order="fill stroke markers" d=" M 399.9925819729115 274.1863873905 L 416.3277852729115 274.1863873905 L 416.3277852729115 489.7030317186769 L 399.9925819729115 489.7030317186769 L 399.9925819729115 274.1863873905" stroke-miterlimit="10" stroke-width="1.3612669416666667" stroke-dasharray=""/><path fill="white" stroke="black" paint-order="fill stroke markers" d=" M 124.88488206458334 319.9249566305 L 141.22008536458333 319.9249566305 L 141.22008536458333 365.6635258705 L 124.88488206458334 365.6635258705 L 124.88488206458334 319.9249566305" stroke-miterlimit="10" stroke-width="1.3612669416666667" stroke-dasharray=""/><path fill="white" stroke="black" paint-order="fill stroke markers" d=" M 580.4824283583932 411.4020951105 L 596.8176316583933 411.4020951105 L 596.8176316583933 457.1406643505 L 580.4824283583932 457.1406643505 L 580.4824283583932 411.4020951105" stroke-miterlimit="10" stroke-width="1.3612669416666667" stroke-dasharray=""/><path fill="white" stroke="black" paint-order="fill stroke markers" d=" M 786.5149999459584 522.3734383186769 L 802.8502032459585 522.3734383186769 L 802.8502032459585 1201.3178880426021 L 786.5149999459584 1201.3178880426021 L 786.5149999459584 522.3734383186769" stroke-miterlimit="10" stroke-width="1.3612669416666667" stroke-dasharray=""/><path fill="white" stroke="black" paint-order="fill stroke markers" d=" M 950.205202439185 568.1120075586769 L 966.5404057391851 568.1120075586769 L 966.5404057391851 613.8505767986768 L 950.205202439185 613.8505767986768 L 950.205202439185 568.1120075586769" stroke-miterlimit="10" stroke-width="1.3612669416666667" stroke-dasharray=""/><path fill="white" stroke="black" paint-order="fill stroke markers" d=" M 950.205202439185 659.5891460386767 L 966.5404057391851 659.5891460386767 L 966.5404057391851 705.3277152786767 L 950.205202439185 705.3277152786767 L 950.205202439185 659.5891460386767" stroke-miterlimit="10" stroke-width="1.3612669416666667" stroke-dasharray=""/><path fill="white" stroke="black" paint-order="fill stroke markers" d=" M 399.9925819729115 751.0662845186766 L 416.3277852729115 751.0662845186766 L 416.3277852729115 888.2819922386765 L 399.9925819729115 888.2819922386765 L 399.9925819729115 751.0662845186766" stroke-miterlimit="10" stroke-width="1.3612669416666667" stroke-dasharray=""/><path fill="white" stroke="black" paint-order="fill stroke markers" d=" M 1063.9061471199116 796.8048537586766 L 1080.2413504199117 796.8048537586766 L 1080.2413504199117 842.5434229986765 L 1063.9061471199116 842.5434229986765 L 1063.9061471199116 796.8048537586766" stroke-miterlimit="10" stroke-width="1.3612669416666667" stroke-dasharray=""/><path fill="white" stroke="black" paint-order="fill stroke markers" d=" M 1203.1475352210482 934.0205614786764 L 1219.4827385210483 934.0205614786764 L 1219.4827385210483 1045.6492052670837 L 1203.1475352210482 1045.6492052670837 L 1203.1475352210482 934.0205614786764" stroke-miterlimit="10" stroke-width="1.3612669416666667" stroke-dasharray=""/><path fill="white" stroke="black" paint-order="fill stroke markers" d=" M 580.4824283583932 999.9106360270837 L 596.8176316583933 999.9106360270837 L 596.8176316583933 1169.7967503470836 L 580.4824283583932 1169.7967503470836 L 580.4824283583932 999.9106360270837" stroke-miterlimit="10" stroke-width="1.3612669416666667" stroke-dasharray=""/><path fill="white" stroke="black" paint-order="fill stroke markers" d=" M 588.6500300083933 1107.7229778070837 L 604.9852333083934 1107.7229778070837 L 604.9852333083934 1169.7967503470836 L 588.6500300083933 1169.7967503470836 L 588.6500300083933 1107.7229778070837" stroke-miterlimit="10" stroke-width="1.3612669416666667" stroke-dasharray=""/><g><g><rect fill="white" stroke="none" x="47.05740623026041" y="161.4734846205" width="62.58128608765625" height="21.23576429"/></g><text fill="black" stroke="none" font-family="sans-serif" font-size="11pt" font-style="normal" font-weight="normal" text-decoration="normal" x="49.50768672526041" y="176.17516759049997" text-anchor="start" dominant-baseline="alphabetic">"Ignacio"</text></g><g><path fill="none" stroke="black" paint-order="fill stroke markers" d=" M 23.64361483359375 182.70924891049998 L 130.32994983125 182.70924891049998" stroke-miterlimit="10" stroke-width="1.3612669416666667" stroke-dasharray=""/><g transform="translate(133.05248371458333,182.70924891049998) translate(-133.05248371458333,-182.70924891049998)"><path fill="black" stroke="none" paint-order="stroke fill markers" d=" M 119.43981429791667 175.90291420216664 L 133.05248371458333 182.70924891049998 L 119.43981429791667 189.51558361883332 Z"/></g></g><g><g><rect fill="white" stroke="none" x="119.50912870997918" y="207.2120538605" width="40.748781815195315" height="21.23576429"/></g><text fill="black" stroke="none" font-family="sans-serif" font-size="11pt" font-style="normal" font-weight="normal" text-decoration="normal" x="121.95940920497918" y="221.91373683049997" text-anchor="start" dominant-baseline="alphabetic">press</text></g><g><path fill="none" stroke="black" paint-order="fill stroke markers" d=" M 23.64361483359375 228.44781815049998 L 253.4008905182266 228.44781815049998" stroke-miterlimit="10" stroke-width="1.3612669416666667" stroke-dasharray=""/><g transform="translate(256.12342440155993,228.44781815049998) translate(-256.12342440155993,-228.44781815049998)"><path fill="black" stroke="none" paint-order="stroke fill markers" d=" M 242.51075498489325 221.64148344216665 L 256.12342440155993 228.44781815049998 L 242.51075498489325 235.25415285883332 Z"/></g></g><g><g><rect fill="white" stroke="none" x="301.1876549696771" y="252.9506231005" width="70.07589973511719" height="21.23576429"/></g><text fill="black" stroke="none" font-family="sans-serif" font-size="11pt" font-style="normal" font-weight="normal" text-decoration="normal" x="303.6379354646771" y="267.6523060705" text-anchor="start" dominant-baseline="alphabetic">inviteUser</text></g><g><path fill="none" stroke="black" paint-order="fill stroke markers" d=" M 272.4586277015599 274.1863873905 L 397.2700480895782 274.1863873905" stroke-miterlimit="10" stroke-width="1.3612669416666667" stroke-dasharray=""/><g transform="translate(399.9925819729115,274.1863873905) translate(-399.9925819729115,-274.1863873905)"><path fill="black" stroke="none" paint-order="stroke fill markers" d=" M 386.37991255624485 267.38005268216665 L 399.9925819729115 274.1863873905 L 386.37991255624485 280.9927220988333 Z"/></g></g><g><g><rect fill="white" stroke="none" x="239.7595077635912" y="298.6891923405" width="61.6936518103125" height="21.23576429"/></g><text fill="black" stroke="none" font-family="sans-serif" font-size="11pt" font-style="normal" font-weight="normal" text-decoration="normal" x="242.20978825859117" y="313.39087531049995" text-anchor="start" dominant-baseline="alphabetic">getValue</text></g><g><path fill="none" stroke="black" paint-order="fill stroke markers" d=" M 399.9925819729115 319.9249566305 L 143.94261924791667 319.9249566305" stroke-miterlimit="10" stroke-width="1.3612669416666667" stroke-dasharray=""/><g transform="translate(141.22008536458333,319.9249566305) translate(-141.22008536458333,-319.9249566305)"><path fill="black" stroke="none" paint-order="stroke fill markers" d=" M 154.83275478125 313.11862192216665 L 141.22008536458333 319.9249566305 L 154.83275478125 326.73129133883333 Z"/></g></g><g><g><rect fill="white" stroke="none" x="239.3156906249193" y="344.4277615805" width="62.58128608765625" height="21.23576429"/></g><text fill="black" stroke="none" font-family="sans-serif" font-size="11pt" font-style="normal" font-weight="normal" text-decoration="normal" x="241.7659711199193" y="359.12944455049995" text-anchor="start" dominant-baseline="alphabetic">"Ignacio"</text></g><g><path fill="none" stroke="black" paint-order="fill stroke markers" d=" M 141.22008536458333 365.6635258705 L 397.2700480895782 365.6635258705" stroke-miterlimit="10" stroke-width="1.3612669416666667" stroke-dasharray="6.53408132"/><g transform="translate(399.9925819729115,365.6635258705) translate(-399.9925819729115,-365.6635258705)"><path fill="black" stroke="none" paint-order="stroke fill markers" d=" M 386.37991255624485 358.85719116216666 L 399.9925819729115 365.6635258705 L 386.37991255624485 372.46986057883333 Z"/></g></g><g><g><rect fill="white" stroke="none" x="435.65777584457817" y="390.1663308205" width="125.49466194214844" height="21.23576429"/></g><text fill="black" stroke="none" font-family="sans-serif" font-size="11pt" font-style="normal" font-weight="normal" text-decoration="normal" x="438.1080563395782" y="404.86801379049996" text-anchor="start" dominant-baseline="alphabetic">getCurrentRoomId</text></g><g><path fill="none" stroke="black" paint-order="fill stroke markers" d=" M 416.3277852729115 411.4020951105 L 577.7598944750599 411.4020951105" stroke-miterlimit="10" stroke-width="1.3612669416666667" stroke-dasharray=""/><g transform="translate(580.4824283583932,411.4020951105) translate(-580.4824283583932,-411.4020951105)"><path fill="black" stroke="none" paint-order="stroke fill markers" d=" M 566.8697589417266 404.59576040216666 L 580.4824283583932 411.4020951105 L 566.8697589417266 418.20842981883334 Z"/></g></g><g><g><rect fill="white" stroke="none" x="491.87823482895317" y="435.9049000605" width="13.053743973398436" height="21.23576429"/></g><text fill="black" stroke="none" font-family="sans-serif" font-size="11pt" font-style="normal" font-weight="normal" text-decoration="normal" x="494.3285153239532" y="450.60658303049996" text-anchor="start" dominant-baseline="alphabetic">0</text></g><g><path fill="none" stroke="black" paint-order="fill stroke markers" d=" M 580.4824283583932 457.1406643505 L 419.0503191562448 457.1406643505" stroke-miterlimit="10" stroke-width="1.3612669416666667" stroke-dasharray="6.53408132"/><g transform="translate(416.3277852729115,457.1406643505) translate(-416.3277852729115,-457.1406643505)"><path fill="black" stroke="none" paint-order="stroke fill markers" d=" M 429.9404546895782 450.33432964216667 L 416.3277852729115 457.1406643505 L 429.9404546895782 463.94699905883334 Z"/></g></g><g><g><rect fill="white" stroke="none" x="563.176579338556" y="481.6434693005" width="76.48962654175781" height="21.23576429"/></g><text fill="black" stroke="none" font-family="sans-serif" font-size="11pt" font-style="normal" font-weight="normal" text-decoration="normal" x="565.6268598335561" y="496.34515227049997" text-anchor="start" dominant-baseline="alphabetic">emit 'invite'</text></g><g><path fill="none" stroke="black" paint-order="fill stroke markers" d=" M 416.3277852729115 489.7030317186769 L 783.7924660626251 522.133164518218" stroke-miterlimit="10" stroke-width="1.3612669416666667" stroke-dasharray=""/><g transform="translate(786.5149999459584,522.3734383186769) rotate(5.04349983620238,0,0) translate(-786.5149999459584,-522.3734383186769)"><path fill="black" stroke="none" paint-order="stroke fill markers" d=" M 772.9023305292917 515.5671036103436 L 786.5149999459584 522.3734383186769 L 772.9023305292917 529.1797730270102 Z"/><g transform="rotate(-5.04349983620238,0,0)"/></g></g><g><g><rect fill="white" stroke="none" x="843.9235298304818" y="546.8762432686768" width="65.20834602417969" height="21.23576429"/></g><text fill="black" stroke="none" font-family="sans-serif" font-size="11pt" font-style="normal" font-weight="normal" text-decoration="normal" x="846.3738103254818" y="561.5779262386768" text-anchor="start" dominant-baseline="alphabetic">getModel</text></g><g><path fill="none" stroke="black" paint-order="fill stroke markers" d=" M 802.8502032459585 568.1120075586769 L 947.4826685558517 568.1120075586769" stroke-miterlimit="10" stroke-width="1.3612669416666667" stroke-dasharray=""/><g transform="translate(950.205202439185,568.1120075586769) translate(-950.205202439185,-568.1120075586769)"><path fill="black" stroke="none" paint-order="stroke fill markers" d=" M 936.5925330225183 561.3056728503435 L 950.205202439185 568.1120075586769 L 936.5925330225183 574.9183422670102 Z"/></g></g><g><g><rect fill="white" stroke="none" x="857.3773567347787" y="592.6148125086768" width="38.30069221558594" height="21.23576429"/></g><text fill="black" stroke="none" font-family="sans-serif" font-size="11pt" font-style="normal" font-weight="normal" text-decoration="normal" x="859.8276372297787" y="607.3164954786768" text-anchor="start" dominant-baseline="alphabetic">room</text></g><g><path fill="none" stroke="black" paint-order="fill stroke markers" d=" M 950.205202439185 613.8505767986768 L 805.5727371292918 613.8505767986768" stroke-miterlimit="10" stroke-width="1.3612669416666667" stroke-dasharray="6.53408132"/><g transform="translate(802.8502032459585,613.8505767986768) translate(-802.8502032459585,-613.8505767986768)"><path fill="black" stroke="none" paint-order="stroke fill markers" d=" M 816.4628726626252 607.0442420903435 L 802.8502032459585 613.8505767986768 L 816.4628726626252 620.6569115070101 Z"/></g></g><g><g><rect fill="white" stroke="none" x="840.258536544349" y="638.3533817486767" width="72.53833259644531" height="21.23576429"/></g><text fill="black" stroke="none" font-family="sans-serif" font-size="11pt" font-style="normal" font-weight="normal" text-decoration="normal" x="842.708817039349" y="653.0550647186767" text-anchor="start" dominant-baseline="alphabetic">getModels</text></g><g><path fill="none" stroke="black" paint-order="fill stroke markers" d=" M 802.8502032459585 659.5891460386767 L 947.4826685558517 659.5891460386767" stroke-miterlimit="10" stroke-width="1.3612669416666667" stroke-dasharray=""/><g transform="translate(950.205202439185,659.5891460386767) translate(-950.205202439185,-659.5891460386767)"><path fill="black" stroke="none" paint-order="stroke fill markers" d=" M 936.5925330225183 652.7828113303434 L 950.205202439185 659.5891460386767 L 936.5925330225183 666.3954807470101 Z"/></g></g><g><g><rect fill="white" stroke="none" x="856.153311934974" y="684.0919509886767" width="40.748781815195315" height="21.23576429"/></g><text fill="black" stroke="none" font-family="sans-serif" font-size="11pt" font-style="normal" font-weight="normal" text-decoration="normal" x="858.603592429974" y="698.7936339586767" text-anchor="start" dominant-baseline="alphabetic">users</text></g><g><path fill="none" stroke="black" paint-order="fill stroke markers" d=" M 950.205202439185 705.3277152786767 L 805.5727371292918 705.3277152786767" stroke-miterlimit="10" stroke-width="1.3612669416666667" stroke-dasharray="6.53408132"/><g transform="translate(802.8502032459585,705.3277152786767) translate(-802.8502032459585,-705.3277152786767)"><path fill="black" stroke="none" paint-order="stroke fill markers" d=" M 816.4628726626252 698.5213805703434 L 802.8502032459585 705.3277152786767 L 816.4628726626252 712.13404998701 Z"/></g></g><g><g><rect fill="white" stroke="none" x="584.7119949879701" y="729.8305202286766" width="33.41879524292969" height="21.23576429"/></g><text fill="black" stroke="none" font-family="sans-serif" font-size="11pt" font-style="normal" font-weight="normal" text-decoration="normal" x="587.1622754829701" y="744.5322031986766" text-anchor="start" dominant-baseline="alphabetic">user</text></g><g><path fill="none" stroke="black" paint-order="fill stroke markers" d=" M 786.5149999459584 751.0662845186766 L 419.0503191562448 751.0662845186766" stroke-miterlimit="10" stroke-width="1.3612669416666667" stroke-dasharray=""/><g transform="translate(416.3277852729115,751.0662845186766) translate(-416.3277852729115,-751.0662845186766)"><path fill="black" stroke="none" paint-order="stroke fill markers" d=" M 429.9404546895782 744.2599498103433 L 416.3277852729115 751.0662845186766 L 429.9404546895782 757.87261922701 Z"/></g></g><g><g><rect fill="white" stroke="none" x="709.9608980427201" y="775.5690894686766" width="60.312136307382815" height="21.23576429"/></g><text fill="black" stroke="none" font-family="sans-serif" font-size="11pt" font-style="normal" font-weight="normal" text-decoration="normal" x="712.4111785377202" y="790.2707724386765" text-anchor="start" dominant-baseline="alphabetic">addUser</text></g><g><path fill="none" stroke="black" paint-order="fill stroke markers" d=" M 416.3277852729115 796.8048537586766 L 1061.1836132365781 796.8048537586766" stroke-miterlimit="10" stroke-width="1.3612669416666667" stroke-dasharray=""/><g transform="translate(1063.9061471199116,796.8048537586766) translate(-1063.9061471199116,-796.8048537586766)"><path fill="black" stroke="none" paint-order="stroke fill markers" d=" M 1050.293477703245 789.9985190503432 L 1063.9061471199116 796.8048537586766 L 1050.293477703245 803.6111884670099 Z"/></g></g><g><g><rect fill="white" stroke="none" x="737.6666857014116" y="821.3076587086765" width="4.90056099" height="21.23576429"/></g><text fill="black" stroke="none" font-family="sans-serif" font-size="11pt" font-style="normal" font-weight="normal" text-decoration="normal" x="740.1169661964116" y="836.0093416786765" text-anchor="start" dominant-baseline="alphabetic"></text></g><g><path fill="none" stroke="black" paint-order="fill stroke markers" d=" M 1063.9061471199116 842.5434229986765 L 419.0503191562448 842.5434229986765" stroke-miterlimit="10" stroke-width="1.3612669416666667" stroke-dasharray="6.53408132"/><g transform="translate(416.3277852729115,842.5434229986765) translate(-416.3277852729115,-842.5434229986765)"><path fill="black" stroke="none" paint-order="stroke fill markers" d=" M 429.9404546895782 835.7370882903432 L 416.3277852729115 842.5434229986765 L 429.9404546895782 849.3497577070099 Z"/></g></g><g><g><rect fill="white" stroke="none" x="598.971112114435" y="867.0462279486765" width="4.90056099" height="21.23576429"/></g><text fill="black" stroke="none" font-family="sans-serif" font-size="11pt" font-style="normal" font-weight="normal" text-decoration="normal" x="601.421392609435" y="881.7479109186764" text-anchor="start" dominant-baseline="alphabetic"></text></g><g><path fill="none" stroke="black" paint-order="fill stroke markers" d=" M 416.3277852729115 888.2819922386765 L 783.7924660626251 888.2819922386765" stroke-miterlimit="10" stroke-width="1.3612669416666667" stroke-dasharray="6.53408132"/><g transform="translate(786.5149999459584,888.2819922386765) translate(-786.5149999459584,-888.2819922386765)"><path fill="black" stroke="none" paint-order="stroke fill markers" d=" M 772.9023305292917 881.4756575303431 L 786.5149999459584 888.2819922386765 L 772.9023305292917 895.0883269470098 Z"/></g></g><g><g><rect fill="white" stroke="none" x="931.6867647028588" y="912.7847971886764" width="142.62420906128906" height="21.23576429"/></g><text fill="black" stroke="none" font-family="sans-serif" font-size="11pt" font-style="normal" font-weight="normal" text-decoration="normal" x="934.1370451978588" y="927.4864801586764" text-anchor="start" dominant-baseline="alphabetic">sendMessageToChat</text></g><g><path fill="none" stroke="black" paint-order="fill stroke markers" d=" M 802.8502032459585 934.0205614786764 L 1200.4250013377148 934.0205614786764" stroke-miterlimit="10" stroke-width="1.3612669416666667" stroke-dasharray=""/><g transform="translate(1203.1475352210482,934.0205614786764) translate(-1203.1475352210482,-934.0205614786764)"><path fill="black" stroke="none" paint-order="stroke fill markers" d=" M 1189.5348658043815 927.2142267703431 L 1203.1475352210482 934.0205614786764 L 1189.5348658043815 940.8268961870098 Z"/></g></g><g><g><rect fill="white" stroke="none" x="826.70557412392" y="958.5233664286765" width="146.55401863160156" height="21.23576429"/></g><text fill="black" stroke="none" font-family="sans-serif" font-size="11pt" font-style="normal" font-weight="normal" text-decoration="normal" x="829.15585461892" y="973.2250493986764" text-anchor="start" dominant-baseline="alphabetic">emit 'server message'</text></g><g><path fill="none" stroke="black" paint-order="fill stroke markers" d=" M 1203.1475352210482 967.2402294270837 L 599.5401655417267 999.7639398334304" stroke-miterlimit="10" stroke-width="1.3612669416666667" stroke-dasharray=""/><g transform="translate(596.8176316583933,999.9106360270837) rotate(-3.084241788301635,0,0) translate(-596.8176316583933,-999.9106360270837)"><path fill="black" stroke="none" paint-order="stroke fill markers" d=" M 610.43030107506 993.1043013187503 L 596.8176316583933 999.9106360270837 L 610.43030107506 1006.716970735417 Z"/><g transform="rotate(3.084241788301635,0,0)"/></g></g><g><g><rect fill="white" stroke="none" x="1000.5485887385033" y="1024.4134409770838" width="4.90056099" height="21.23576429"/></g><text fill="black" stroke="none" font-family="sans-serif" font-size="11pt" font-style="normal" font-weight="normal" text-decoration="normal" x="1002.9988692335033" y="1039.115123947084" text-anchor="start" dominant-baseline="alphabetic"></text></g><g><path fill="none" stroke="black" paint-order="fill stroke markers" d=" M 1203.1475352210482 1045.6492052670837 L 805.5727371292918 1045.6492052670837" stroke-miterlimit="10" stroke-width="1.3612669416666667" stroke-dasharray="6.53408132"/><g transform="translate(802.8502032459585,1045.6492052670837) translate(-802.8502032459585,-1045.6492052670837)"><path fill="black" stroke="none" paint-order="stroke fill markers" d=" M 816.4628726626252 1038.8428705587505 L 802.8502032459585 1045.6492052670837 L 816.4628726626252 1052.455539975417 Z"/></g></g><g><g><rect fill="white" stroke="none" x="624.31522388006" y="1070.1520102170837" width="156.48245491089844" height="21.23576429"/></g><text fill="black" stroke="none" font-family="sans-serif" font-size="11pt" font-style="normal" font-weight="normal" text-decoration="normal" x="626.76550437506" y="1084.8536931870838" text-anchor="start" dominant-baseline="alphabetic">appendServerMessage</text></g><g><path fill="none" stroke="black" paint-order="fill stroke markers" d=" M 596.8176316583933 1091.3877745070836 L 670.3260465083932 1091.3877745070836 L 670.3260465083932 1107.7229778070837 L 607.7077671917266 1107.7229778070837" stroke-miterlimit="10" stroke-width="1.3612669416666667" stroke-dasharray=""/><g transform="translate(604.9852333083933,1107.7229778070837) translate(-604.9852333083933,-1107.7229778070837)"><path fill="black" stroke="none" paint-order="stroke fill markers" d=" M 618.59790272506 1100.9166430987505 L 604.9852333083933 1107.7229778070837 L 618.59790272506 1114.529312515417 Z"/></g></g><g><g><rect fill="white" stroke="none" x="624.31522388006" y="1132.2257827570836" width="4.90056099" height="21.23576429"/></g><text fill="black" stroke="none" font-family="sans-serif" font-size="11pt" font-style="normal" font-weight="normal" text-decoration="normal" x="626.76550437506" y="1146.9274657270837" text-anchor="start" dominant-baseline="alphabetic"></text></g><g><path fill="none" stroke="black" paint-order="fill stroke markers" d=" M 604.9852333083933 1153.4615470470835 L 670.3260465083932 1153.4615470470835 L 670.3260465083932 1169.7967503470836 L 607.7077671917266 1169.7967503470836" stroke-miterlimit="10" stroke-width="1.3612669416666667" stroke-dasharray="6.53408132"/><g transform="translate(604.9852333083933,1169.7967503470836) translate(-604.9852333083933,-1169.7967503470836)"><path fill="black" stroke="none" paint-order="stroke fill markers" d=" M 618.59790272506 1162.9904156387504 L 604.9852333083933 1169.7967503470836 L 618.59790272506 1176.6030850554168 Z"/></g></g><g><g><rect fill="white" stroke="none" x="1040.7026456868255" y="1194.2995552970835" width="76.48962654175781" height="21.23576429"/></g><text fill="black" stroke="none" font-family="sans-serif" font-size="11pt" font-style="normal" font-weight="normal" text-decoration="normal" x="1043.1529261818255" y="1209.0012382670836" text-anchor="start" dominant-baseline="alphabetic">emit 'invite'</text></g><g><path fill="none" stroke="black" paint-order="fill stroke markers" d=" M 802.8502032459585 1201.3178880426021 L 1352.322180786117 1233.8272168210906" stroke-miterlimit="10" stroke-width="1.3612669416666667" stroke-dasharray=""/><g transform="translate(1355.0447146694505,1233.988294642602) rotate(3.3859388468448364,0,0) translate(-1355.0447146694505,-1233.988294642602)"><path fill="black" stroke="none" paint-order="stroke fill markers" d=" M 1341.4320452527838 1227.181959934269 L 1355.0447146694505 1233.988294642602 L 1341.4320452527838 1240.7946293509353 Z"/><g transform="rotate(-3.3859388468448364,0,0)"/></g></g><g><g><rect fill="white" stroke="none" x="1374.3747052411172" y="1302.596148502602" width="70.10455574097656" height="21.23576429"/></g><text fill="black" stroke="none" font-family="sans-serif" font-size="11pt" font-style="normal" font-weight="normal" text-decoration="normal" x="1376.8249857361172" y="1317.2978314726022" text-anchor="start" dominant-baseline="alphabetic">addGroup</text></g><g><path fill="none" stroke="black" paint-order="fill stroke markers" d=" M 1355.0447146694505 1323.831912792602 L 1420.3855278694505 1323.831912792602 L 1420.3855278694505 1340.167116092602 L 1357.767248552784 1340.167116092602" stroke-miterlimit="10" stroke-width="1.3612669416666667" stroke-dasharray=""/><g transform="translate(1355.0447146694505,1340.167116092602) translate(-1355.0447146694505,-1340.167116092602)"><path fill="black" stroke="none" paint-order="stroke fill markers" d=" M 1368.6573840861172 1333.3607813842689 L 1355.0447146694505 1340.167116092602 L 1368.6573840861172 1346.9734508009353 Z"/></g></g><g><g><rect fill="white" stroke="none" x="1374.3747052411172" y="1408.774969952602" width="4.90056099" height="21.23576429"/></g><text fill="black" stroke="none" font-family="sans-serif" font-size="11pt" font-style="normal" font-weight="normal" text-decoration="normal" x="1376.8249857361172" y="1423.4766529226022" text-anchor="start" dominant-baseline="alphabetic"></text></g><g><path fill="none" stroke="black" paint-order="fill stroke markers" d=" M 1355.0447146694505 1430.010734242602 L 1420.3855278694505 1430.010734242602 L 1420.3855278694505 1446.345937542602 L 1357.767248552784 1446.345937542602" stroke-miterlimit="10" stroke-width="1.3612669416666667" stroke-dasharray="6.53408132"/><g transform="translate(1355.0447146694505,1446.345937542602) translate(-1355.0447146694505,-1446.345937542602)"><path fill="black" stroke="none" paint-order="stroke fill markers" d=" M 1368.6573840861172 1439.5396028342689 L 1355.0447146694505 1446.345937542602 L 1368.6573840861172 1453.1522722509353 Z"/></g></g></g><g/><g/><g/><g/><g/><g/><g/><g/><g/><g/></g></svg>