<svg version="1.1" xmlns="http://www.w3.org/2000/svg" xmlns:xlink="http://www.w3.org/1999/xlink" width="762" height="970"><defs/><g><g/><g/><g/><g/><g/><g/><g/><g/><g/><g/><g/><g/><g/><g/><g/><g/><g><rect fill="white" stroke="none" x="0" y="0" width="762" height="970"/></g><g><text fill="black" stroke="none" font-family="sans-serif" font-size="16.5pt" font-style="normal" font-weight="normal" text-decoration="normal" x="354.39024753342574" y="24.50280495" text-anchor="start" dominant-baseline="alphabetic">Login</text></g><g/><g><path fill="none" stroke="black" paint-order="fill stroke markers" d=" M 23.64361483359375 128.80307802049998 L 23.64361483359375 970.6729595709876" stroke-miterlimit="10" stroke-width="1.3612669416666667" stroke-dasharray="12.565541,5.445067766666667"/><path fill="none" stroke="black" paint-order="fill stroke markers" d=" M 133.05248371458333 128.80307802049998 L 133.05248371458333 970.6729595709876" stroke-miterlimit="10" stroke-width="1.3612669416666667" stroke-dasharray="12.565541,5.445067766666667"/><path fill="none" stroke="black" paint-order="fill stroke markers" d=" M 252.89160435966537 128.80307802049998 L 252.89160435966537 970.6729595709876" stroke-miterlimit="10" stroke-width="1.3612669416666667" stroke-dasharray="12.565541,5.445067766666667"/><path fill="none" stroke="black" paint-order="fill stroke markers" d=" M 374.72004327444404 128.80307802049998 L 374.72004327444404 970.6729595709876" stroke-miterlimit="10" stroke-width="1.3612669416666667" stroke-dasharray="12.565541,5.445067766666667"/><path fill="none" stroke="black" paint-order="fill stroke markers" d=" M 577.0231374880768 128.80307802049998 L 577.0231374880768 970.6729595709876" stroke-miterlimit="10" stroke-width="1.3612669416666667" stroke-dasharray="12.565541,5.445067766666667"/><path fill="none" stroke="black" paint-order="fill stroke markers" d=" M 709.424117575121 128.80307802049998 L 709.424117575121 970.6729595709876" stroke-miterlimit="10" stroke-width="1.3612669416666667" stroke-dasharray="12.565541,5.445067766666667"/></g><g><g><path fill="white" stroke="black" paint-order="fill stroke markers" d=" M 32.95468071459375 59.70516806150002 A 9.311065881 9.311065881 0 1 1 32.9546760590612 59.69585699717086 M 23.64361483359375 69.01623394250002 L 23.64361483359375 88.94518196850002 M 11.882268457593753 76.20372339450002 L 35.40496120959375 76.20372339450002 M 23.64361483359375 88.94518196850002 L 11.882268457593753 107.56731373050002 M 23.64361483359375 88.94518196850002 L 35.40496120959375 107.56731373050002" stroke-miterlimit="10" stroke-width="2.7769845610000004" stroke-dasharray=""/></g><g><g/><text fill="black" stroke="none" font-family="sans-serif" font-size="11pt" font-style="normal" font-weight="normal" text-decoration="normal" x="8.167601650000002" y="123.90251703050001" text-anchor="start" dominant-baseline="alphabetic">User</text></g><path fill="none" stroke="none"/><g><path fill="white" stroke="black" paint-order="fill stroke markers" d=" M 85.58291563652473 84.69802911050002 L 180.52205179264195 84.69802911050002 L 180.52205179264195 128.8030780205 L 85.58291563652473 128.8030780205 L 85.58291563652473 84.69802911050002 Z" stroke-miterlimit="10" stroke-width="2.613632528" stroke-dasharray=""/></g><g><g/><text fill="black" stroke="none" font-family="sans-serif" font-size="11pt" font-style="normal" font-weight="normal" text-decoration="normal" x="103.30661121702474" y="112.46787472049999" text-anchor="start" dominant-baseline="alphabetic">TextInput</text></g><path fill="none" stroke="none"/><g><path fill="white" stroke="black" paint-order="fill stroke markers" d=" M 196.85725509264194 84.69802911050002 L 308.92595362668885 84.69802911050002 L 308.92595362668885 128.8030780205 L 196.85725509264194 128.8030780205 L 196.85725509264194 84.69802911050002 Z" stroke-miterlimit="10" stroke-width="2.613632528" stroke-dasharray=""/></g><g><g/><text fill="black" stroke="none" font-family="sans-serif" font-size="11pt" font-style="normal" font-weight="normal" text-decoration="normal" x="214.58095067314193" y="112.46787472049999" text-anchor="start" dominant-baseline="alphabetic">SendButton</text></g><path fill="none" stroke="none"/><g><path fill="white" stroke="black" paint-order="fill stroke markers" d=" M 334.1796133799792 84.69802911050002 L 415.2604731689089 84.69802911050002 L 415.2604731689089 128.8030780205 L 334.1796133799792 128.8030780205 L 334.1796133799792 84.69802911050002 Z" stroke-miterlimit="10" stroke-width="2.613632528" stroke-dasharray=""/></g><g><g/><text fill="black" stroke="none" font-family="sans-serif" font-size="11pt" font-style="normal" font-weight="normal" text-decoration="normal" x="351.9033089604792" y="112.46787472049999" text-anchor="start" dominant-baseline="alphabetic">login.js</text></g><path fill="none" stroke="none"/><g><path fill="white" stroke="black" paint-order="fill stroke markers" d=" M 512.0482135750573 84.69802911050002 L 641.9980614010964 84.69802911050002 L 641.9980614010964 128.8030780205 L 512.0482135750573 128.8030780205 L 512.0482135750573 84.69802911050002 Z" stroke-miterlimit="10" stroke-width="2.613632528" stroke-dasharray=""/></g><g><g/><text fill="black" stroke="none" font-family="sans-serif" font-size="11pt" font-style="normal" font-weight="normal" text-decoration="normal" x="529.7719091555573" y="112.46787472049999" text-anchor="start" dominant-baseline="alphabetic">UserController</text></g><path fill="none" stroke="none"/><g><path fill="white" stroke="black" paint-order="fill stroke markers" d=" M 664.4062401708906 84.69802911050002 L 754.4419949793515 84.69802911050002 L 754.4419949793515 128.8030780205 L 664.4062401708906 128.8030780205 L 664.4062401708906 84.69802911050002 Z" stroke-miterlimit="10" stroke-width="2.613632528" stroke-dasharray=""/></g><g><g/><text fill="black" stroke="none" font-family="sans-serif" font-size="11pt" font-style="normal" font-weight="normal" text-decoration="normal" x="682.1299357513906" y="112.46787472049999" text-anchor="start" dominant-baseline="alphabetic">Provider</text></g></g><g><path fill="white" stroke="black" paint-order="fill stroke markers" d=" M 244.72400270966537 228.44781815049998 L 261.0592060096654 228.44781815049998 L 261.0592060096654 606.3979259809878 L 244.72400270966537 606.3979259809878 L 244.72400270966537 228.44781815049998" stroke-miterlimit="10" stroke-width="1.3612669416666667" stroke-dasharray=""/><path fill="white" stroke="black" paint-order="fill stroke markers" d=" M 366.55244162444404 274.1863873905 L 382.88764492444403 274.1863873905 L 382.88764492444403 913.4997480209876 L 366.55244162444404 913.4997480209876 L 366.55244162444404 274.1863873905" stroke-miterlimit="10" stroke-width="1.3612669416666667" stroke-dasharray=""/><path fill="white" stroke="black" paint-order="fill stroke markers" d=" M 124.88488206458334 319.9249566305 L 141.22008536458333 319.9249566305 L 141.22008536458333 365.6635258705 L 124.88488206458334 365.6635258705 L 124.88488206458334 319.9249566305" stroke-miterlimit="10" stroke-width="1.3612669416666667" stroke-dasharray=""/><path fill="white" stroke="black" paint-order="fill stroke markers" d=" M 374.72004327444404 427.7372984105 L 391.055246574444 427.7372984105 L 391.055246574444 489.8110709505 L 374.72004327444404 489.8110709505 L 374.72004327444404 427.7372984105" stroke-miterlimit="10" stroke-width="1.3612669416666667" stroke-dasharray=""/><path fill="white" stroke="black" paint-order="fill stroke markers" d=" M 568.8555358380768 606.3979259809878 L 585.1907391380769 606.3979259809878 L 585.1907391380769 789.3522029409876 L 568.8555358380768 789.3522029409876 L 568.8555358380768 606.3979259809878" stroke-miterlimit="10" stroke-width="1.3612669416666667" stroke-dasharray=""/><g><g><rect fill="white" stroke="none" x="47.05740623026041" y="161.4734846205" width="62.58128608765625" height="21.23576429"/></g><text fill="black" stroke="none" font-family="sans-serif" font-size="11pt" font-style="normal" font-weight="normal" text-decoration="normal" x="49.50768672526041" y="176.17516759049997" text-anchor="start" dominant-baseline="alphabetic">"Ignacio"</text></g><g><path fill="none" stroke="black" paint-order="fill stroke markers" d=" M 23.64361483359375 182.70924891049998 L 130.32994983125 182.70924891049998" stroke-miterlimit="10" stroke-width="1.3612669416666667" stroke-dasharray=""/><g transform="translate(133.05248371458333,182.70924891049998) translate(-133.05248371458333,-182.70924891049998)"><path fill="black" stroke="none" paint-order="stroke fill markers" d=" M 119.43981429791667 175.90291420216664 L 133.05248371458333 182.70924891049998 L 119.43981429791667 189.51558361883332 Z"/></g></g><g><g><rect fill="white" stroke="none" x="113.80941786403191" y="207.2120538605" width="40.748781815195315" height="21.23576429"/></g><text fill="black" stroke="none" font-family="sans-serif" font-size="11pt" font-style="normal" font-weight="normal" text-decoration="normal" x="116.25969835903192" y="221.91373683049997" text-anchor="start" dominant-baseline="alphabetic">press</text></g><g><path fill="none" stroke="black" paint-order="fill stroke markers" d=" M 23.64361483359375 228.44781815049998 L 242.00146882633203 228.44781815049998" stroke-miterlimit="10" stroke-width="1.3612669416666667" stroke-dasharray=""/><g transform="translate(244.72400270966537,228.44781815049998) translate(-244.72400270966537,-228.44781815049998)"><path fill="black" stroke="none" paint-order="stroke fill markers" d=" M 231.1113332929987 221.64148344216665 L 244.72400270966537 228.44781815049998 L 231.1113332929987 235.25415285883332 Z"/></g></g><g><g><rect fill="white" stroke="none" x="280.38919658133204" y="252.9506231005" width="66.83325447144531" height="21.23576429"/></g><text fill="black" stroke="none" font-family="sans-serif" font-size="11pt" font-style="normal" font-weight="normal" text-decoration="normal" x="282.83947707633206" y="267.6523060705" text-anchor="start" dominant-baseline="alphabetic">onSubmit</text></g><g><path fill="none" stroke="black" paint-order="fill stroke markers" d=" M 261.0592060096654 274.1863873905 L 363.82990774111073 274.1863873905" stroke-miterlimit="10" stroke-width="1.3612669416666667" stroke-dasharray=""/><g transform="translate(366.55244162444404,274.1863873905) translate(-366.55244162444404,-274.1863873905)"><path fill="black" stroke="none" paint-order="stroke fill markers" d=" M 352.93977220777737 267.38005268216665 L 366.55244162444404 274.1863873905 L 352.93977220777737 280.9927220988333 Z"/></g></g><g><g><rect fill="white" stroke="none" x="223.03943758935745" y="298.6891923405" width="61.6936518103125" height="21.23576429"/></g><text fill="black" stroke="none" font-family="sans-serif" font-size="11pt" font-style="normal" font-weight="normal" text-decoration="normal" x="225.48971808435743" y="313.39087531049995" text-anchor="start" dominant-baseline="alphabetic">getValue</text></g><g><path fill="none" stroke="black" paint-order="fill stroke markers" d=" M 366.55244162444404 319.9249566305 L 143.94261924791667 319.9249566305" stroke-miterlimit="10" stroke-width="1.3612669416666667" stroke-dasharray=""/><g transform="translate(141.22008536458333,319.9249566305) translate(-141.22008536458333,-319.9249566305)"><path fill="black" stroke="none" paint-order="stroke fill markers" d=" M 154.83275478125 313.11862192216665 L 141.22008536458333 319.9249566305 L 154.83275478125 326.73129133883333 Z"/></g></g><g><g><rect fill="white" stroke="none" x="222.59562045068557" y="344.4277615805" width="62.58128608765625" height="21.23576429"/></g><text fill="black" stroke="none" font-family="sans-serif" font-size="11pt" font-style="normal" font-weight="normal" text-decoration="normal" x="225.04590094568556" y="359.12944455049995" text-anchor="start" dominant-baseline="alphabetic">"Ignacio"</text></g><g><path fill="none" stroke="black" paint-order="fill stroke markers" d=" M 141.22008536458333 365.6635258705 L 363.82990774111073 365.6635258705" stroke-miterlimit="10" stroke-width="1.3612669416666667" stroke-dasharray="6.53408132"/><g transform="translate(366.55244162444404,365.6635258705) translate(-366.55244162444404,-365.6635258705)"><path fill="black" stroke="none" paint-order="stroke fill markers" d=" M 352.93977220777737 358.85719116216666 L 366.55244162444404 365.6635258705 L 352.93977220777737 372.46986057883333 Z"/></g></g><g><g><rect fill="white" stroke="none" x="410.3852371461107" y="390.1663308205" width="76.59701789917969" height="21.23576429"/></g><text fill="black" stroke="none" font-family="sans-serif" font-size="11pt" font-style="normal" font-weight="normal" text-decoration="normal" x="412.8355176411107" y="404.86801379049996" text-anchor="start" dominant-baseline="alphabetic">createUser</text></g><g><path fill="none" stroke="black" paint-order="fill stroke markers" d=" M 382.88764492444403 411.4020951105 L 456.39605977444404 411.4020951105 L 456.39605977444404 427.7372984105 L 393.77778045777734 427.7372984105" stroke-miterlimit="10" stroke-width="1.3612669416666667" stroke-dasharray=""/><g transform="translate(391.055246574444,427.7372984105) translate(-391.055246574444,-427.7372984105)"><path fill="black" stroke="none" paint-order="stroke fill markers" d=" M 404.6679159911107 420.93096370216665 L 391.055246574444 427.7372984105 L 404.6679159911107 434.5436331188333 Z"/></g></g><g><g><rect fill="white" stroke="none" x="410.3852371461107" y="452.2401033605" width="4.90056099" height="21.23576429"/></g><text fill="black" stroke="none" font-family="sans-serif" font-size="11pt" font-style="normal" font-weight="normal" text-decoration="normal" x="412.8355176411107" y="466.94178633049995" text-anchor="start" dominant-baseline="alphabetic"></text></g><g><path fill="none" stroke="black" paint-order="fill stroke markers" d=" M 391.055246574444 473.4758676505 L 456.39605977444404 473.4758676505 L 456.39605977444404 489.8110709505 L 393.77778045777734 489.8110709505" stroke-miterlimit="10" stroke-width="1.3612669416666667" stroke-dasharray="6.53408132"/><g transform="translate(391.055246574444,489.8110709505) translate(-391.055246574444,-489.8110709505)"><path fill="black" stroke="none" paint-order="stroke fill markers" d=" M 404.6679159911107 483.00473624216664 L 391.055246574444 489.8110709505 L 404.6679159911107 496.6174056588333 Z"/></g></g><g><g><rect fill="white" stroke="none" x="425.36482140461976" y="514.3138759005" width="109.18113960328125" height="21.23576429"/></g><text fill="black" stroke="none" font-family="sans-serif" font-size="11pt" font-style="normal" font-weight="normal" text-decoration="normal" x="427.8151018996198" y="529.0155588705" text-anchor="start" dominant-baseline="alphabetic">POST: newUser</text></g><g><path fill="none" stroke="black" paint-order="fill stroke markers" d=" M 382.88764492444403 527.9889501409879 L 574.3006036047435 560.2011907056266" stroke-miterlimit="10" stroke-width="1.3612669416666667" stroke-dasharray=""/><g transform="translate(577.0231374880768,560.6593567409878) rotate(9.552606562111809,0,0) translate(-577.0231374880768,-560.6593567409878)"><path fill="black" stroke="none" paint-order="stroke fill markers" d=" M 563.4104680714102 553.8530220326545 L 577.0231374880768 560.6593567409878 L 563.4104680714102 567.4656914493212 Z"/><g transform="rotate(-9.552606562111809,0,0)"/></g></g><g><g><rect fill="white" stroke="none" x="311.3555433220547" y="585.1621616909878" width="4.90056099" height="21.23576429"/></g><text fill="black" stroke="none" font-family="sans-serif" font-size="11pt" font-style="normal" font-weight="normal" text-decoration="normal" x="313.8058238170547" y="599.8638446609878" text-anchor="start" dominant-baseline="alphabetic"></text></g><g><path fill="none" stroke="black" paint-order="fill stroke markers" d=" M 366.55244162444404 606.3979259809878 L 263.7817398929987 606.3979259809878" stroke-miterlimit="10" stroke-width="1.3612669416666667" stroke-dasharray="6.53408132"/><g transform="translate(261.0592060096654,606.3979259809878) translate(-261.0592060096654,-606.3979259809878)"><path fill="black" stroke="none" paint-order="stroke fill markers" d=" M 274.67187542633206 599.5915912726545 L 261.0592060096654 606.3979259809878 L 274.67187542633206 613.2042606893211 Z"/></g></g><g><g><rect fill="white" stroke="none" x="611.0382620583763" y="630.9007309309877" width="72.53833259644531" height="21.23576429"/></g><text fill="black" stroke="none" font-family="sans-serif" font-size="11pt" font-style="normal" font-weight="normal" text-decoration="normal" x="613.4885425533763" y="645.6024139009877" text-anchor="start" dominant-baseline="alphabetic">getModels</text></g><g><path fill="none" stroke="black" paint-order="fill stroke markers" d=" M 585.1907391380769 652.1364952209877 L 706.7015836917877 652.1364952209877" stroke-miterlimit="10" stroke-width="1.3612669416666667" stroke-dasharray=""/><g transform="translate(709.424117575121,652.1364952209877) translate(-709.424117575121,-652.1364952209877)"><path fill="black" stroke="none" paint-order="stroke fill markers" d=" M 695.8114481584544 645.3301605126544 L 709.424117575121 652.1364952209877 L 695.8114481584544 658.9428299293211 Z"/></g></g><g><g><rect fill="white" stroke="none" x="621.2279516946068" y="676.6393001709877" width="52.15895332398438" height="21.23576429"/></g><text fill="black" stroke="none" font-family="sans-serif" font-size="11pt" font-style="normal" font-weight="normal" text-decoration="normal" x="623.6782321896068" y="691.3409831409876" text-anchor="start" dominant-baseline="alphabetic">models</text></g><g><path fill="none" stroke="black" paint-order="fill stroke markers" d=" M 709.424117575121 697.8750644609877 L 587.9132730214102 697.8750644609877" stroke-miterlimit="10" stroke-width="1.3612669416666667" stroke-dasharray="6.53408132"/><g transform="translate(585.1907391380769,697.8750644609877) translate(-585.1907391380769,-697.8750644609877)"><path fill="black" stroke="none" paint-order="stroke fill markers" d=" M 598.8034085547436 691.0687297526543 L 585.1907391380769 697.8750644609877 L 598.8034085547436 704.681399169321 Z"/></g></g><g><g><rect fill="white" stroke="none" x="604.5207297097435" y="722.3778694109876" width="85.57339729371094" height="21.23576429"/></g><text fill="black" stroke="none" font-family="sans-serif" font-size="11pt" font-style="normal" font-weight="normal" text-decoration="normal" x="606.9710102047435" y="737.0795523809876" text-anchor="start" dominant-baseline="alphabetic">createModel</text></g><g><path fill="none" stroke="black" paint-order="fill stroke markers" d=" M 585.1907391380769 743.6136337009876 L 706.7015836917877 743.6136337009876" stroke-miterlimit="10" stroke-width="1.3612669416666667" stroke-dasharray=""/><g transform="translate(709.424117575121,743.6136337009876) translate(-709.424117575121,-743.6136337009876)"><path fill="black" stroke="none" paint-order="stroke fill markers" d=" M 695.8114481584544 736.8072989926543 L 709.424117575121 743.6136337009876 L 695.8114481584544 750.419968409321 Z"/></g></g><g><g><rect fill="white" stroke="none" x="624.8929449807396" y="768.1164386509876" width="44.82896675171875" height="21.23576429"/></g><text fill="black" stroke="none" font-family="sans-serif" font-size="11pt" font-style="normal" font-weight="normal" text-decoration="normal" x="627.3432254757396" y="782.8181216209875" text-anchor="start" dominant-baseline="alphabetic">model</text></g><g><path fill="none" stroke="black" paint-order="fill stroke markers" d=" M 709.424117575121 789.3522029409876 L 587.9132730214102 789.3522029409876" stroke-miterlimit="10" stroke-width="1.3612669416666667" stroke-dasharray="6.53408132"/><g transform="translate(585.1907391380769,789.3522029409876) translate(-585.1907391380769,-789.3522029409876)"><path fill="black" stroke="none" paint-order="stroke fill markers" d=" M 598.8034085547436 782.5458682326542 L 585.1907391380769 789.3522029409876 L 598.8034085547436 796.1585376493209 Z"/></g></g><g><g><rect fill="white" stroke="none" x="463.24599358479554" y="813.8550078909875" width="33.41879524292969" height="21.23576429"/></g><text fill="black" stroke="none" font-family="sans-serif" font-size="11pt" font-style="normal" font-weight="normal" text-decoration="normal" x="465.69627407979556" y="828.5566908609875" text-anchor="start" dominant-baseline="alphabetic">user</text></g><g><path fill="none" stroke="black" paint-order="fill stroke markers" d=" M 577.0231374880768 835.0907721809875 L 385.61017880777734 835.0907721809875" stroke-miterlimit="10" stroke-width="1.3612669416666667" stroke-dasharray="6.53408132"/><g transform="translate(382.88764492444403,835.0907721809875) translate(-382.88764492444403,-835.0907721809875)"><path fill="black" stroke="none" paint-order="stroke fill markers" d=" M 396.5003143411107 828.2844374726542 L 382.88764492444403 835.0907721809875 L 396.5003143411107 841.8971068893209 Z"/></g></g><path fill="white" stroke="black" paint-order="fill stroke markers" d=" M 382.88764492444403 886.5466625759875 L 391.055246574444 886.5466625759875 M 391.055246574444 859.5935771309876 L 537.8186495680769 859.5935771309876 L 552.5203325380769 874.2952601009875 L 552.5203325380769 913.4997480209876 L 391.055246574444 913.4997480209876 L 391.055246574444 859.5935771309876 M 537.8186495680769 859.5935771309876 L 537.8186495680769 874.2952601009875 L 552.5203325380769 874.2952601009875" stroke-miterlimit="10" stroke-width="1.3612669416666667" stroke-dasharray=""/><g><text fill="black" stroke="none" font-family="sans-serif" font-size="11pt" font-style="normal" font-weight="normal" text-decoration="normal" x="413.92453119444406" y="882.4628617509875" text-anchor="start" dominant-baseline="alphabetic">Change screen to</text><text fill="black" stroke="none" font-family="sans-serif" font-size="11pt" font-style="normal" font-weight="normal" text-decoration="normal" x="413.92453119444406" y="898.7980650509875" text-anchor="start" dominant-baseline="alphabetic">chat groups</text></g></g><g/><g/><g/><g/><g/><g/></g></svg>