<svg version="1.1" xmlns="http://www.w3.org/2000/svg" xmlns:xlink="http://www.w3.org/1999/xlink" width="1093" height="965"><defs/><g><g/><g/><g/><g/><g/><g/><g/><g/><g/><g/><g/><g/><g/><g/><g/><g><rect fill="white" stroke="none" x="0" y="0" width="1093" height="965"/></g><g><text fill="black" stroke="none" font-family="sans-serif" font-size="16.5pt" font-style="normal" font-weight="normal" text-decoration="normal" x="493.7791769923256" y="24.50280495" text-anchor="start" dominant-baseline="alphabetic">New group</text></g><g/><g><path fill="none" stroke="black" paint-order="fill stroke markers" d=" M 23.64361483359375 128.80307802049998 L 23.64361483359375 965.6747240670225" stroke-miterlimit="10" stroke-width="1.3612669416666667" stroke-dasharray="12.565541,5.445067766666667"/><path fill="none" stroke="black" paint-order="fill stroke markers" d=" M 138.75042072630208 128.80307802049998 L 138.75042072630208 965.6747240670225" stroke-miterlimit="10" stroke-width="1.3612669416666667" stroke-dasharray="12.565541,5.445067766666667"/><path fill="none" stroke="black" paint-order="fill stroke markers" d=" M 283.8436536150365 128.80307802049998 L 283.8436536150365 965.6747240670225" stroke-miterlimit="10" stroke-width="1.3612669416666667" stroke-dasharray="12.565541,5.445067766666667"/><path fill="none" stroke="black" paint-order="fill stroke markers" d=" M 441.5675017381459 128.80307802049998 L 441.5675017381459 965.6747240670225" stroke-miterlimit="10" stroke-width="1.3612669416666667" stroke-dasharray="12.565541,5.445067766666667"/><path fill="none" stroke="black" paint-order="fill stroke markers" d=" M 653.0309800470651 128.80307802049998 L 653.0309800470651 965.6747240670225" stroke-miterlimit="10" stroke-width="1.3612669416666667" stroke-dasharray="12.565541,5.445067766666667"/><path fill="none" stroke="black" paint-order="fill stroke markers" d=" M 798.9187609704675 128.80307802049998 L 798.9187609704675 965.6747240670225" stroke-miterlimit="10" stroke-width="1.3612669416666667" stroke-dasharray="12.565541,5.445067766666667"/><path fill="none" stroke="black" paint-order="fill stroke markers" d=" M 930.8301624993386 128.80307802049998 L 930.8301624993386 965.6747240670225" stroke-miterlimit="10" stroke-width="1.3612669416666667" stroke-dasharray="12.565541,5.445067766666667"/></g><g><g><path fill="white" stroke="black" paint-order="fill stroke markers" d=" M 32.95468071459375 59.70516806150002 A 9.311065881 9.311065881 0 1 1 32.9546760590612 59.69585699717086 M 23.64361483359375 69.01623394250002 L 23.64361483359375 88.94518196850002 M 11.882268457593753 76.20372339450002 L 35.40496120959375 76.20372339450002 M 23.64361483359375 88.94518196850002 L 11.882268457593753 107.56731373050002 M 23.64361483359375 88.94518196850002 L 35.40496120959375 107.56731373050002" stroke-miterlimit="10" stroke-width="2.7769845610000004" stroke-dasharray=""/></g><g><g/><text fill="black" stroke="none" font-family="sans-serif" font-size="11pt" font-style="normal" font-weight="normal" text-decoration="normal" x="8.167601650000002" y="123.90251703050001" text-anchor="start" dominant-baseline="alphabetic">User</text></g><path fill="none" stroke="none"/><g><path fill="white" stroke="black" paint-order="fill stroke markers" d=" M 91.28085264824348 84.69802911050002 L 186.2199888043607 84.69802911050002 L 186.2199888043607 128.8030780205 L 91.28085264824348 128.8030780205 L 91.28085264824348 84.69802911050002 Z" stroke-miterlimit="10" stroke-width="2.613632528" stroke-dasharray=""/></g><g><g/><text fill="black" stroke="none" font-family="sans-serif" font-size="11pt" font-style="normal" font-weight="normal" text-decoration="normal" x="109.00454822874349" y="112.46787472049999" text-anchor="start" dominant-baseline="alphabetic">TextInput</text></g><path fill="none" stroke="none"/><g><path fill="white" stroke="black" paint-order="fill stroke markers" d=" M 202.55519210436069 84.69802911050002 L 365.1321151257123 84.69802911050002 L 365.1321151257123 128.8030780205 L 202.55519210436069 128.8030780205 L 202.55519210436069 84.69802911050002 Z" stroke-miterlimit="10" stroke-width="2.613632528" stroke-dasharray=""/></g><g><g/><text fill="black" stroke="none" font-family="sans-serif" font-size="11pt" font-style="normal" font-weight="normal" text-decoration="normal" x="220.2788876848607" y="112.46787472049999" text-anchor="start" dominant-baseline="alphabetic">CreateGroupButton</text></g><path fill="none" stroke="none"/><g><path fill="white" stroke="black" paint-order="fill stroke markers" d=" M 381.4673184257123 84.69802911050002 L 501.6676850505795 84.69802911050002 L 501.6676850505795 128.8030780205 L 381.4673184257123 128.8030780205 L 381.4673184257123 84.69802911050002 Z" stroke-miterlimit="10" stroke-width="2.613632528" stroke-dasharray=""/></g><g><g/><text fill="black" stroke="none" font-family="sans-serif" font-size="11pt" font-style="normal" font-weight="normal" text-decoration="normal" x="399.1910140062123" y="112.46787472049999" text-anchor="start" dominant-baseline="alphabetic">invite_user.js</text></g><path fill="none" stroke="none"/><g><path fill="white" stroke="black" paint-order="fill stroke markers" d=" M 568.4962798278932 84.69802911050002 L 737.565680266237 84.69802911050002 L 737.565680266237 128.8030780205 L 568.4962798278932 128.8030780205 L 568.4962798278932 84.69802911050002 Z" stroke-miterlimit="10" stroke-width="2.613632528" stroke-dasharray=""/></g><g><g/><text fill="black" stroke="none" font-family="sans-serif" font-size="11pt" font-style="normal" font-weight="normal" text-decoration="normal" x="586.2199754083932" y="112.46787472049999" text-anchor="start" dominant-baseline="alphabetic">ChatRoomController</text></g><path fill="none" stroke="none"/><g><path fill="white" stroke="black" paint-order="fill stroke markers" d=" M 753.900883566237 84.69802911050002 L 843.936638374698 84.69802911050002 L 843.936638374698 128.8030780205 L 753.900883566237 128.8030780205 L 753.900883566237 84.69802911050002 Z" stroke-miterlimit="10" stroke-width="2.613632528" stroke-dasharray=""/></g><g><g/><text fill="black" stroke="none" font-family="sans-serif" font-size="11pt" font-style="normal" font-weight="normal" text-decoration="normal" x="771.624579146737" y="112.46787472049999" text-anchor="start" dominant-baseline="alphabetic">Provider</text></g><path fill="none" stroke="none"/><g><path fill="white" stroke="black" paint-order="fill stroke markers" d=" M 860.271841674698 84.69802911050002 L 1001.3884833239792 84.69802911050002 L 1001.3884833239792 128.8030780205 L 860.271841674698 128.8030780205 L 860.271841674698 84.69802911050002 Z" stroke-miterlimit="10" stroke-width="2.613632528" stroke-dasharray=""/></g><g><g/><text fill="black" stroke="none" font-family="sans-serif" font-size="11pt" font-style="normal" font-weight="normal" text-decoration="normal" x="877.995537255198" y="112.46787472049999" text-anchor="start" dominant-baseline="alphabetic">ChatWebSocket</text></g></g><g><path fill="white" stroke="black" paint-order="fill stroke markers" d=" M 275.6760519650365 228.44781815049998 L 292.0112552650365 228.44781815049998 L 292.0112552650365 485.4806388540047 L 275.6760519650365 485.4806388540047 L 275.6760519650365 228.44781815049998" stroke-miterlimit="10" stroke-width="1.3612669416666667" stroke-dasharray=""/><path fill="white" stroke="black" paint-order="fill stroke markers" d=" M 433.3999000881459 274.1863873905 L 449.7351033881459 274.1863873905 L 449.7351033881459 797.4221300770224 L 433.3999000881459 797.4221300770224 L 433.3999000881459 274.1863873905" stroke-miterlimit="10" stroke-width="1.3612669416666667" stroke-dasharray=""/><path fill="white" stroke="black" paint-order="fill stroke markers" d=" M 130.5828190763021 319.9249566305 L 146.91802237630208 319.9249566305 L 146.91802237630208 365.6635258705 L 130.5828190763021 365.6635258705 L 130.5828190763021 319.9249566305" stroke-miterlimit="10" stroke-width="1.3612669416666667" stroke-dasharray=""/><path fill="white" stroke="black" paint-order="fill stroke markers" d=" M 644.863378397065 439.7420696140047 L 661.1985816970652 439.7420696140047 L 661.1985816970652 609.1572420648728 L 644.863378397065 609.1572420648728 L 644.863378397065 439.7420696140047" stroke-miterlimit="10" stroke-width="1.3612669416666667" stroke-dasharray=""/><path fill="white" stroke="black" paint-order="fill stroke markers" d=" M 790.7511593204674 531.2192080940047 L 807.0863626204675 531.2192080940047 L 807.0863626204675 576.9577773340046 L 790.7511593204674 576.9577773340046 L 790.7511593204674 531.2192080940047" stroke-miterlimit="10" stroke-width="1.3612669416666667" stroke-dasharray=""/><path fill="white" stroke="black" paint-order="fill stroke markers" d=" M 441.5675017381459 703.9014212048728 L 457.9027050381459 703.9014212048728 L 457.9027050381459 765.9751937448727 L 441.5675017381459 765.9751937448727 L 441.5675017381459 703.9014212048728" stroke-miterlimit="10" stroke-width="1.3612669416666667" stroke-dasharray=""/><g><g><rect fill="white" stroke="none" x="47.05740623026041" y="161.4734846205" width="68.279223099375" height="21.23576429"/></g><text fill="black" stroke="none" font-family="sans-serif" font-size="11pt" font-style="normal" font-weight="normal" text-decoration="normal" x="49.50768672526041" y="176.17516759049997" text-anchor="start" dominant-baseline="alphabetic">"Group 1"</text></g><g><path fill="none" stroke="black" paint-order="fill stroke markers" d=" M 23.64361483359375 182.70924891049998 L 136.02788684296874 182.70924891049998" stroke-miterlimit="10" stroke-width="1.3612669416666667" stroke-dasharray=""/><g transform="translate(138.75042072630208,182.70924891049998) translate(-138.75042072630208,-182.70924891049998)"><path fill="black" stroke="none" paint-order="stroke fill markers" d=" M 125.13775130963542 175.90291420216664 L 138.75042072630208 182.70924891049998 L 125.13775130963542 189.51558361883332 Z"/></g></g><g><g><rect fill="white" stroke="none" x="129.28544249171748" y="207.2120538605" width="40.748781815195315" height="21.23576429"/></g><text fill="black" stroke="none" font-family="sans-serif" font-size="11pt" font-style="normal" font-weight="normal" text-decoration="normal" x="131.73572298671746" y="221.91373683049997" text-anchor="start" dominant-baseline="alphabetic">press</text></g><g><path fill="none" stroke="black" paint-order="fill stroke markers" d=" M 23.64361483359375 228.44781815049998 L 272.9535180817032 228.44781815049998" stroke-miterlimit="10" stroke-width="1.3612669416666667" stroke-dasharray=""/><g transform="translate(275.6760519650365,228.44781815049998) translate(-275.6760519650365,-228.44781815049998)"><path fill="black" stroke="none" paint-order="stroke fill markers" d=" M 262.0633825483698 221.64148344216665 L 275.6760519650365 228.44781815049998 L 262.0633825483698 235.25415285883332 Z"/></g></g><g><g><rect fill="white" stroke="none" x="311.77643823383727" y="252.9506231005" width="101.85827888550781" height="21.23576429"/></g><text fill="black" stroke="none" font-family="sans-serif" font-size="11pt" font-style="normal" font-weight="normal" text-decoration="normal" x="314.2267187288373" y="267.6523060705" text-anchor="start" dominant-baseline="alphabetic">processSubmit</text></g><g><path fill="none" stroke="black" paint-order="fill stroke markers" d=" M 292.0112552650365 274.1863873905 L 430.6773662048126 274.1863873905" stroke-miterlimit="10" stroke-width="1.3612669416666667" stroke-dasharray=""/><g transform="translate(433.3999000881459,274.1863873905) translate(-433.3999000881459,-274.1863873905)"><path fill="black" stroke="none" paint-order="stroke fill markers" d=" M 419.7872306714792 267.38005268216665 L 433.3999000881459 274.1863873905 L 419.7872306714792 280.9927220988333 Z"/></g></g><g><g><rect fill="white" stroke="none" x="259.3121353270677" y="298.6891923405" width="61.6936518103125" height="21.23576429"/></g><text fill="black" stroke="none" font-family="sans-serif" font-size="11pt" font-style="normal" font-weight="normal" text-decoration="normal" x="261.76241582206774" y="313.39087531049995" text-anchor="start" dominant-baseline="alphabetic">getValue</text></g><g><path fill="none" stroke="black" paint-order="fill stroke markers" d=" M 433.3999000881459 319.9249566305 L 149.64055625963542 319.9249566305" stroke-miterlimit="10" stroke-width="1.3612669416666667" stroke-dasharray=""/><g transform="translate(146.91802237630208,319.9249566305) translate(-146.91802237630208,-319.9249566305)"><path fill="black" stroke="none" paint-order="stroke fill markers" d=" M 160.53069179296875 313.11862192216665 L 146.91802237630208 319.9249566305 L 160.53069179296875 326.73129133883333 Z"/></g></g><g><g><rect fill="white" stroke="none" x="256.0193496825365" y="344.4277615805" width="68.279223099375" height="21.23576429"/></g><text fill="black" stroke="none" font-family="sans-serif" font-size="11pt" font-style="normal" font-weight="normal" text-decoration="normal" x="258.4696301775365" y="359.12944455049995" text-anchor="start" dominant-baseline="alphabetic">"Group 1"</text></g><g><path fill="none" stroke="black" paint-order="fill stroke markers" d=" M 146.91802237630208 365.6635258705 L 430.6773662048126 365.6635258705" stroke-miterlimit="10" stroke-width="1.3612669416666667" stroke-dasharray="6.53408132"/><g transform="translate(433.3999000881459,365.6635258705) translate(-433.3999000881459,-365.6635258705)"><path fill="black" stroke="none" paint-order="stroke fill markers" d=" M 419.7872306714792 358.85719116216666 L 433.3999000881459 365.6635258705 L 419.7872306714792 372.46986057883333 Z"/></g></g><g><g><rect fill="white" stroke="none" x="473.14889478481246" y="390.1663308205" width="148.30069221558594" height="21.23576429"/></g><text fill="black" stroke="none" font-family="sans-serif" font-size="11pt" font-style="normal" font-weight="normal" text-decoration="normal" x="475.59917527981247" y="404.86801379049996" text-anchor="start" dominant-baseline="alphabetic">POST: newChatRoom</text></g><g><path fill="none" stroke="black" paint-order="fill stroke markers" d=" M 449.7351033881459 407.07166301400474 L 642.1408445137317 439.2862346564789" stroke-miterlimit="10" stroke-width="1.3612669416666667" stroke-dasharray=""/><g transform="translate(644.863378397065,439.7420696140047) rotate(9.50489337519597,0,0) translate(-644.863378397065,-439.7420696140047)"><path fill="black" stroke="none" paint-order="stroke fill markers" d=" M 631.2507089803984 432.9357349056714 L 644.863378397065 439.7420696140047 L 631.2507089803984 446.54840432233806 Z"/><g transform="rotate(-9.50489337519597,0,0)"/></g></g><g><g><rect fill="white" stroke="none" x="360.2552971815912" y="464.2448745640047" width="4.90056099" height="21.23576429"/></g><text fill="black" stroke="none" font-family="sans-serif" font-size="11pt" font-style="normal" font-weight="normal" text-decoration="normal" x="362.7055776765912" y="478.9465575340047" text-anchor="start" dominant-baseline="alphabetic"></text></g><g><path fill="none" stroke="black" paint-order="fill stroke markers" d=" M 433.3999000881459 485.4806388540047 L 294.7337891483698 485.4806388540047" stroke-miterlimit="10" stroke-width="1.3612669416666667" stroke-dasharray="6.53408132"/><g transform="translate(292.0112552650365,485.4806388540047) translate(-292.0112552650365,-485.4806388540047)"><path fill="black" stroke="none" paint-order="stroke fill markers" d=" M 305.62392468170316 478.6743041456714 L 292.0112552650365 485.4806388540047 L 305.62392468170316 492.28697356233806 Z"/></g></g><g><g><rect fill="white" stroke="none" x="683.1881718619109" y="509.98344380400465" width="85.57339729371094" height="21.23576429"/></g><text fill="black" stroke="none" font-family="sans-serif" font-size="11pt" font-style="normal" font-weight="normal" text-decoration="normal" x="685.6384523569109" y="524.6851267740046" text-anchor="start" dominant-baseline="alphabetic">createModel</text></g><g><path fill="none" stroke="black" paint-order="fill stroke markers" d=" M 661.1985816970652 531.2192080940047 L 788.0286254371341 531.2192080940047" stroke-miterlimit="10" stroke-width="1.3612669416666667" stroke-dasharray=""/><g transform="translate(790.7511593204674,531.2192080940047) translate(-790.7511593204674,-531.2192080940047)"><path fill="black" stroke="none" paint-order="stroke fill markers" d=" M 777.1384899038007 524.4128733856713 L 790.7511593204674 531.2192080940047 L 777.1384899038007 538.025542802338 Z"/></g></g><g><g><rect fill="white" stroke="none" x="706.8245244009734" y="555.7220130440046" width="38.30069221558594" height="21.23576429"/></g><text fill="black" stroke="none" font-family="sans-serif" font-size="11pt" font-style="normal" font-weight="normal" text-decoration="normal" x="709.2748048959734" y="570.4236960140046" text-anchor="start" dominant-baseline="alphabetic">room</text></g><g><path fill="none" stroke="black" paint-order="fill stroke markers" d=" M 790.7511593204674 576.9577773340046 L 663.9211155803985 576.9577773340046" stroke-miterlimit="10" stroke-width="1.3612669416666667" stroke-dasharray="6.53408132"/><g transform="translate(661.1985816970652,576.9577773340046) translate(-661.1985816970652,-576.9577773340046)"><path fill="black" stroke="none" paint-order="stroke fill markers" d=" M 674.8112511137318 570.1514426256713 L 661.1985816970652 576.9577773340046 L 674.8112511137318 583.764112042338 Z"/></g></g><g><g><rect fill="white" stroke="none" x="528.1488947848125" y="601.4605822840047" width="38.30069221558594" height="21.23576429"/></g><text fill="black" stroke="none" font-family="sans-serif" font-size="11pt" font-style="normal" font-weight="normal" text-decoration="normal" x="530.5991752798125" y="616.1622652540046" text-anchor="start" dominant-baseline="alphabetic">room</text></g><g><path fill="none" stroke="black" paint-order="fill stroke markers" d=" M 644.863378397065 609.1572420648728 L 452.4576372714792 641.371813707347" stroke-miterlimit="10" stroke-width="1.3612669416666667" stroke-dasharray="6.53408132"/><g transform="translate(449.7351033881459,641.8276486648728) rotate(-9.50489337519597,0,0) translate(-449.7351033881459,-641.8276486648728)"><path fill="black" stroke="none" paint-order="stroke fill markers" d=" M 463.34777280481256 635.0213139565394 L 449.7351033881459 641.8276486648728 L 463.34777280481256 648.6339833732061 Z"/><g transform="rotate(9.50489337519597,0,0)"/></g></g><g><g><rect fill="white" stroke="none" x="477.23269560981254" y="666.3304536148728" width="70.10455574097656" height="21.23576429"/></g><text fill="black" stroke="none" font-family="sans-serif" font-size="11pt" font-style="normal" font-weight="normal" text-decoration="normal" x="479.68297610481255" y="681.0321365848728" text-anchor="start" dominant-baseline="alphabetic">addGroup</text></g><g><path fill="none" stroke="black" paint-order="fill stroke markers" d=" M 449.7351033881459 687.5662179048728 L 523.2435182381458 687.5662179048728 L 523.2435182381458 703.9014212048728 L 460.6252389214792 703.9014212048728" stroke-miterlimit="10" stroke-width="1.3612669416666667" stroke-dasharray=""/><g transform="translate(457.9027050381459,703.9014212048728) translate(-457.9027050381459,-703.9014212048728)"><path fill="black" stroke="none" paint-order="stroke fill markers" d=" M 471.51537445481256 697.0950864965395 L 457.9027050381459 703.9014212048728 L 471.51537445481256 710.7077559132061 Z"/></g></g><g><g><rect fill="white" stroke="none" x="477.23269560981254" y="728.4042261548727" width="4.90056099" height="21.23576429"/></g><text fill="black" stroke="none" font-family="sans-serif" font-size="11pt" font-style="normal" font-weight="normal" text-decoration="normal" x="479.68297610481255" y="743.1059091248727" text-anchor="start" dominant-baseline="alphabetic"></text></g><g><path fill="none" stroke="black" paint-order="fill stroke markers" d=" M 457.9027050381459 749.6399904448728 L 523.2435182381458 749.6399904448728 L 523.2435182381458 765.9751937448727 L 460.6252389214792 765.9751937448727" stroke-miterlimit="10" stroke-width="1.3612669416666667" stroke-dasharray="6.53408132"/><g transform="translate(457.9027050381459,765.9751937448727) translate(-457.9027050381459,-765.9751937448727)"><path fill="black" stroke="none" paint-order="stroke fill markers" d=" M 471.51537445481256 759.1688590365394 L 457.9027050381459 765.9751937448727 L 471.51537445481256 772.7815284532061 Z"/></g></g><g><g><rect fill="white" stroke="none" x="657.7393196118281" y="790.4779986948727" width="65.08662666382813" height="21.23576429"/></g><text fill="black" stroke="none" font-family="sans-serif" font-size="11pt" font-style="normal" font-weight="normal" text-decoration="normal" x="660.1896001068282" y="805.1796816648726" text-anchor="start" dominant-baseline="alphabetic">emit 'join'</text></g><g><path fill="none" stroke="black" paint-order="fill stroke markers" d=" M 449.7351033881459 797.4221300770224 L 928.1076286160053 829.9076536954447" stroke-miterlimit="10" stroke-width="1.3612669416666667" stroke-dasharray=""/><g transform="translate(930.8301624993386,830.0925366770224) rotate(3.8849015254231096,0,0) translate(-930.8301624993386,-830.0925366770224)"><path fill="black" stroke="none" paint-order="stroke fill markers" d=" M 917.2174930826719 823.286201968689 L 930.8301624993386 830.0925366770224 L 917.2174930826719 836.8988713853557 Z"/><g transform="rotate(-3.8849015254231096,0,0)"/></g></g><path fill="white" stroke="black" paint-order="fill stroke markers" d=" M 930.8301624993386 881.5484270720224 L 938.9977641493386 881.5484270720224 M 938.9977641493386 854.5953416270224 L 1071.079694364651 854.5953416270224 L 1085.781377334651 869.2970245970224 L 1085.781377334651 908.5015125170224 L 938.9977641493386 908.5015125170224 L 938.9977641493386 854.5953416270224 M 1071.079694364651 854.5953416270224 L 1071.079694364651 869.2970245970224 L 1085.781377334651 869.2970245970224" stroke-miterlimit="10" stroke-width="1.3612669416666667" stroke-dasharray=""/><g><text fill="black" stroke="none" font-family="sans-serif" font-size="11pt" font-style="normal" font-weight="normal" text-decoration="normal" x="961.8670487693386" y="877.4646262470224" text-anchor="start" dominant-baseline="alphabetic">the socket joins</text><text fill="black" stroke="none" font-family="sans-serif" font-size="11pt" font-style="normal" font-weight="normal" text-decoration="normal" x="961.8670487693386" y="893.7998295470223" text-anchor="start" dominant-baseline="alphabetic">the room id</text></g></g><g/><g/><g/><g/><g/><g/><g/></g></svg>