<svg version="1.1" xmlns="http://www.w3.org/2000/svg" xmlns:xlink="http://www.w3.org/1999/xlink" width="874" height="1311"><defs/><g><g/><g/><g/><g/><g/><g/><g/><g/><g/><g/><g/><g/><g/><g/><g/><g/><g/><g/><g/><g/><g><rect fill="white" stroke="none" x="0" y="0" width="874" height="1311"/></g><g><text fill="black" stroke="none" font-family="sans-serif" font-size="16.5pt" font-style="normal" font-weight="normal" text-decoration="normal" x="363.67882266301626" y="24.50280495" text-anchor="start" dominant-baseline="alphabetic">Send message</text></g><g/><g><path fill="none" stroke="black" paint-order="fill stroke markers" d=" M 23.64361483359375 128.80307802049998 L 23.64361483359375 1311.7628926685775" stroke-miterlimit="10" stroke-width="1.3612669416666667" stroke-dasharray="12.565541,5.445067766666667"/><path fill="none" stroke="black" paint-order="fill stroke markers" d=" M 119.18706623411458 128.80307802049998 L 119.18706623411458 1311.7628926685775" stroke-miterlimit="10" stroke-width="1.3612669416666667" stroke-dasharray="12.565541,5.445067766666667"/><path fill="none" stroke="black" paint-order="fill stroke markers" d=" M 239.02618687919662 128.80307802049998 L 239.02618687919662 1311.7628926685775" stroke-miterlimit="10" stroke-width="1.3612669416666667" stroke-dasharray="12.565541,5.445067766666667"/><path fill="none" stroke="black" paint-order="fill stroke markers" d=" M 360.8546257939753 128.80307802049998 L 360.8546257939753 1311.7628926685775" stroke-miterlimit="10" stroke-width="1.3612669416666667" stroke-dasharray="12.565541,5.445067766666667"/><path fill="none" stroke="black" paint-order="fill stroke markers" d=" M 554.6610163512669 499.1221368315 L 554.6610163512669 1311.7628926685775" stroke-miterlimit="10" stroke-width="1.3612669416666667" stroke-dasharray="12.565541,5.445067766666667"/><path fill="none" stroke="black" paint-order="fill stroke markers" d=" M 689.020530367931 128.80307802049998 L 689.020530367931 1311.7628926685775" stroke-miterlimit="10" stroke-width="1.3612669416666667" stroke-dasharray="12.565541,5.445067766666667"/><path fill="none" stroke="black" paint-order="fill stroke markers" d=" M 820.9319318968021 128.80307802049998 L 820.9319318968021 1311.7628926685775" stroke-miterlimit="10" stroke-width="1.3612669416666667" stroke-dasharray="12.565541,5.445067766666667"/></g><g><g><path fill="white" stroke="black" paint-order="fill stroke markers" d=" M 32.95468071459375 59.70516806150002 A 9.311065881 9.311065881 0 1 1 32.9546760590612 59.69585699717086 M 23.64361483359375 69.01623394250002 L 23.64361483359375 88.94518196850002 M 11.882268457593753 76.20372339450002 L 35.40496120959375 76.20372339450002 M 23.64361483359375 88.94518196850002 L 11.882268457593753 107.56731373050002 M 23.64361483359375 88.94518196850002 L 35.40496120959375 107.56731373050002" stroke-miterlimit="10" stroke-width="2.7769845610000004" stroke-dasharray=""/></g><g><g/><text fill="black" stroke="none" font-family="sans-serif" font-size="11pt" font-style="normal" font-weight="normal" text-decoration="normal" x="8.167601650000002" y="123.90251703050001" text-anchor="start" dominant-baseline="alphabetic">User</text></g><path fill="none" stroke="none"/><g><path fill="white" stroke="black" paint-order="fill stroke markers" d=" M 71.71749815605598 84.69802911050002 L 166.6566343121732 84.69802911050002 L 166.6566343121732 128.8030780205 L 71.71749815605598 128.8030780205 L 71.71749815605598 84.69802911050002 Z" stroke-miterlimit="10" stroke-width="2.613632528" stroke-dasharray=""/></g><g><g/><text fill="black" stroke="none" font-family="sans-serif" font-size="11pt" font-style="normal" font-weight="normal" text-decoration="normal" x="89.44119373655599" y="112.46787472049999" text-anchor="start" dominant-baseline="alphabetic">TextInput</text></g><path fill="none" stroke="none"/><g><path fill="white" stroke="black" paint-order="fill stroke markers" d=" M 182.99183761217319 84.69802911050002 L 295.0605361462201 84.69802911050002 L 295.0605361462201 128.8030780205 L 182.99183761217319 128.8030780205 L 182.99183761217319 84.69802911050002 Z" stroke-miterlimit="10" stroke-width="2.613632528" stroke-dasharray=""/></g><g><g/><text fill="black" stroke="none" font-family="sans-serif" font-size="11pt" font-style="normal" font-weight="normal" text-decoration="normal" x="200.71553319267318" y="112.46787472049999" text-anchor="start" dominant-baseline="alphabetic">SendButton</text></g><path fill="none" stroke="none"/><g><path fill="white" stroke="black" paint-order="fill stroke markers" d=" M 321.94626071884636 84.69802911050002 L 399.7629908691042 84.69802911050002 L 399.7629908691042 128.8030780205 L 321.94626071884636 128.8030780205 L 321.94626071884636 84.69802911050002 Z" stroke-miterlimit="10" stroke-width="2.613632528" stroke-dasharray=""/></g><g><g/><text fill="black" stroke="none" font-family="sans-serif" font-size="11pt" font-style="normal" font-weight="normal" text-decoration="normal" x="339.6699562993464" y="112.46787472049999" text-anchor="start" dominant-baseline="alphabetic">chat.js</text></g><path fill="none" stroke="none"/><g><path fill="white" stroke="black" paint-order="fill stroke markers" d=" M 618.4622095432903 84.69802911050002 L 759.5788511925716 84.69802911050002 L 759.5788511925716 128.8030780205 L 618.4622095432903 128.8030780205 L 618.4622095432903 84.69802911050002 Z" stroke-miterlimit="10" stroke-width="2.613632528" stroke-dasharray=""/></g><g><g/><text fill="black" stroke="none" font-family="sans-serif" font-size="11pt" font-style="normal" font-weight="normal" text-decoration="normal" x="636.1859051237903" y="112.46787472049999" text-anchor="start" dominant-baseline="alphabetic">ChatWebSocket</text></g><path fill="none" stroke="none"/><g><path fill="white" stroke="black" paint-order="fill stroke markers" d=" M 775.9140544925716 84.69802911050002 L 865.9498093010326 84.69802911050002 L 865.9498093010326 128.8030780205 L 775.9140544925716 128.8030780205 L 775.9140544925716 84.69802911050002 Z" stroke-miterlimit="10" stroke-width="2.613632528" stroke-dasharray=""/></g><g><g/><text fill="black" stroke="none" font-family="sans-serif" font-size="11pt" font-style="normal" font-weight="normal" text-decoration="normal" x="793.6377500730716" y="112.46787472049999" text-anchor="start" dominant-baseline="alphabetic">Provider</text></g></g><g><path fill="white" stroke="black" paint-order="fill stroke markers" d=" M 230.85858522919662 228.44781815049998 L 247.1937885291966 228.44781815049998 L 247.1937885291966 846.0052746464712 L 230.85858522919662 846.0052746464712 L 230.85858522919662 228.44781815049998" stroke-miterlimit="10" stroke-width="1.3612669416666667" stroke-dasharray=""/><path fill="white" stroke="black" paint-order="fill stroke markers" d=" M 352.6870241439753 274.1863873905 L 369.0222274439753 274.1863873905 L 369.0222274439753 800.2667054064713 L 352.6870241439753 800.2667054064713 L 352.6870241439753 274.1863873905" stroke-miterlimit="10" stroke-width="1.3612669416666667" stroke-dasharray=""/><path fill="white" stroke="black" paint-order="fill stroke markers" d=" M 111.01946458411459 319.9249566305 L 127.35466788411458 319.9249566305 L 127.35466788411458 365.6635258705 L 111.01946458411459 365.6635258705 L 111.01946458411459 319.9249566305" stroke-miterlimit="10" stroke-width="1.3612669416666667" stroke-dasharray=""/><path fill="white" stroke="black" paint-order="fill stroke markers" d=" M 360.8546257939753 427.7372984105 L 377.1898290939753 427.7372984105 L 377.1898290939753 754.5281361664713 L 360.8546257939753 754.5281361664713 L 360.8546257939753 427.7372984105" stroke-miterlimit="10" stroke-width="1.3612669416666667" stroke-dasharray=""/><path fill="white" stroke="black" paint-order="fill stroke markers" d=" M 369.0222274439753 561.1959093715 L 385.35743074397527 561.1959093715 L 385.35743074397527 692.4543636264714 L 369.0222274439753 692.4543636264714 L 369.0222274439753 561.1959093715" stroke-miterlimit="10" stroke-width="1.3612669416666667" stroke-dasharray=""/><path fill="white" stroke="black" paint-order="fill stroke markers" d=" M 680.8529287179309 630.3805910864714 L 697.188132017931 630.3805910864714 L 697.188132017931 973.6241843585777 L 680.8529287179309 973.6241843585777 L 680.8529287179309 630.3805910864714" stroke-miterlimit="10" stroke-width="1.3612669416666667" stroke-dasharray=""/><path fill="white" stroke="black" paint-order="fill stroke markers" d=" M 812.764330246802 891.7438438864712 L 829.0995335468021 891.7438438864712 L 829.0995335468021 937.4824131264711 L 812.764330246802 937.4824131264711 L 812.764330246802 891.7438438864712" stroke-miterlimit="10" stroke-width="1.3612669416666667" stroke-dasharray=""/><path fill="white" stroke="black" paint-order="fill stroke markers" d=" M 352.6870241439753 1006.2945909585777 L 369.0222274439753 1006.2945909585777 L 369.0222274439753 1254.5896811185776 L 352.6870241439753 1254.5896811185776 L 352.6870241439753 1006.2945909585777" stroke-miterlimit="10" stroke-width="1.3612669416666667" stroke-dasharray=""/><path fill="white" stroke="black" paint-order="fill stroke markers" d=" M 360.8546257939753 1068.3683634985778 L 377.1898290939753 1068.3683634985778 L 377.1898290939753 1130.4421360385777 L 360.8546257939753 1130.4421360385777 L 360.8546257939753 1068.3683634985778" stroke-miterlimit="10" stroke-width="1.3612669416666667" stroke-dasharray=""/><path fill="white" stroke="black" paint-order="fill stroke markers" d=" M 360.8546257939753 1192.5159085785776 L 377.1898290939753 1192.5159085785776 L 377.1898290939753 1254.5896811185776 L 360.8546257939753 1254.5896811185776 L 360.8546257939753 1192.5159085785776" stroke-miterlimit="10" stroke-width="1.3612669416666667" stroke-dasharray=""/><g><g><rect fill="white" stroke="none" x="47.05740623026041" y="161.4734846205" width="48.7158686071875" height="21.23576429"/></g><text fill="black" stroke="none" font-family="sans-serif" font-size="11pt" font-style="normal" font-weight="normal" text-decoration="normal" x="49.50768672526041" y="176.17516759049997" text-anchor="start" dominant-baseline="alphabetic">"Hello"</text></g><g><path fill="none" stroke="black" paint-order="fill stroke markers" d=" M 23.64361483359375 182.70924891049998 L 116.46453235078124 182.70924891049998" stroke-miterlimit="10" stroke-width="1.3612669416666667" stroke-dasharray=""/><g transform="translate(119.18706623411458,182.70924891049998) translate(-119.18706623411458,-182.70924891049998)"><path fill="black" stroke="none" paint-order="stroke fill markers" d=" M 105.57439681744792 175.90291420216664 L 119.18706623411458 182.70924891049998 L 105.57439681744792 189.51558361883332 Z"/></g></g><g><g><rect fill="white" stroke="none" x="106.87670912379754" y="207.2120538605" width="40.748781815195315" height="21.23576429"/></g><text fill="black" stroke="none" font-family="sans-serif" font-size="11pt" font-style="normal" font-weight="normal" text-decoration="normal" x="109.32698961879754" y="221.91373683049997" text-anchor="start" dominant-baseline="alphabetic">press</text></g><g><path fill="none" stroke="black" paint-order="fill stroke markers" d=" M 23.64361483359375 228.44781815049998 L 228.13605134586328 228.44781815049998" stroke-miterlimit="10" stroke-width="1.3612669416666667" stroke-dasharray=""/><g transform="translate(230.85858522919662,228.44781815049998) translate(-230.85858522919662,-228.44781815049998)"><path fill="black" stroke="none" paint-order="stroke fill markers" d=" M 217.24591581252994 221.64148344216665 L 230.85858522919662 228.44781815049998 L 217.24591581252994 235.25415285883332 Z"/></g></g><g><g><rect fill="white" stroke="none" x="266.5237791008633" y="252.9506231005" width="66.83325447144531" height="21.23576429"/></g><text fill="black" stroke="none" font-family="sans-serif" font-size="11pt" font-style="normal" font-weight="normal" text-decoration="normal" x="268.9740595958633" y="267.6523060705" text-anchor="start" dominant-baseline="alphabetic">onSubmit</text></g><g><path fill="none" stroke="black" paint-order="fill stroke markers" d=" M 247.1937885291966 274.1863873905 L 349.964490260642 274.1863873905" stroke-miterlimit="10" stroke-width="1.3612669416666667" stroke-dasharray=""/><g transform="translate(352.6870241439753,274.1863873905) translate(-352.6870241439753,-274.1863873905)"><path fill="black" stroke="none" paint-order="stroke fill markers" d=" M 339.0743547273086 267.38005268216665 L 352.6870241439753 274.1863873905 L 339.0743547273086 280.9927220988333 Z"/></g></g><g><g><rect fill="white" stroke="none" x="220.0473111245137" y="298.6891923405" width="39.9470697790625" height="21.23576429"/></g><text fill="black" stroke="none" font-family="sans-serif" font-size="11pt" font-style="normal" font-weight="normal" text-decoration="normal" x="222.49759161951368" y="313.39087531049995" text-anchor="start" dominant-baseline="alphabetic">value</text></g><g><path fill="none" stroke="black" paint-order="fill stroke markers" d=" M 352.6870241439753 319.9249566305 L 130.07720176744792 319.9249566305" stroke-miterlimit="10" stroke-width="1.3612669416666667" stroke-dasharray=""/><g transform="translate(127.35466788411458,319.9249566305) translate(-127.35466788411458,-319.9249566305)"><path fill="black" stroke="none" paint-order="stroke fill markers" d=" M 140.96733730078125 313.11862192216665 L 127.35466788411458 319.9249566305 L 140.96733730078125 326.73129133883333 Z"/></g></g><g><g><rect fill="white" stroke="none" x="215.6629117104512" y="344.4277615805" width="48.7158686071875" height="21.23576429"/></g><text fill="black" stroke="none" font-family="sans-serif" font-size="11pt" font-style="normal" font-weight="normal" text-decoration="normal" x="218.11319220545118" y="359.12944455049995" text-anchor="start" dominant-baseline="alphabetic">"Hello"</text></g><g><path fill="none" stroke="black" paint-order="fill stroke markers" d=" M 127.35466788411458 365.6635258705 L 349.964490260642 365.6635258705" stroke-miterlimit="10" stroke-width="1.3612669416666667" stroke-dasharray="6.53408132"/><g transform="translate(352.6870241439753,365.6635258705) translate(-352.6870241439753,-365.6635258705)"><path fill="black" stroke="none" paint-order="stroke fill markers" d=" M 339.0743547273086 358.85719116216666 L 352.6870241439753 365.6635258705 L 339.0743547273086 372.46986057883333 Z"/></g></g><g><g><rect fill="white" stroke="none" x="396.51981966564193" y="390.1663308205" width="126.31784309449219" height="21.23576429"/></g><text fill="black" stroke="none" font-family="sans-serif" font-size="11pt" font-style="normal" font-weight="normal" text-decoration="normal" x="398.97010016064195" y="404.86801379049996" text-anchor="start" dominant-baseline="alphabetic">onMessageSubmit</text></g><g><path fill="none" stroke="black" paint-order="fill stroke markers" d=" M 369.0222274439753 411.4020951105 L 442.5306422939753 411.4020951105 L 442.5306422939753 427.7372984105 L 379.9123629773086 427.7372984105" stroke-miterlimit="10" stroke-width="1.3612669416666667" stroke-dasharray=""/><g transform="translate(377.1898290939753,427.7372984105) translate(-377.1898290939753,-427.7372984105)"><path fill="black" stroke="none" paint-order="stroke fill markers" d=" M 390.80249851064195 420.93096370216665 L 377.1898290939753 427.7372984105 L 390.80249851064195 434.5436331188333 Z"/></g></g><path fill="none" stroke="none"/><g><path fill="white" stroke="black" paint-order="fill stroke markers" d=" M 507.1950264592434 453.628595641 L 602.1270062432903 453.628595641 L 602.1270062432903 497.733644551 L 507.1950264592434 497.733644551 L 507.1950264592434 453.628595641 Z" stroke-miterlimit="10" stroke-width="2.613632528" stroke-dasharray=""/></g><g><g/><text fill="black" stroke="none" font-family="sans-serif" font-size="11pt" font-style="normal" font-weight="normal" text-decoration="normal" x="524.9187220397434" y="481.398441251" text-anchor="start" dominant-baseline="alphabetic">Message</text></g><g><g><rect fill="white" stroke="none" x="402.24752600475387" y="454.44535580599995" width="79.88980354371094" height="21.23576429"/></g><text fill="black" stroke="none" font-family="sans-serif" font-size="11pt" font-style="normal" font-weight="normal" text-decoration="normal" x="404.6978064997539" y="469.14703877599993" text-anchor="start" dominant-baseline="alphabetic">&lt;&lt;create&gt;&gt;</text></g><g><path fill="none" stroke="black" paint-order="fill stroke markers" d=" M 377.1898290939753 475.681120096 L 504.4724925759101 475.681120096" stroke-miterlimit="10" stroke-width="1.3612669416666667" stroke-dasharray="6.53408132"/><g transform="translate(507.1950264592434,475.681120096) translate(-507.1950264592434,-475.681120096)"><path fill="black" stroke="none" paint-order="stroke fill markers" d=" M 493.58235704257675 468.87478538766663 L 507.1950264592434 475.681120096 L 493.58235704257675 482.4874548043333 Z"/></g></g><g><g><rect fill="white" stroke="none" x="404.6874213156419" y="523.6249417815" width="144.256273880625" height="21.23576429"/></g><text fill="black" stroke="none" font-family="sans-serif" font-size="11pt" font-style="normal" font-weight="normal" text-decoration="normal" x="407.13770181064194" y="538.3266247514999" text-anchor="start" dominant-baseline="alphabetic">appendUserMessage</text></g><g><path fill="none" stroke="black" paint-order="fill stroke markers" d=" M 377.1898290939753 544.8607060715 L 450.6982439439753 544.8607060715 L 450.6982439439753 561.1959093715 L 388.0799646273086 561.1959093715" stroke-miterlimit="10" stroke-width="1.3612669416666667" stroke-dasharray=""/><g transform="translate(385.35743074397527,561.1959093715) translate(-385.35743074397527,-561.1959093715)"><path fill="black" stroke="none" paint-order="stroke fill markers" d=" M 398.97010016064195 554.3895746631666 L 385.35743074397527 561.1959093715 L 398.97010016064195 568.0022440798333 Z"/></g></g><g><g><rect fill="white" stroke="none" x="466.33853876232024" y="585.6987143215" width="133.53328193726563" height="21.23576429"/></g><text fill="black" stroke="none" font-family="sans-serif" font-size="11pt" font-style="normal" font-weight="normal" text-decoration="normal" x="468.78881925732026" y="600.4003972915" text-anchor="start" dominant-baseline="alphabetic">emit 'chat message'</text></g><g><path fill="none" stroke="black" paint-order="fill stroke markers" d=" M 385.35743074397527 597.7101844864715 L 678.1303948345976 630.0795838306566" stroke-miterlimit="10" stroke-width="1.3612669416666667" stroke-dasharray=""/><g transform="translate(680.8529287179309,630.3805910864714) rotate(6.309079884351145,0,0) translate(-680.8529287179309,-630.3805910864714)"><path fill="black" stroke="none" paint-order="stroke fill markers" d=" M 667.2402593012642 623.5742563781381 L 680.8529287179309 630.3805910864714 L 667.2402593012642 637.1869257948048 Z"/><g transform="rotate(-6.309079884351145,0,0)"/></g></g><g><g><rect fill="white" stroke="none" x="404.6874213156419" y="654.8833960364714" width="4.90056099" height="21.23576429"/></g><text fill="black" stroke="none" font-family="sans-serif" font-size="11pt" font-style="normal" font-weight="normal" text-decoration="normal" x="407.13770181064194" y="669.5850790064713" text-anchor="start" dominant-baseline="alphabetic"></text></g><g><path fill="none" stroke="black" paint-order="fill stroke markers" d=" M 385.35743074397527 676.1191603264714 L 450.6982439439753 676.1191603264714 L 450.6982439439753 692.4543636264714 L 388.0799646273086 692.4543636264714" stroke-miterlimit="10" stroke-width="1.3612669416666667" stroke-dasharray="6.53408132"/><g transform="translate(385.35743074397527,692.4543636264714) translate(-385.35743074397527,-692.4543636264714)"><path fill="black" stroke="none" paint-order="stroke fill markers" d=" M 398.97010016064195 685.648028918138 L 385.35743074397527 692.4543636264714 L 398.97010016064195 699.2606983348047 Z"/></g></g><g><g><rect fill="white" stroke="none" x="396.51981966564193" y="716.9571685764713" width="4.90056099" height="21.23576429"/></g><text fill="black" stroke="none" font-family="sans-serif" font-size="11pt" font-style="normal" font-weight="normal" text-decoration="normal" x="398.97010016064195" y="731.6588515464713" text-anchor="start" dominant-baseline="alphabetic"></text></g><g><path fill="none" stroke="black" paint-order="fill stroke markers" d=" M 377.1898290939753 738.1929328664713 L 442.5306422939753 738.1929328664713 L 442.5306422939753 754.5281361664713 L 379.9123629773086 754.5281361664713" stroke-miterlimit="10" stroke-width="1.3612669416666667" stroke-dasharray="6.53408132"/><g transform="translate(377.1898290939753,754.5281361664713) translate(-377.1898290939753,-754.5281361664713)"><path fill="black" stroke="none" paint-order="stroke fill markers" d=" M 390.80249851064195 747.721801458138 L 377.1898290939753 754.5281361664713 L 390.80249851064195 761.3344708748047 Z"/></g></g><g><g><rect fill="white" stroke="none" x="297.49012584158595" y="779.0309411164712" width="4.90056099" height="21.23576429"/></g><text fill="black" stroke="none" font-family="sans-serif" font-size="11pt" font-style="normal" font-weight="normal" text-decoration="normal" x="299.94040633658597" y="793.7326240864712" text-anchor="start" dominant-baseline="alphabetic"></text></g><g><path fill="none" stroke="black" paint-order="fill stroke markers" d=" M 352.6870241439753 800.2667054064713 L 249.91632241252995 800.2667054064713" stroke-miterlimit="10" stroke-width="1.3612669416666667" stroke-dasharray="6.53408132"/><g transform="translate(247.1937885291966,800.2667054064713) translate(-247.1937885291966,-800.2667054064713)"><path fill="black" stroke="none" paint-order="stroke fill markers" d=" M 260.80645794586326 793.4603706981379 L 247.1937885291966 800.2667054064713 L 260.80645794586326 807.0730401148046 Z"/></g></g><g><g><rect fill="white" stroke="none" x="124.8008195363952" y="824.7695103564712" width="4.90056099" height="21.23576429"/></g><text fill="black" stroke="none" font-family="sans-serif" font-size="11pt" font-style="normal" font-weight="normal" text-decoration="normal" x="127.2511000313952" y="839.4711933264712" text-anchor="start" dominant-baseline="alphabetic"></text></g><g><path fill="none" stroke="black" paint-order="fill stroke markers" d=" M 230.85858522919662 846.0052746464712 L 26.366148716927086 846.0052746464712" stroke-miterlimit="10" stroke-width="1.3612669416666667" stroke-dasharray="6.53408132"/><g transform="translate(23.64361483359375,846.0052746464712) translate(-23.64361483359375,-846.0052746464712)"><path fill="black" stroke="none" paint-order="stroke fill markers" d=" M 37.25628425026042 839.1989399381379 L 23.64361483359375 846.0052746464712 L 37.25628425026042 852.8116093548045 Z"/></g></g><g><g><rect fill="white" stroke="none" x="722.3720581202767" y="870.5080795964711" width="65.20834602417969" height="21.23576429"/></g><text fill="black" stroke="none" font-family="sans-serif" font-size="11pt" font-style="normal" font-weight="normal" text-decoration="normal" x="724.8223386152767" y="885.2097625664711" text-anchor="start" dominant-baseline="alphabetic">getModel</text></g><g><path fill="none" stroke="black" paint-order="fill stroke markers" d=" M 697.188132017931 891.7438438864712 L 810.0417963634687 891.7438438864712" stroke-miterlimit="10" stroke-width="1.3612669416666667" stroke-dasharray=""/><g transform="translate(812.764330246802,891.7438438864712) translate(-812.764330246802,-891.7438438864712)"><path fill="black" stroke="none" paint-order="stroke fill markers" d=" M 799.1516608301354 884.9375091781378 L 812.764330246802 891.7438438864712 L 799.1516608301354 898.5501785948045 Z"/></g></g><g><g><rect fill="white" stroke="none" x="735.8258850245736" y="916.2466488364711" width="38.30069221558594" height="21.23576429"/></g><text fill="black" stroke="none" font-family="sans-serif" font-size="11pt" font-style="normal" font-weight="normal" text-decoration="normal" x="738.2761655195736" y="930.9483318064711" text-anchor="start" dominant-baseline="alphabetic">room</text></g><g><path fill="none" stroke="black" paint-order="fill stroke markers" d=" M 812.764330246802 937.4824131264711 L 699.9106659012643 937.4824131264711" stroke-miterlimit="10" stroke-width="1.3612669416666667" stroke-dasharray="6.53408132"/><g transform="translate(697.188132017931,937.4824131264711) translate(-697.188132017931,-937.4824131264711)"><path fill="black" stroke="none" paint-order="stroke fill markers" d=" M 710.8008014345977 930.6760784181378 L 697.188132017931 937.4824131264711 L 710.8008014345977 944.2887478348044 Z"/></g></g><g><g><rect fill="white" stroke="none" x="458.1709371123203" y="961.985218076471" width="133.53328193726563" height="21.23576429"/></g><text fill="black" stroke="none" font-family="sans-serif" font-size="11pt" font-style="normal" font-weight="normal" text-decoration="normal" x="460.6212176073203" y="976.686901046471" text-anchor="start" dominant-baseline="alphabetic">emit 'chat message'</text></g><g><path fill="none" stroke="black" paint-order="fill stroke markers" d=" M 680.8529287179309 973.6241843585777 L 371.7447613273086 1006.009351921538" stroke-miterlimit="10" stroke-width="1.3612669416666667" stroke-dasharray=""/><g transform="translate(369.0222274439753,1006.2945909585777) rotate(-5.981040869611606,0,0) translate(-369.0222274439753,-1006.2945909585777)"><path fill="black" stroke="none" paint-order="stroke fill markers" d=" M 382.63489686064196 999.4882562502444 L 369.0222274439753 1006.2945909585777 L 382.63489686064196 1013.100925666911 Z"/><g transform="rotate(5.981040869611606,0,0)"/></g></g><g><g><rect fill="white" stroke="none" x="396.51981966564193" y="1030.7973959085778" width="125.49466194214844" height="21.23576429"/></g><text fill="black" stroke="none" font-family="sans-serif" font-size="11pt" font-style="normal" font-weight="normal" text-decoration="normal" x="398.97010016064195" y="1045.4990788785778" text-anchor="start" dominant-baseline="alphabetic">getCurrentRoomId</text></g><g><path fill="none" stroke="black" paint-order="fill stroke markers" d=" M 369.0222274439753 1052.0331601985777 L 442.5306422939753 1052.0331601985777 L 442.5306422939753 1068.3683634985778 L 379.9123629773086 1068.3683634985778" stroke-miterlimit="10" stroke-width="1.3612669416666667" stroke-dasharray=""/><g transform="translate(377.1898290939753,1068.3683634985778) translate(-377.1898290939753,-1068.3683634985778)"><path fill="black" stroke="none" paint-order="stroke fill markers" d=" M 390.80249851064195 1061.5620287902445 L 377.1898290939753 1068.3683634985778 L 390.80249851064195 1075.174698206911 Z"/></g></g><g><g><rect fill="white" stroke="none" x="396.51981966564193" y="1092.8711684485777" width="50.52688850464844" height="21.23576429"/></g><text fill="black" stroke="none" font-family="sans-serif" font-size="11pt" font-style="normal" font-weight="normal" text-decoration="normal" x="398.97010016064195" y="1107.5728514185778" text-anchor="start" dominant-baseline="alphabetic">roomId</text></g><g><path fill="none" stroke="black" paint-order="fill stroke markers" d=" M 377.1898290939753 1114.1069327385776 L 442.5306422939753 1114.1069327385776 L 442.5306422939753 1130.4421360385777 L 379.9123629773086 1130.4421360385777" stroke-miterlimit="10" stroke-width="1.3612669416666667" stroke-dasharray="6.53408132"/><g transform="translate(377.1898290939753,1130.4421360385777) translate(-377.1898290939753,-1130.4421360385777)"><path fill="black" stroke="none" paint-order="stroke fill markers" d=" M 390.80249851064195 1123.6358013302445 L 377.1898290939753 1130.4421360385777 L 390.80249851064195 1137.248470746911 Z"/></g></g><g><g><rect fill="white" stroke="none" x="396.51981966564193" y="1154.9449409885776" width="144.256273880625" height="21.23576429"/></g><text fill="black" stroke="none" font-family="sans-serif" font-size="11pt" font-style="normal" font-weight="normal" text-decoration="normal" x="398.97010016064195" y="1169.6466239585777" text-anchor="start" dominant-baseline="alphabetic">appendUserMessage</text></g><g><path fill="none" stroke="black" paint-order="fill stroke markers" d=" M 369.0222274439753 1176.1807052785775 L 442.5306422939753 1176.1807052785775 L 442.5306422939753 1192.5159085785776 L 379.9123629773086 1192.5159085785776" stroke-miterlimit="10" stroke-width="1.3612669416666667" stroke-dasharray=""/><g transform="translate(377.1898290939753,1192.5159085785776) translate(-377.1898290939753,-1192.5159085785776)"><path fill="black" stroke="none" paint-order="stroke fill markers" d=" M 390.80249851064195 1185.7095738702444 L 377.1898290939753 1192.5159085785776 L 390.80249851064195 1199.3222432869109 Z"/></g></g><g><g><rect fill="white" stroke="none" x="396.51981966564193" y="1217.0187135285776" width="4.90056099" height="21.23576429"/></g><text fill="black" stroke="none" font-family="sans-serif" font-size="11pt" font-style="normal" font-weight="normal" text-decoration="normal" x="398.97010016064195" y="1231.7203964985777" text-anchor="start" dominant-baseline="alphabetic"></text></g><g><path fill="none" stroke="black" paint-order="fill stroke markers" d=" M 377.1898290939753 1238.2544778185775 L 442.5306422939753 1238.2544778185775 L 442.5306422939753 1254.5896811185776 L 379.9123629773086 1254.5896811185776" stroke-miterlimit="10" stroke-width="1.3612669416666667" stroke-dasharray="6.53408132"/><g transform="translate(377.1898290939753,1254.5896811185776) translate(-377.1898290939753,-1254.5896811185776)"><path fill="black" stroke="none" paint-order="stroke fill markers" d=" M 390.80249851064195 1247.7833464102443 L 377.1898290939753 1254.5896811185776 L 390.80249851064195 1261.3960158269108 Z"/></g></g></g><g/><g/><g/><g/><g/><g/></g></svg>