<svg version="1.1" xmlns="http://www.w3.org/2000/svg" xmlns:xlink="http://www.w3.org/1999/xlink" width="1485" height="2244"><defs/><g><g/><g/><g/><g/><g/><g/><g/><g/><g/><g/><g/><g/><g/><g/><g/><g/><g/><g/><g/><g/><g/><g/><g/><g/><g/><g/><g/><g/><g/><g/><g/><g/><g/><g/><g/><g/><g><rect fill="white" stroke="none" x="0" y="0" width="1485" height="2244"/></g><g><text fill="black" stroke="none" font-family="sans-serif" font-size="16.5pt" font-style="normal" font-weight="normal" text-decoration="normal" x="663.7446202037349" y="24.50280495" text-anchor="start" dominant-baseline="alphabetic">Send private file</text></g><g/><g><path fill="none" stroke="black" paint-order="fill stroke markers" d=" M 23.64361483359375 128.80307802049998 L 23.64361483359375 2244.482975588409" stroke-miterlimit="10" stroke-width="1.3612669416666667" stroke-dasharray="12.565541,5.445067766666667"/><path fill="none" stroke="black" paint-order="fill stroke markers" d=" M 164.41970173216146 128.80307802049998 L 164.41970173216146 2244.482975588409" stroke-miterlimit="10" stroke-width="1.3612669416666667" stroke-dasharray="12.565541,5.445067766666667"/><path fill="none" stroke="black" paint-order="fill stroke markers" d=" M 282.6231793718724 128.80307802049998 L 282.6231793718724 2244.482975588409" stroke-miterlimit="10" stroke-width="1.3612669416666667" stroke-dasharray="12.565541,5.445067766666667"/><path fill="none" stroke="black" paint-order="fill stroke markers" d=" M 409.39143820054824 128.80307802049998 L 409.39143820054824 2244.482975588409" stroke-miterlimit="10" stroke-width="1.3612669416666667" stroke-dasharray="12.565541,5.445067766666667"/><path fill="none" stroke="black" paint-order="fill stroke markers" d=" M 531.2198771153269 128.80307802049998 L 531.2198771153269 2244.482975588409" stroke-miterlimit="10" stroke-width="1.3612669416666667" stroke-dasharray="12.565541,5.445067766666667"/><path fill="none" stroke="black" paint-order="fill stroke markers" d=" M 779.6577966562123 636.3378445515 L 779.6577966562123 2244.482975588409" stroke-miterlimit="10" stroke-width="1.3612669416666667" stroke-dasharray="12.565541,5.445067766666667"/><path fill="none" stroke="black" paint-order="fill stroke markers" d=" M 937.3601756631108 893.9440005924998 L 937.3601756631108 2244.482975588409" stroke-miterlimit="10" stroke-width="1.3612669416666667" stroke-dasharray="12.565541,5.445067766666667"/><path fill="none" stroke="black" paint-order="fill stroke markers" d=" M 1097.5070660835834 128.80307802049998 L 1097.5070660835834 2244.482975588409" stroke-miterlimit="10" stroke-width="1.3612669416666667" stroke-dasharray="12.565541,5.445067766666667"/><path fill="none" stroke="black" paint-order="fill stroke markers" d=" M 1273.1371184303255 128.80307802049998 L 1273.1371184303255 2244.482975588409" stroke-miterlimit="10" stroke-width="1.3612669416666667" stroke-dasharray="12.565541,5.445067766666667"/><path fill="none" stroke="black" paint-order="fill stroke markers" d=" M 1432.0635269782395 128.80307802049998 L 1432.0635269782395 2244.482975588409" stroke-miterlimit="10" stroke-width="1.3612669416666667" stroke-dasharray="12.565541,5.445067766666667"/></g><g><g><path fill="white" stroke="black" paint-order="fill stroke markers" d=" M 32.95468071459375 59.70516806150002 A 9.311065881 9.311065881 0 1 1 32.9546760590612 59.69585699717086 M 23.64361483359375 69.01623394250002 L 23.64361483359375 88.94518196850002 M 11.882268457593753 76.20372339450002 L 35.40496120959375 76.20372339450002 M 23.64361483359375 88.94518196850002 L 11.882268457593753 107.56731373050002 M 23.64361483359375 88.94518196850002 L 35.40496120959375 107.56731373050002" stroke-miterlimit="10" stroke-width="2.7769845610000004" stroke-dasharray=""/></g><g><g/><text fill="black" stroke="none" font-family="sans-serif" font-size="11pt" font-style="normal" font-weight="normal" text-decoration="normal" x="8.167601650000002" y="123.90251703050001" text-anchor="start" dominant-baseline="alphabetic">User</text></g><path fill="none" stroke="none"/><g><path fill="white" stroke="black" paint-order="fill stroke markers" d=" M 116.95013365410286 84.69802911050002 L 211.88926981022007 84.69802911050002 L 211.88926981022007 128.8030780205 L 116.95013365410286 128.8030780205 L 116.95013365410286 84.69802911050002 Z" stroke-miterlimit="10" stroke-width="2.613632528" stroke-dasharray=""/></g><g><g/><text fill="black" stroke="none" font-family="sans-serif" font-size="11pt" font-style="normal" font-weight="normal" text-decoration="normal" x="134.67382923460286" y="112.46787472049999" text-anchor="start" dominant-baseline="alphabetic">TextInput</text></g><path fill="none" stroke="none"/><g><path fill="white" stroke="black" paint-order="fill stroke markers" d=" M 228.22447311022006 84.69802911050002 L 337.0218856335248 84.69802911050002 L 337.0218856335248 128.8030780205 L 228.22447311022006 128.8030780205 L 228.22447311022006 84.69802911050002 Z" stroke-miterlimit="10" stroke-width="2.613632528" stroke-dasharray=""/></g><g><g/><text fill="black" stroke="none" font-family="sans-serif" font-size="11pt" font-style="normal" font-weight="normal" text-decoration="normal" x="245.94816869072008" y="112.46787472049999" text-anchor="start" dominant-baseline="alphabetic">ImageInput</text></g><path fill="none" stroke="none"/><g><path fill="white" stroke="black" paint-order="fill stroke markers" d=" M 353.3570889335248 84.69802911050002 L 465.4257874675717 84.69802911050002 L 465.4257874675717 128.8030780205 L 353.3570889335248 128.8030780205 L 353.3570889335248 84.69802911050002 Z" stroke-miterlimit="10" stroke-width="2.613632528" stroke-dasharray=""/></g><g><g/><text fill="black" stroke="none" font-family="sans-serif" font-size="11pt" font-style="normal" font-weight="normal" text-decoration="normal" x="371.0807845140248" y="112.46787472049999" text-anchor="start" dominant-baseline="alphabetic">SendButton</text></g><path fill="none" stroke="none"/><g><path fill="white" stroke="black" paint-order="fill stroke markers" d=" M 492.31151204019795 84.69802911050002 L 570.1282421904558 84.69802911050002 L 570.1282421904558 128.8030780205 L 492.31151204019795 128.8030780205 L 492.31151204019795 84.69802911050002 Z" stroke-miterlimit="10" stroke-width="2.613632528" stroke-dasharray=""/></g><g><g/><text fill="black" stroke="none" font-family="sans-serif" font-size="11pt" font-style="normal" font-weight="normal" text-decoration="normal" x="510.035207620698" y="112.46787472049999" text-anchor="start" dominant-baseline="alphabetic">chat.js</text></g><path fill="none" stroke="none"/><g><path fill="white" stroke="black" paint-order="fill stroke markers" d=" M 1035.7855448805249 84.69802911050002 L 1159.228587286642 84.69802911050002 L 1159.228587286642 128.8030780205 L 1035.7855448805249 128.8030780205 L 1035.7855448805249 84.69802911050002 Z" stroke-miterlimit="10" stroke-width="2.613632528" stroke-dasharray=""/></g><g><g/><text fill="black" stroke="none" font-family="sans-serif" font-size="11pt" font-style="normal" font-weight="normal" text-decoration="normal" x="1053.5092404610248" y="112.46787472049999" text-anchor="start" dominant-baseline="alphabetic">ServerSocket</text></g><path fill="none" stroke="none"/><g><path fill="white" stroke="black" paint-order="fill stroke markers" d=" M 1175.563790586642 84.69802911050002 L 1370.7104462740092 84.69802911050002 L 1370.7104462740092 128.8030780205 L 1175.563790586642 128.8030780205 L 1175.563790586642 84.69802911050002 Z" stroke-miterlimit="10" stroke-width="2.613632528" stroke-dasharray=""/></g><g><g/><text fill="black" stroke="none" font-family="sans-serif" font-size="11pt" font-style="normal" font-weight="normal" text-decoration="normal" x="1193.2874861671419" y="112.46787472049999" text-anchor="start" dominant-baseline="alphabetic">PrivateMessageProvider</text></g><path fill="none" stroke="none"/><g><path fill="white" stroke="black" paint-order="fill stroke markers" d=" M 1387.045649574009 84.69802911050002 L 1477.08140438247 84.69802911050002 L 1477.08140438247 128.8030780205 L 1387.045649574009 128.8030780205 L 1387.045649574009 84.69802911050002 Z" stroke-miterlimit="10" stroke-width="2.613632528" stroke-dasharray=""/></g><g><g/><text fill="black" stroke="none" font-family="sans-serif" font-size="11pt" font-style="normal" font-weight="normal" text-decoration="normal" x="1404.769345154509" y="112.46787472049999" text-anchor="start" dominant-baseline="alphabetic">Provider</text></g></g><g><path fill="white" stroke="black" paint-order="fill stroke markers" d=" M 401.22383655054824 274.1863873905 L 417.55903985054823 274.1863873905 L 417.55903985054823 1424.3740178898424 L 401.22383655054824 1424.3740178898424 L 401.22383655054824 274.1863873905" stroke-miterlimit="10" stroke-width="1.3612669416666667" stroke-dasharray=""/><path fill="white" stroke="black" paint-order="fill stroke markers" d=" M 523.0522754653268 319.9249566305 L 539.3874787653269 319.9249566305 L 539.3874787653269 1378.6354486498424 L 523.0522754653268 1378.6354486498424 L 523.0522754653268 319.9249566305" stroke-miterlimit="10" stroke-width="1.3612669416666667" stroke-dasharray=""/><path fill="white" stroke="black" paint-order="fill stroke markers" d=" M 274.45557772187243 365.6635258705 L 290.7907810218724 365.6635258705 L 290.7907810218724 411.4020951105 L 274.45557772187243 411.4020951105 L 274.45557772187243 365.6635258705" stroke-miterlimit="10" stroke-width="1.3612669416666667" stroke-dasharray=""/><path fill="white" stroke="black" paint-order="fill stroke markers" d=" M 156.25210008216146 457.1406643505 L 172.58730338216145 457.1406643505 L 172.58730338216145 502.8792335905 L 156.25210008216146 502.8792335905 L 156.25210008216146 457.1406643505" stroke-miterlimit="10" stroke-width="1.3612669416666667" stroke-dasharray=""/><path fill="white" stroke="black" paint-order="fill stroke markers" d=" M 531.2198771153269 564.9530061305 L 547.555080415327 564.9530061305 L 547.555080415327 1332.8968794098423 L 531.2198771153269 1332.8968794098423 L 531.2198771153269 564.9530061305" stroke-miterlimit="10" stroke-width="1.3612669416666667" stroke-dasharray=""/><path fill="white" stroke="black" paint-order="fill stroke markers" d=" M 539.3874787653268 698.4116170914999 L 555.7226820653269 698.4116170914999 L 555.7226820653269 1270.8231068698424 L 539.3874787653268 1270.8231068698424 L 539.3874787653268 698.4116170914999" stroke-miterlimit="10" stroke-width="1.3612669416666667" stroke-dasharray=""/><path fill="white" stroke="black" paint-order="fill stroke markers" d=" M 547.5550804153269 760.4853896314999 L 563.890283715327 760.4853896314999 L 563.890283715327 822.5591621714998 L 547.5550804153269 822.5591621714998 L 547.5550804153269 760.4853896314999" stroke-miterlimit="10" stroke-width="1.3612669416666667" stroke-dasharray=""/><path fill="white" stroke="black" paint-order="fill stroke markers" d=" M 547.5550804153269 956.0177731324998 L 563.890283715327 956.0177731324998 L 563.890283715327 1142.2390907524996 L 547.5550804153269 1142.2390907524996 L 547.5550804153269 956.0177731324998" stroke-miterlimit="10" stroke-width="1.3612669416666667" stroke-dasharray=""/><path fill="white" stroke="black" paint-order="fill stroke markers" d=" M 555.7226820653268 1018.0915456724997 L 572.0578853653269 1018.0915456724997 L 572.0578853653269 1080.1653182124996 L 555.7226820653268 1080.1653182124996 L 555.7226820653268 1018.0915456724997" stroke-miterlimit="10" stroke-width="1.3612669416666667" stroke-dasharray=""/><path fill="white" stroke="black" paint-order="fill stroke markers" d=" M 1089.3394644335833 1208.7493343298424 L 1105.6746677335834 1208.7493343298424 L 1105.6746677335834 1595.9754045784096 L 1089.3394644335833 1595.9754045784096 L 1089.3394644335833 1208.7493343298424" stroke-miterlimit="10" stroke-width="1.3612669416666667" stroke-dasharray=""/><path fill="white" stroke="black" paint-order="fill stroke markers" d=" M 1264.9695167803254 1470.1125871298425 L 1281.3047200803255 1470.1125871298425 L 1281.3047200803255 1515.8511563698426 L 1264.9695167803254 1515.8511563698426 L 1264.9695167803254 1470.1125871298425" stroke-miterlimit="10" stroke-width="1.3612669416666667" stroke-dasharray=""/><path fill="white" stroke="black" paint-order="fill stroke markers" d=" M 1423.8959253282394 1515.8511563698426 L 1440.2311286282395 1515.8511563698426 L 1440.2311286282395 1561.5897256098426 L 1423.8959253282394 1561.5897256098426 L 1423.8959253282394 1515.8511563698426" stroke-miterlimit="10" stroke-width="1.3612669416666667" stroke-dasharray=""/><path fill="white" stroke="black" paint-order="fill stroke markers" d=" M 523.0522754653268 1628.6458111784095 L 539.3874787653269 1628.6458111784095 L 539.3874787653269 2228.1477722884088 L 523.0522754653268 2228.1477722884088 L 523.0522754653268 1628.6458111784095" stroke-miterlimit="10" stroke-width="1.3612669416666667" stroke-dasharray=""/><path fill="white" stroke="black" paint-order="fill stroke markers" d=" M 531.2198771153269 1690.7195837184095 L 547.555080415327 1690.7195837184095 L 547.555080415327 1752.7933562584094 L 531.2198771153269 1752.7933562584094 L 531.2198771153269 1690.7195837184095" stroke-miterlimit="10" stroke-width="1.3612669416666667" stroke-dasharray=""/><path fill="white" stroke="black" paint-order="fill stroke markers" d=" M 531.2198771153269 1814.8671287984093 L 547.555080415327 1814.8671287984093 L 547.555080415327 2125.235991498409 L 531.2198771153269 2125.235991498409 L 531.2198771153269 1814.8671287984093" stroke-miterlimit="10" stroke-width="1.3612669416666667" stroke-dasharray=""/><path fill="white" stroke="black" paint-order="fill stroke markers" d=" M 539.3874787653268 1876.9409013384093 L 555.7226820653269 1876.9409013384093 L 555.7226820653269 1939.0146738784092 L 539.3874787653268 1939.0146738784092 L 539.3874787653268 1876.9409013384093" stroke-miterlimit="10" stroke-width="1.3612669416666667" stroke-dasharray=""/><path fill="white" stroke="black" paint-order="fill stroke markers" d=" M 539.3874787653268 2001.0884464184091 L 555.7226820653269 2001.0884464184091 L 555.7226820653269 2063.162218958409 L 539.3874787653268 2063.162218958409 L 539.3874787653268 2001.0884464184091" stroke-miterlimit="10" stroke-width="1.3612669416666667" stroke-dasharray=""/><g><g><rect fill="white" stroke="none" x="47.05740623026041" y="161.4734846205" width="93.94850410523438" height="21.23576429"/></g><text fill="black" stroke="none" font-family="sans-serif" font-size="11pt" font-style="normal" font-weight="normal" text-decoration="normal" x="49.50768672526041" y="176.17516759049997" text-anchor="start" dominant-baseline="alphabetic">@Nacho hola</text></g><g><path fill="none" stroke="black" paint-order="fill stroke markers" d=" M 23.64361483359375 182.70924891049998 L 161.69716784882812 182.70924891049998" stroke-miterlimit="10" stroke-width="1.3612669416666667" stroke-dasharray=""/><g transform="translate(164.41970173216146,182.70924891049998) translate(-164.41970173216146,-182.70924891049998)"><path fill="black" stroke="none" paint-order="stroke fill markers" d=" M 150.80703231549478 175.90291420216664 L 164.41970173216146 182.70924891049998 L 150.80703231549478 189.51558361883332 Z"/></g></g><g><g><rect fill="white" stroke="none" x="122.97017257697136" y="207.2120538605" width="60.32644905152344" height="21.23576429"/></g><text fill="black" stroke="none" font-family="sans-serif" font-size="11pt" font-style="normal" font-weight="normal" text-decoration="normal" x="125.42045307197137" y="221.91373683049997" text-anchor="start" dominant-baseline="alphabetic">hello.pdf</text></g><g><path fill="none" stroke="black" paint-order="fill stroke markers" d=" M 23.64361483359375 228.44781815049998 L 279.9006454885391 228.44781815049998" stroke-miterlimit="10" stroke-width="1.3612669416666667" stroke-dasharray=""/><g transform="translate(282.6231793718724,228.44781815049998) translate(-282.6231793718724,-228.44781815049998)"><path fill="black" stroke="none" paint-order="stroke fill markers" d=" M 269.01050995520575 221.64148344216665 L 282.6231793718724 228.44781815049998 L 269.01050995520575 235.25415285883332 Z"/></g></g><g><g><rect fill="white" stroke="none" x="192.05933478447335" y="252.9506231005" width="40.748781815195315" height="21.23576429"/></g><text fill="black" stroke="none" font-family="sans-serif" font-size="11pt" font-style="normal" font-weight="normal" text-decoration="normal" x="194.50961527947334" y="267.6523060705" text-anchor="start" dominant-baseline="alphabetic">press</text></g><g><path fill="none" stroke="black" paint-order="fill stroke markers" d=" M 23.64361483359375 274.1863873905 L 398.50130266721493 274.1863873905" stroke-miterlimit="10" stroke-width="1.3612669416666667" stroke-dasharray=""/><g transform="translate(401.22383655054824,274.1863873905) translate(-401.22383655054824,-274.1863873905)"><path fill="black" stroke="none" paint-order="stroke fill markers" d=" M 387.61116713388157 267.38005268216665 L 401.22383655054824 274.1863873905 L 387.61116713388157 280.9927220988333 Z"/></g></g><g><g><rect fill="white" stroke="none" x="436.8890304222149" y="298.6891923405" width="66.83325447144531" height="21.23576429"/></g><text fill="black" stroke="none" font-family="sans-serif" font-size="11pt" font-style="normal" font-weight="normal" text-decoration="normal" x="439.3393109172149" y="313.39087531049995" text-anchor="start" dominant-baseline="alphabetic">onSubmit</text></g><g><path fill="none" stroke="black" paint-order="fill stroke markers" d=" M 417.55903985054823 319.9249566305 L 520.3297415819935 319.9249566305" stroke-miterlimit="10" stroke-width="1.3612669416666667" stroke-dasharray=""/><g transform="translate(523.0522754653268,319.9249566305) translate(-523.0522754653268,-319.9249566305)"><path fill="black" stroke="none" paint-order="stroke fill markers" d=" M 509.43960604866015 313.11862192216665 L 523.0522754653268 319.9249566305 L 509.43960604866015 326.73129133883333 Z"/></g></g><g><g><rect fill="white" stroke="none" x="386.94799335406833" y="344.4277615805" width="39.9470697790625" height="21.23576429"/></g><text fill="black" stroke="none" font-family="sans-serif" font-size="11pt" font-style="normal" font-weight="normal" text-decoration="normal" x="389.39827384906835" y="359.12944455049995" text-anchor="start" dominant-baseline="alphabetic">value</text></g><g><path fill="none" stroke="black" paint-order="fill stroke markers" d=" M 523.0522754653268 365.6635258705 L 293.51331490520573 365.6635258705" stroke-miterlimit="10" stroke-width="1.3612669416666667" stroke-dasharray=""/><g transform="translate(290.7907810218724,365.6635258705) translate(-290.7907810218724,-365.6635258705)"><path fill="black" stroke="none" paint-order="stroke fill markers" d=" M 304.4034504385391 358.85719116216666 L 290.7907810218724 365.6635258705 L 304.4034504385391 372.46986057883333 Z"/></g></g><g><g><rect fill="white" stroke="none" x="376.75830371783786" y="390.1663308205" width="60.32644905152344" height="21.23576429"/></g><text fill="black" stroke="none" font-family="sans-serif" font-size="11pt" font-style="normal" font-weight="normal" text-decoration="normal" x="379.2085842128379" y="404.86801379049996" text-anchor="start" dominant-baseline="alphabetic">hello.pdf</text></g><g><path fill="none" stroke="black" paint-order="fill stroke markers" d=" M 290.7907810218724 411.4020951105 L 520.3297415819935 411.4020951105" stroke-miterlimit="10" stroke-width="1.3612669416666667" stroke-dasharray="6.53408132"/><g transform="translate(523.0522754653268,411.4020951105) translate(-523.0522754653268,-411.4020951105)"><path fill="black" stroke="none" paint-order="stroke fill markers" d=" M 509.43960604866015 404.59576040216666 L 523.0522754653268 411.4020951105 L 509.43960604866015 418.20842981883334 Z"/></g></g><g><g><rect fill="white" stroke="none" x="327.8462545342129" y="435.9049000605" width="39.9470697790625" height="21.23576429"/></g><text fill="black" stroke="none" font-family="sans-serif" font-size="11pt" font-style="normal" font-weight="normal" text-decoration="normal" x="330.2965350292129" y="450.60658303049996" text-anchor="start" dominant-baseline="alphabetic">value</text></g><g><path fill="none" stroke="black" paint-order="fill stroke markers" d=" M 523.0522754653268 457.1406643505 L 175.3098372654948 457.1406643505" stroke-miterlimit="10" stroke-width="1.3612669416666667" stroke-dasharray=""/><g transform="translate(172.58730338216145,457.1406643505) translate(-172.58730338216145,-457.1406643505)"><path fill="black" stroke="none" paint-order="stroke fill markers" d=" M 186.19997279882813 450.33432964216667 L 172.58730338216145 457.1406643505 L 186.19997279882813 463.94699905883334 Z"/></g></g><g><g><rect fill="white" stroke="none" x="300.84553737112697" y="481.6434693005" width="93.94850410523438" height="21.23576429"/></g><text fill="black" stroke="none" font-family="sans-serif" font-size="11pt" font-style="normal" font-weight="normal" text-decoration="normal" x="303.295817866127" y="496.34515227049997" text-anchor="start" dominant-baseline="alphabetic">@Nacho hola</text></g><g><path fill="none" stroke="black" paint-order="fill stroke markers" d=" M 172.58730338216145 502.8792335905 L 520.3297415819935 502.8792335905" stroke-miterlimit="10" stroke-width="1.3612669416666667" stroke-dasharray="6.53408132"/><g transform="translate(523.0522754653268,502.8792335905) translate(-523.0522754653268,-502.8792335905)"><path fill="black" stroke="none" paint-order="stroke fill markers" d=" M 509.43960604866015 496.07289888216667 L 523.0522754653268 502.8792335905 L 509.43960604866015 509.68556829883335 Z"/></g></g><g><g><rect fill="white" stroke="none" x="566.8850709869936" y="527.3820385404999" width="149.93988288941406" height="21.23576429"/></g><text fill="black" stroke="none" font-family="sans-serif" font-size="11pt" font-style="normal" font-weight="normal" text-decoration="normal" x="569.3353514819936" y="542.0837215104999" text-anchor="start" dominant-baseline="alphabetic">onFileMessageSubmit</text></g><g><path fill="none" stroke="black" paint-order="fill stroke markers" d=" M 539.3874787653269 548.6178028305 L 612.8958936153268 548.6178028305 L 612.8958936153268 564.9530061305 L 550.2776142986602 564.9530061305" stroke-miterlimit="10" stroke-width="1.3612669416666667" stroke-dasharray=""/><g transform="translate(547.5550804153269,564.9530061305) translate(-547.5550804153269,-564.9530061305)"><path fill="black" stroke="none" paint-order="stroke fill markers" d=" M 561.1677498319935 558.1466714221666 L 547.5550804153269 564.9530061305 L 561.1677498319935 571.7593408388333 Z"/></g></g><path fill="none" stroke="none"/><g><path fill="white" stroke="black" paint-order="fill stroke markers" d=" M 720.3807868667279 590.8443033609999 L 838.9348064456967 590.8443033609999 L 838.9348064456967 634.949352271 L 720.3807868667279 634.949352271 L 720.3807868667279 590.8443033609999 Z" stroke-miterlimit="10" stroke-width="2.613632528" stroke-dasharray=""/></g><g><g/><text fill="black" stroke="none" font-family="sans-serif" font-size="11pt" font-style="normal" font-weight="normal" text-decoration="normal" x="738.104482447228" y="618.614148971" text-anchor="start" dominant-baseline="alphabetic">FileMessage</text></g><g><g><rect fill="white" stroke="none" x="594.023031869172" y="591.661063526" width="79.88980354371094" height="21.23576429"/></g><text fill="black" stroke="none" font-family="sans-serif" font-size="11pt" font-style="normal" font-weight="normal" text-decoration="normal" x="596.473312364172" y="606.362746496" text-anchor="start" dominant-baseline="alphabetic">&lt;&lt;create&gt;&gt;</text></g><g><path fill="none" stroke="black" paint-order="fill stroke markers" d=" M 547.5550804153269 612.896827816 L 717.6582529833946 612.896827816" stroke-miterlimit="10" stroke-width="1.3612669416666667" stroke-dasharray="6.53408132"/><g transform="translate(720.3807868667279,612.896827816) translate(-720.3807868667279,-612.896827816)"><path fill="black" stroke="none" paint-order="stroke fill markers" d=" M 706.7681174500613 606.0904931076667 L 720.3807868667279 612.896827816 L 706.7681174500613 619.7031625243334 Z"/></g></g><g><g><rect fill="white" stroke="none" x="575.0526726369936" y="660.8406495014999" width="165.42303718628906" height="21.23576429"/></g><text fill="black" stroke="none" font-family="sans-serif" font-size="11pt" font-style="normal" font-weight="normal" text-decoration="normal" x="577.5029531319936" y="675.5423324714999" text-anchor="start" dominant-baseline="alphabetic">sendPrivateFileMessage</text></g><g><path fill="none" stroke="black" paint-order="fill stroke markers" d=" M 547.5550804153269 682.0764137914999 L 621.0634952653269 682.0764137914999 L 621.0634952653269 698.4116170914999 L 558.4452159486602 698.4116170914999" stroke-miterlimit="10" stroke-width="1.3612669416666667" stroke-dasharray=""/><g transform="translate(555.7226820653269,698.4116170914999) translate(-555.7226820653269,-698.4116170914999)"><path fill="black" stroke="none" paint-order="stroke fill markers" d=" M 569.3353514819936 691.6052823831666 L 555.7226820653269 698.4116170914999 L 569.3353514819936 705.2179517998333 Z"/></g></g><g><g><rect fill="white" stroke="none" x="583.2202742869936" y="722.9144220414998" width="146.68287910523438" height="21.23576429"/></g><text fill="black" stroke="none" font-family="sans-serif" font-size="11pt" font-style="normal" font-weight="normal" text-decoration="normal" x="585.6705547819936" y="737.6161050114998" text-anchor="start" dominant-baseline="alphabetic">parsePrivateMessage</text></g><g><path fill="none" stroke="black" paint-order="fill stroke markers" d=" M 555.7226820653269 744.1501863314999 L 629.2310969153268 744.1501863314999 L 629.2310969153268 760.4853896314999 L 566.6128175986602 760.4853896314999" stroke-miterlimit="10" stroke-width="1.3612669416666667" stroke-dasharray=""/><g transform="translate(563.8902837153269,760.4853896314999) translate(-563.8902837153269,-760.4853896314999)"><path fill="black" stroke="none" paint-order="stroke fill markers" d=" M 577.5029531319935 753.6790549231665 L 563.8902837153269 760.4853896314999 L 577.5029531319935 767.2917243398332 Z"/></g></g><g><g><rect fill="white" stroke="none" x="583.2202742869936" y="784.9881945814998" width="4.90056099" height="21.23576429"/></g><text fill="black" stroke="none" font-family="sans-serif" font-size="11pt" font-style="normal" font-weight="normal" text-decoration="normal" x="585.6705547819936" y="799.6898775514998" text-anchor="start" dominant-baseline="alphabetic"></text></g><g><path fill="none" stroke="black" paint-order="fill stroke markers" d=" M 563.8902837153269 806.2239588714998 L 629.2310969153268 806.2239588714998 L 629.2310969153268 822.5591621714998 L 566.6128175986602 822.5591621714998" stroke-miterlimit="10" stroke-width="1.3612669416666667" stroke-dasharray="6.53408132"/><g transform="translate(563.8902837153269,822.5591621714998) translate(-563.8902837153269,-822.5591621714998)"><path fill="black" stroke="none" paint-order="stroke fill markers" d=" M 577.5029531319935 815.7528274631665 L 563.8902837153269 822.5591621714998 L 577.5029531319935 829.3654968798331 Z"/></g></g><path fill="none" stroke="none"/><g><path fill="white" stroke="black" paint-order="fill stroke markers" d=" M 855.2700097456967 848.4504594019998 L 1019.4503415805249 848.4504594019998 L 1019.4503415805249 892.5555083119998 L 855.2700097456967 892.5555083119998 L 855.2700097456967 848.4504594019998 Z" stroke-miterlimit="10" stroke-width="2.613632528" stroke-dasharray=""/></g><g><g/><text fill="black" stroke="none" font-family="sans-serif" font-size="11pt" font-style="normal" font-weight="normal" text-decoration="normal" x="872.9937053261967" y="876.2203050119998" text-anchor="start" dominant-baseline="alphabetic">PrivateFileMessage</text></g><g><g><rect fill="white" stroke="none" x="665.5514441336563" y="849.2672195669999" width="79.88980354371094" height="21.23576429"/></g><text fill="black" stroke="none" font-family="sans-serif" font-size="11pt" font-style="normal" font-weight="normal" text-decoration="normal" x="668.0017246286563" y="863.9689025369998" text-anchor="start" dominant-baseline="alphabetic">&lt;&lt;create&gt;&gt;</text></g><g><path fill="none" stroke="black" paint-order="fill stroke markers" d=" M 555.7226820653269 870.5029838569999 L 852.5474758623634 870.5029838569999" stroke-miterlimit="10" stroke-width="1.3612669416666667" stroke-dasharray="6.53408132"/><g transform="translate(855.2700097456967,870.5029838569999) translate(-855.2700097456967,-870.5029838569999)"><path fill="black" stroke="none" paint-order="stroke fill markers" d=" M 841.65734032903 863.6966491486666 L 855.2700097456967 870.5029838569999 L 841.65734032903 877.3093185653332 Z"/></g></g><g><g><rect fill="white" stroke="none" x="583.2202742869936" y="918.4468055424998" width="182.55259956421875" height="21.23576429"/></g><text fill="black" stroke="none" font-family="sans-serif" font-size="11pt" font-style="normal" font-weight="normal" text-decoration="normal" x="585.6705547819936" y="933.1484885124997" text-anchor="start" dominant-baseline="alphabetic">appendPrivateFileMessage</text></g><g><path fill="none" stroke="black" paint-order="fill stroke markers" d=" M 555.7226820653269 939.6825698324998 L 629.2310969153268 939.6825698324998 L 629.2310969153268 956.0177731324998 L 566.6128175986602 956.0177731324998" stroke-miterlimit="10" stroke-width="1.3612669416666667" stroke-dasharray=""/><g transform="translate(563.8902837153269,956.0177731324998) translate(-563.8902837153269,-956.0177731324998)"><path fill="black" stroke="none" paint-order="stroke fill markers" d=" M 577.5029531319935 949.2114384241664 L 563.8902837153269 956.0177731324998 L 577.5029531319935 962.8241078408331 Z"/></g></g><g><g><rect fill="white" stroke="none" x="591.3878759369936" y="980.5205780824997" width="174.37796272339844" height="21.23576429"/></g><text fill="black" stroke="none" font-family="sans-serif" font-size="11pt" font-style="normal" font-weight="normal" text-decoration="normal" x="593.8381564319936" y="995.2222610524997" text-anchor="start" dominant-baseline="alphabetic">addPrivateMessageHTML</text></g><g><path fill="none" stroke="black" paint-order="fill stroke markers" d=" M 563.8902837153269 1001.7563423724997 L 637.3986985653269 1001.7563423724997 L 637.3986985653269 1018.0915456724997 L 574.7804192486602 1018.0915456724997" stroke-miterlimit="10" stroke-width="1.3612669416666667" stroke-dasharray=""/><g transform="translate(572.0578853653269,1018.0915456724997) translate(-572.0578853653269,-1018.0915456724997)"><path fill="black" stroke="none" paint-order="stroke fill markers" d=" M 585.6705547819936 1011.2852109641664 L 572.0578853653269 1018.0915456724997 L 585.6705547819936 1024.897880380833 Z"/></g></g><g><g><rect fill="white" stroke="none" x="591.3878759369936" y="1042.5943506224996" width="4.90056099" height="21.23576429"/></g><text fill="black" stroke="none" font-family="sans-serif" font-size="11pt" font-style="normal" font-weight="normal" text-decoration="normal" x="593.8381564319936" y="1057.2960335924997" text-anchor="start" dominant-baseline="alphabetic"></text></g><g><path fill="none" stroke="black" paint-order="fill stroke markers" d=" M 572.0578853653269 1063.8301149124995 L 637.3986985653269 1063.8301149124995 L 637.3986985653269 1080.1653182124996 L 574.7804192486602 1080.1653182124996" stroke-miterlimit="10" stroke-width="1.3612669416666667" stroke-dasharray="6.53408132"/><g transform="translate(572.0578853653269,1080.1653182124996) translate(-572.0578853653269,-1080.1653182124996)"><path fill="black" stroke="none" paint-order="stroke fill markers" d=" M 585.6705547819936 1073.3589835041664 L 572.0578853653269 1080.1653182124996 L 585.6705547819936 1086.9716529208329 Z"/></g></g><g><g><rect fill="white" stroke="none" x="583.2202742869936" y="1104.6681231624996" width="4.90056099" height="21.23576429"/></g><text fill="black" stroke="none" font-family="sans-serif" font-size="11pt" font-style="normal" font-weight="normal" text-decoration="normal" x="585.6705547819936" y="1119.3698061324997" text-anchor="start" dominant-baseline="alphabetic"></text></g><g><path fill="none" stroke="black" paint-order="fill stroke markers" d=" M 563.8902837153269 1125.9038874524995 L 629.2310969153268 1125.9038874524995 L 629.2310969153268 1142.2390907524996 L 566.6128175986602 1142.2390907524996" stroke-miterlimit="10" stroke-width="1.3612669416666667" stroke-dasharray="6.53408132"/><g transform="translate(563.8902837153269,1142.2390907524996) translate(-563.8902837153269,-1142.2390907524996)"><path fill="black" stroke="none" paint-order="stroke fill markers" d=" M 577.5029531319935 1135.4327560441664 L 563.8902837153269 1142.2390907524996 L 577.5029531319935 1149.0454254608328 Z"/></g></g><g><g><rect fill="white" stroke="none" x="747.6184132988888" y="1166.7418957024997" width="149.82531990113281" height="21.23576429"/></g><text fill="black" stroke="none" font-family="sans-serif" font-size="11pt" font-style="normal" font-weight="normal" text-decoration="normal" x="750.0686937938888" y="1181.4435786724998" text-anchor="start" dominant-baseline="alphabetic">emit 'private message'</text></g><g><path fill="none" stroke="black" paint-order="fill stroke markers" d=" M 555.7226820653269 1176.0789277298425 L 1086.61693055025 1208.5826486260007" stroke-miterlimit="10" stroke-width="1.3612669416666667" stroke-dasharray=""/><g transform="translate(1089.3394644335833,1208.7493343298424) rotate(3.503530719797642,0,0) translate(-1089.3394644335833,-1208.7493343298424)"><path fill="black" stroke="none" paint-order="stroke fill markers" d=" M 1075.7267950169166 1201.9429996215092 L 1089.3394644335833 1208.7493343298424 L 1075.7267950169166 1215.5556690381757 Z"/><g transform="rotate(-3.503530719797642,0,0)"/></g></g><g><g><rect fill="white" stroke="none" x="575.0526726369936" y="1233.2521392798424" width="4.90056099" height="21.23576429"/></g><text fill="black" stroke="none" font-family="sans-serif" font-size="11pt" font-style="normal" font-weight="normal" text-decoration="normal" x="577.5029531319936" y="1247.9538222498425" text-anchor="start" dominant-baseline="alphabetic"></text></g><g><path fill="none" stroke="black" paint-order="fill stroke markers" d=" M 555.7226820653269 1254.4879035698423 L 621.0634952653269 1254.4879035698423 L 621.0634952653269 1270.8231068698424 L 558.4452159486602 1270.8231068698424" stroke-miterlimit="10" stroke-width="1.3612669416666667" stroke-dasharray="6.53408132"/><g transform="translate(555.7226820653269,1270.8231068698424) translate(-555.7226820653269,-1270.8231068698424)"><path fill="black" stroke="none" paint-order="stroke fill markers" d=" M 569.3353514819936 1264.0167721615092 L 555.7226820653269 1270.8231068698424 L 569.3353514819936 1277.6294415781756 Z"/></g></g><g><g><rect fill="white" stroke="none" x="566.8850709869936" y="1295.3259118198423" width="4.90056099" height="21.23576429"/></g><text fill="black" stroke="none" font-family="sans-serif" font-size="11pt" font-style="normal" font-weight="normal" text-decoration="normal" x="569.3353514819936" y="1310.0275947898424" text-anchor="start" dominant-baseline="alphabetic"></text></g><g><path fill="none" stroke="black" paint-order="fill stroke markers" d=" M 547.5550804153269 1316.5616761098422 L 612.8958936153268 1316.5616761098422 L 612.8958936153268 1332.8968794098423 L 550.2776142986602 1332.8968794098423" stroke-miterlimit="10" stroke-width="1.3612669416666667" stroke-dasharray="6.53408132"/><g transform="translate(547.5550804153269,1332.8968794098423) translate(-547.5550804153269,-1332.8968794098423)"><path fill="black" stroke="none" paint-order="stroke fill markers" d=" M 561.1677498319935 1326.090544701509 L 547.5550804153269 1332.8968794098423 L 561.1677498319935 1339.7032141181755 Z"/></g></g><g><g><rect fill="white" stroke="none" x="467.85537716293754" y="1357.3996843598425" width="4.90056099" height="21.23576429"/></g><text fill="black" stroke="none" font-family="sans-serif" font-size="11pt" font-style="normal" font-weight="normal" text-decoration="normal" x="470.30565765793756" y="1372.1013673298426" text-anchor="start" dominant-baseline="alphabetic"></text></g><g><path fill="none" stroke="black" paint-order="fill stroke markers" d=" M 523.0522754653268 1378.6354486498424 L 420.28157373388154 1378.6354486498424" stroke-miterlimit="10" stroke-width="1.3612669416666667" stroke-dasharray="6.53408132"/><g transform="translate(417.55903985054823,1378.6354486498424) translate(-417.55903985054823,-1378.6354486498424)"><path fill="black" stroke="none" paint-order="stroke fill markers" d=" M 431.1717092672149 1371.8291139415091 L 417.55903985054823 1378.6354486498424 L 431.1717092672149 1385.4417833581756 Z"/></g></g><g><g><rect fill="white" stroke="none" x="209.983445197071" y="1403.1382535998425" width="4.90056099" height="21.23576429"/></g><text fill="black" stroke="none" font-family="sans-serif" font-size="11pt" font-style="normal" font-weight="normal" text-decoration="normal" x="212.433725692071" y="1417.8399365698426" text-anchor="start" dominant-baseline="alphabetic"></text></g><g><path fill="none" stroke="black" paint-order="fill stroke markers" d=" M 401.22383655054824 1424.3740178898424 L 26.366148716927086 1424.3740178898424" stroke-miterlimit="10" stroke-width="1.3612669416666667" stroke-dasharray="6.53408132"/><g transform="translate(23.64361483359375,1424.3740178898424) translate(-23.64361483359375,-1424.3740178898424)"><path fill="black" stroke="none" paint-order="stroke fill markers" d=" M 37.25628425026042 1417.5676831815092 L 23.64361483359375 1424.3740178898424 L 37.25628425026042 1431.1803525981757 Z"/></g></g><g><g><rect fill="white" stroke="none" x="1142.535393610099" y="1448.8768228398426" width="85.57339729371094" height="21.23576429"/></g><text fill="black" stroke="none" font-family="sans-serif" font-size="11pt" font-style="normal" font-weight="normal" text-decoration="normal" x="1144.985674105099" y="1463.5785058098427" text-anchor="start" dominant-baseline="alphabetic">createModel</text></g><g><path fill="none" stroke="black" paint-order="fill stroke markers" d=" M 1105.6746677335834 1470.1125871298425 L 1262.246982896992 1470.1125871298425" stroke-miterlimit="10" stroke-width="1.3612669416666667" stroke-dasharray=""/><g transform="translate(1264.9695167803254,1470.1125871298425) translate(-1264.9695167803254,-1470.1125871298425)"><path fill="black" stroke="none" paint-order="stroke fill markers" d=" M 1251.3568473636587 1463.3062524215093 L 1264.9695167803254 1470.1125871298425 L 1251.3568473636587 1476.9189218381757 Z"/></g></g><g><g><rect fill="white" stroke="none" x="1232.1811235188216" y="1494.6153920798426" width="65.20834602417969" height="21.23576429"/></g><text fill="black" stroke="none" font-family="sans-serif" font-size="11pt" font-style="normal" font-weight="normal" text-decoration="normal" x="1234.6314040138216" y="1509.3170750498427" text-anchor="start" dominant-baseline="alphabetic">getModel</text></g><g><path fill="none" stroke="black" paint-order="fill stroke markers" d=" M 1105.6746677335834 1515.8511563698426 L 1421.173391444906 1515.8511563698426" stroke-miterlimit="10" stroke-width="1.3612669416666667" stroke-dasharray=""/><g transform="translate(1423.8959253282394,1515.8511563698426) translate(-1423.8959253282394,-1515.8511563698426)"><path fill="black" stroke="none" paint-order="stroke fill markers" d=" M 1410.2832559115727 1509.0448216615093 L 1423.8959253282394 1515.8511563698426 L 1410.2832559115727 1522.6574910781758 Z"/></g></g><g><g><rect fill="white" stroke="none" x="1245.6349504231184" y="1540.3539613198427" width="38.30069221558594" height="21.23576429"/></g><text fill="black" stroke="none" font-family="sans-serif" font-size="11pt" font-style="normal" font-weight="normal" text-decoration="normal" x="1248.0852309181184" y="1555.0556442898428" text-anchor="start" dominant-baseline="alphabetic">room</text></g><g><path fill="none" stroke="black" paint-order="fill stroke markers" d=" M 1423.8959253282394 1561.5897256098426 L 1108.3972016169168 1561.5897256098426" stroke-miterlimit="10" stroke-width="1.3612669416666667" stroke-dasharray="6.53408132"/><g transform="translate(1105.6746677335834,1561.5897256098426) translate(-1105.6746677335834,-1561.5897256098426)"><path fill="black" stroke="none" paint-order="stroke fill markers" d=" M 1119.28733715025 1554.7833909015094 L 1105.6746677335834 1561.5897256098426 L 1119.28733715025 1568.3960603181758 Z"/></g></g><g><g><rect fill="white" stroke="none" x="728.0442335849239" y="1586.0925305598425" width="172.6384760290625" height="21.23576429"/></g><text fill="black" stroke="none" font-family="sans-serif" font-size="11pt" font-style="normal" font-weight="normal" text-decoration="normal" x="730.4945140799239" y="1600.7942135298426" text-anchor="start" dominant-baseline="alphabetic">emit 'private file message'</text></g><g><path fill="none" stroke="black" paint-order="fill stroke markers" d=" M 1089.3394644335833 1595.9754045784096 L 542.1100126486602 1628.4840765338065" stroke-miterlimit="10" stroke-width="1.3612669416666667" stroke-dasharray=""/><g transform="translate(539.3874787653269,1628.6458111784095) rotate(-3.3997132880796936,0,0) translate(-539.3874787653269,-1628.6458111784095)"><path fill="black" stroke="none" paint-order="stroke fill markers" d=" M 553.0001481819936 1621.8394764700763 L 539.3874787653269 1628.6458111784095 L 553.0001481819936 1635.4521458867428 Z"/><g transform="rotate(3.3997132880796936,0,0)"/></g></g><g><g><rect fill="white" stroke="none" x="566.8850709869936" y="1653.1486161284095" width="125.49466194214844" height="21.23576429"/></g><text fill="black" stroke="none" font-family="sans-serif" font-size="11pt" font-style="normal" font-weight="normal" text-decoration="normal" x="569.3353514819936" y="1667.8502990984096" text-anchor="start" dominant-baseline="alphabetic">getCurrentRoomId</text></g><g><path fill="none" stroke="black" paint-order="fill stroke markers" d=" M 539.3874787653269 1674.3843804184094 L 612.8958936153268 1674.3843804184094 L 612.8958936153268 1690.7195837184095 L 550.2776142986602 1690.7195837184095" stroke-miterlimit="10" stroke-width="1.3612669416666667" stroke-dasharray=""/><g transform="translate(547.5550804153269,1690.7195837184095) translate(-547.5550804153269,-1690.7195837184095)"><path fill="black" stroke="none" paint-order="stroke fill markers" d=" M 561.1677498319935 1683.9132490100762 L 547.5550804153269 1690.7195837184095 L 561.1677498319935 1697.5259184267427 Z"/></g></g><g><g><rect fill="white" stroke="none" x="566.8850709869936" y="1715.2223886684094" width="50.52688850464844" height="21.23576429"/></g><text fill="black" stroke="none" font-family="sans-serif" font-size="11pt" font-style="normal" font-weight="normal" text-decoration="normal" x="569.3353514819936" y="1729.9240716384095" text-anchor="start" dominant-baseline="alphabetic">roomId</text></g><g><path fill="none" stroke="black" paint-order="fill stroke markers" d=" M 547.5550804153269 1736.4581529584093 L 612.8958936153268 1736.4581529584093 L 612.8958936153268 1752.7933562584094 L 550.2776142986602 1752.7933562584094" stroke-miterlimit="10" stroke-width="1.3612669416666667" stroke-dasharray="6.53408132"/><g transform="translate(547.5550804153269,1752.7933562584094) translate(-547.5550804153269,-1752.7933562584094)"><path fill="black" stroke="none" paint-order="stroke fill markers" d=" M 561.1677498319935 1745.9870215500762 L 547.5550804153269 1752.7933562584094 L 561.1677498319935 1759.5996909667426 Z"/></g></g><g><g><rect fill="white" stroke="none" x="566.8850709869936" y="1777.2961612084093" width="182.55259956421875" height="21.23576429"/></g><text fill="black" stroke="none" font-family="sans-serif" font-size="11pt" font-style="normal" font-weight="normal" text-decoration="normal" x="569.3353514819936" y="1791.9978441784094" text-anchor="start" dominant-baseline="alphabetic">appendPrivateFileMessage</text></g><g><path fill="none" stroke="black" paint-order="fill stroke markers" d=" M 539.3874787653269 1798.5319254984092 L 612.8958936153268 1798.5319254984092 L 612.8958936153268 1814.8671287984093 L 550.2776142986602 1814.8671287984093" stroke-miterlimit="10" stroke-width="1.3612669416666667" stroke-dasharray=""/><g transform="translate(547.5550804153269,1814.8671287984093) translate(-547.5550804153269,-1814.8671287984093)"><path fill="black" stroke="none" paint-order="stroke fill markers" d=" M 561.1677498319935 1808.0607940900761 L 547.5550804153269 1814.8671287984093 L 561.1677498319935 1821.6734635067426 Z"/></g></g><g><g><rect fill="white" stroke="none" x="575.0526726369936" y="1839.3699337484093" width="174.37796272339844" height="21.23576429"/></g><text fill="black" stroke="none" font-family="sans-serif" font-size="11pt" font-style="normal" font-weight="normal" text-decoration="normal" x="577.5029531319936" y="1854.0716167184094" text-anchor="start" dominant-baseline="alphabetic">addPrivateMessageHTML</text></g><g><path fill="none" stroke="black" paint-order="fill stroke markers" d=" M 547.5550804153269 1860.6056980384092 L 621.0634952653269 1860.6056980384092 L 621.0634952653269 1876.9409013384093 L 558.4452159486602 1876.9409013384093" stroke-miterlimit="10" stroke-width="1.3612669416666667" stroke-dasharray=""/><g transform="translate(555.7226820653269,1876.9409013384093) translate(-555.7226820653269,-1876.9409013384093)"><path fill="black" stroke="none" paint-order="stroke fill markers" d=" M 569.3353514819936 1870.134566630076 L 555.7226820653269 1876.9409013384093 L 569.3353514819936 1883.7472360467425 Z"/></g></g><g><g><rect fill="white" stroke="none" x="575.0526726369936" y="1901.4437062884092" width="4.90056099" height="21.23576429"/></g><text fill="black" stroke="none" font-family="sans-serif" font-size="11pt" font-style="normal" font-weight="normal" text-decoration="normal" x="577.5029531319936" y="1916.1453892584093" text-anchor="start" dominant-baseline="alphabetic"></text></g><g><path fill="none" stroke="black" paint-order="fill stroke markers" d=" M 555.7226820653269 1922.679470578409 L 621.0634952653269 1922.679470578409 L 621.0634952653269 1939.0146738784092 L 558.4452159486602 1939.0146738784092" stroke-miterlimit="10" stroke-width="1.3612669416666667" stroke-dasharray="6.53408132"/><g transform="translate(555.7226820653269,1939.0146738784092) translate(-555.7226820653269,-1939.0146738784092)"><path fill="black" stroke="none" paint-order="stroke fill markers" d=" M 569.3353514819936 1932.208339170076 L 555.7226820653269 1939.0146738784092 L 569.3353514819936 1945.8210085867424 Z"/></g></g><g><g><rect fill="white" stroke="none" x="575.0526726369936" y="1963.5174788284091" width="92.88910163941406" height="21.23576429"/></g><text fill="black" stroke="none" font-family="sans-serif" font-size="11pt" font-style="normal" font-weight="normal" text-decoration="normal" x="577.5029531319936" y="1978.2191617984092" text-anchor="start" dominant-baseline="alphabetic">addFileHTML</text></g><g><path fill="none" stroke="black" paint-order="fill stroke markers" d=" M 547.5550804153269 1984.753243118409 L 621.0634952653269 1984.753243118409 L 621.0634952653269 2001.0884464184091 L 558.4452159486602 2001.0884464184091" stroke-miterlimit="10" stroke-width="1.3612669416666667" stroke-dasharray=""/><g transform="translate(555.7226820653269,2001.0884464184091) translate(-555.7226820653269,-2001.0884464184091)"><path fill="black" stroke="none" paint-order="stroke fill markers" d=" M 569.3353514819936 1994.282111710076 L 555.7226820653269 2001.0884464184091 L 569.3353514819936 2007.8947811267424 Z"/></g></g><g><g><rect fill="white" stroke="none" x="575.0526726369936" y="2025.591251368409" width="4.90056099" height="21.23576429"/></g><text fill="black" stroke="none" font-family="sans-serif" font-size="11pt" font-style="normal" font-weight="normal" text-decoration="normal" x="577.5029531319936" y="2040.2929343384092" text-anchor="start" dominant-baseline="alphabetic"></text></g><g><path fill="none" stroke="black" paint-order="fill stroke markers" d=" M 555.7226820653269 2046.827015658409 L 621.0634952653269 2046.827015658409 L 621.0634952653269 2063.162218958409 L 558.4452159486602 2063.162218958409" stroke-miterlimit="10" stroke-width="1.3612669416666667" stroke-dasharray="6.53408132"/><g transform="translate(555.7226820653269,2063.162218958409) translate(-555.7226820653269,-2063.162218958409)"><path fill="black" stroke="none" paint-order="stroke fill markers" d=" M 569.3353514819936 2056.3558842500756 L 555.7226820653269 2063.162218958409 L 569.3353514819936 2069.9685536667425 Z"/></g></g><g><g><rect fill="white" stroke="none" x="566.8850709869936" y="2087.6650239084092" width="4.90056099" height="21.23576429"/></g><text fill="black" stroke="none" font-family="sans-serif" font-size="11pt" font-style="normal" font-weight="normal" text-decoration="normal" x="569.3353514819936" y="2102.3667068784093" text-anchor="start" dominant-baseline="alphabetic"></text></g><g><path fill="none" stroke="black" paint-order="fill stroke markers" d=" M 547.5550804153269 2108.900788198409 L 612.8958936153268 2108.900788198409 L 612.8958936153268 2125.235991498409 L 550.2776142986602 2125.235991498409" stroke-miterlimit="10" stroke-width="1.3612669416666667" stroke-dasharray="6.53408132"/><g transform="translate(547.5550804153269,2125.235991498409) translate(-547.5550804153269,-2125.235991498409)"><path fill="black" stroke="none" paint-order="stroke fill markers" d=" M 561.1677498319935 2118.4296567900756 L 547.5550804153269 2125.235991498409 L 561.1677498319935 2132.0423262067425 Z"/></g></g><g><g><rect fill="white" stroke="none" x="558.7174693369936" y="2149.738796448409" width="4.90056099" height="21.23576429"/></g><text fill="black" stroke="none" font-family="sans-serif" font-size="11pt" font-style="normal" font-weight="normal" text-decoration="normal" x="561.1677498319937" y="2164.4404794184093" text-anchor="start" dominant-baseline="alphabetic"></text></g><g><path fill="none" stroke="black" paint-order="fill stroke markers" d=" M 539.3874787653269 2170.974560738409 L 604.7282919653269 2170.974560738409 L 604.7282919653269 2187.309764038409 L 542.1100126486602 2187.309764038409" stroke-miterlimit="10" stroke-width="1.3612669416666667" stroke-dasharray="6.53408132"/><g transform="translate(539.3874787653269,2187.309764038409) translate(-539.3874787653269,-2187.309764038409)"><path fill="black" stroke="none" paint-order="stroke fill markers" d=" M 553.0001481819936 2180.5034293300755 L 539.3874787653269 2187.309764038409 L 553.0001481819936 2194.1160987467424 Z"/></g></g></g><g/><g/><g/><g/><g/><g/><g/><g/></g></svg>