<svg version="1.1" xmlns="http://www.w3.org/2000/svg" xmlns:xlink="http://www.w3.org/1999/xlink" width="912" height="1312"><defs/><g><g/><g/><g/><g/><g/><g/><g/><g/><g/><g/><g/><g/><g/><g/><g/><g/><g/><g/><g/><g/><g><rect fill="white" stroke="none" x="0" y="0" width="912" height="1312"/></g><g><text fill="black" stroke="none" font-family="sans-serif" font-size="16.5pt" font-style="normal" font-weight="normal" text-decoration="normal" x="413.68806198533014" y="24.50280495" text-anchor="start" dominant-baseline="alphabetic">Send file</text></g><g/><g><path fill="none" stroke="black" paint-order="fill stroke markers" d=" M 23.64361483359375 128.80307802049998 L 23.64361483359375 1312.0144657184983" stroke-miterlimit="10" stroke-width="1.3612669416666667" stroke-dasharray="12.565541,5.445067766666667"/><path fill="none" stroke="black" paint-order="fill stroke markers" d=" M 130.79764667845052 128.80307802049998 L 130.79764667845052 1312.0144657184983" stroke-miterlimit="10" stroke-width="1.3612669416666667" stroke-dasharray="12.565541,5.445067766666667"/><path fill="none" stroke="black" paint-order="fill stroke markers" d=" M 257.56590550712633 128.80307802049998 L 257.56590550712633 1312.0144657184983" stroke-miterlimit="10" stroke-width="1.3612669416666667" stroke-dasharray="12.565541,5.445067766666667"/><path fill="none" stroke="black" paint-order="fill stroke markers" d=" M 379.394344421905 128.80307802049998 L 379.394344421905 1312.0144657184983" stroke-miterlimit="10" stroke-width="1.3612669416666667" stroke-dasharray="12.565541,5.445067766666667"/><path fill="none" stroke="black" paint-order="fill stroke markers" d=" M 581.7239438484337 499.1221368315 L 581.7239438484337 1312.0144657184983" stroke-miterlimit="10" stroke-width="1.3612669416666667" stroke-dasharray="12.565541,5.445067766666667"/><path fill="none" stroke="black" paint-order="fill stroke markers" d=" M 727.8944777625587 128.80307802049998 L 727.8944777625587 1312.0144657184983" stroke-miterlimit="10" stroke-width="1.3612669416666667" stroke-dasharray="12.565541,5.445067766666667"/><path fill="none" stroke="black" paint-order="fill stroke markers" d=" M 859.8058792914298 128.80307802049998 L 859.8058792914298 1312.0144657184983" stroke-miterlimit="10" stroke-width="1.3612669416666667" stroke-dasharray="12.565541,5.445067766666667"/></g><g><g><path fill="white" stroke="black" paint-order="fill stroke markers" d=" M 32.95468071459375 59.70516806150002 A 9.311065881 9.311065881 0 1 1 32.9546760590612 59.69585699717086 M 23.64361483359375 69.01623394250002 L 23.64361483359375 88.94518196850002 M 11.882268457593753 76.20372339450002 L 35.40496120959375 76.20372339450002 M 23.64361483359375 88.94518196850002 L 11.882268457593753 107.56731373050002 M 23.64361483359375 88.94518196850002 L 35.40496120959375 107.56731373050002" stroke-miterlimit="10" stroke-width="2.7769845610000004" stroke-dasharray=""/></g><g><g/><text fill="black" stroke="none" font-family="sans-serif" font-size="11pt" font-style="normal" font-weight="normal" text-decoration="normal" x="8.167601650000002" y="123.90251703050001" text-anchor="start" dominant-baseline="alphabetic">User</text></g><path fill="none" stroke="none"/><g><path fill="white" stroke="black" paint-order="fill stroke markers" d=" M 76.39894041679817 84.69802911050002 L 185.19635294010288 84.69802911050002 L 185.19635294010288 128.8030780205 L 76.39894041679817 128.8030780205 L 76.39894041679817 84.69802911050002 Z" stroke-miterlimit="10" stroke-width="2.613632528" stroke-dasharray=""/></g><g><g/><text fill="black" stroke="none" font-family="sans-serif" font-size="11pt" font-style="normal" font-weight="normal" text-decoration="normal" x="94.12263599729818" y="112.46787472049999" text-anchor="start" dominant-baseline="alphabetic">ImageInput</text></g><path fill="none" stroke="none"/><g><path fill="white" stroke="black" paint-order="fill stroke markers" d=" M 201.53155624010287 84.69802911050002 L 313.6002547741498 84.69802911050002 L 313.6002547741498 128.8030780205 L 201.53155624010287 128.8030780205 L 201.53155624010287 84.69802911050002 Z" stroke-miterlimit="10" stroke-width="2.613632528" stroke-dasharray=""/></g><g><g/><text fill="black" stroke="none" font-family="sans-serif" font-size="11pt" font-style="normal" font-weight="normal" text-decoration="normal" x="219.2552518206029" y="112.46787472049999" text-anchor="start" dominant-baseline="alphabetic">SendButton</text></g><path fill="none" stroke="none"/><g><path fill="white" stroke="black" paint-order="fill stroke markers" d=" M 340.48597934677605 84.69802911050002 L 418.3027094970339 84.69802911050002 L 418.3027094970339 128.8030780205 L 340.48597934677605 128.8030780205 L 340.48597934677605 84.69802911050002 Z" stroke-miterlimit="10" stroke-width="2.613632528" stroke-dasharray=""/></g><g><g/><text fill="black" stroke="none" font-family="sans-serif" font-size="11pt" font-style="normal" font-weight="normal" text-decoration="normal" x="358.20967492727607" y="112.46787472049999" text-anchor="start" dominant-baseline="alphabetic">chat.js</text></g><path fill="none" stroke="none"/><g><path fill="white" stroke="black" paint-order="fill stroke markers" d=" M 657.3361569379181 84.69802911050002 L 798.4527985871994 84.69802911050002 L 798.4527985871994 128.8030780205 L 657.3361569379181 128.8030780205 L 657.3361569379181 84.69802911050002 Z" stroke-miterlimit="10" stroke-width="2.613632528" stroke-dasharray=""/></g><g><g/><text fill="black" stroke="none" font-family="sans-serif" font-size="11pt" font-style="normal" font-weight="normal" text-decoration="normal" x="675.0598525184181" y="112.46787472049999" text-anchor="start" dominant-baseline="alphabetic">ChatWebSocket</text></g><path fill="none" stroke="none"/><g><path fill="white" stroke="black" paint-order="fill stroke markers" d=" M 814.7880018871994 84.69802911050002 L 904.8237566956603 84.69802911050002 L 904.8237566956603 128.8030780205 L 814.7880018871994 128.8030780205 L 814.7880018871994 84.69802911050002 Z" stroke-miterlimit="10" stroke-width="2.613632528" stroke-dasharray=""/></g><g><g/><text fill="black" stroke="none" font-family="sans-serif" font-size="11pt" font-style="normal" font-weight="normal" text-decoration="normal" x="832.5116974676994" y="112.46787472049999" text-anchor="start" dominant-baseline="alphabetic">Provider</text></g></g><g><path fill="white" stroke="black" paint-order="fill stroke markers" d=" M 249.39830385712634 228.44781815049998 L 265.7335071571263 228.44781815049998 L 265.7335071571263 845.5474493005315 L 249.39830385712634 845.5474493005315 L 249.39830385712634 228.44781815049998" stroke-miterlimit="10" stroke-width="1.3612669416666667" stroke-dasharray=""/><path fill="white" stroke="black" paint-order="fill stroke markers" d=" M 371.226742771905 274.1863873905 L 387.56194607190497 274.1863873905 L 387.56194607190497 799.8088800605316 L 371.226742771905 799.8088800605316 L 371.226742771905 274.1863873905" stroke-miterlimit="10" stroke-width="1.3612669416666667" stroke-dasharray=""/><path fill="white" stroke="black" paint-order="fill stroke markers" d=" M 122.63004502845052 319.9249566305 L 138.9652483284505 319.9249566305 L 138.9652483284505 365.6635258705 L 122.63004502845052 365.6635258705 L 122.63004502845052 319.9249566305" stroke-miterlimit="10" stroke-width="1.3612669416666667" stroke-dasharray=""/><path fill="white" stroke="black" paint-order="fill stroke markers" d=" M 379.394344421905 427.7372984105 L 395.72954772190496 427.7372984105 L 395.72954772190496 754.0703108205316 L 379.394344421905 754.0703108205316 L 379.394344421905 427.7372984105" stroke-miterlimit="10" stroke-width="1.3612669416666667" stroke-dasharray=""/><path fill="white" stroke="black" paint-order="fill stroke markers" d=" M 387.56194607190497 561.1959093715 L 403.89714937190496 561.1959093715 L 403.89714937190496 691.9965382805317 L 387.56194607190497 691.9965382805317 L 387.56194607190497 561.1959093715" stroke-miterlimit="10" stroke-width="1.3612669416666667" stroke-dasharray=""/><path fill="white" stroke="black" paint-order="fill stroke markers" d=" M 719.7268761125587 629.9227657405316 L 736.0620794125588 629.9227657405316 L 736.0620794125588 973.8757574084985 L 719.7268761125587 973.8757574084985 L 719.7268761125587 629.9227657405316" stroke-miterlimit="10" stroke-width="1.3612669416666667" stroke-dasharray=""/><path fill="white" stroke="black" paint-order="fill stroke markers" d=" M 851.6382776414298 891.2860185405315 L 867.9734809414299 891.2860185405315 L 867.9734809414299 937.0245877805314 L 851.6382776414298 937.0245877805314 L 851.6382776414298 891.2860185405315" stroke-miterlimit="10" stroke-width="1.3612669416666667" stroke-dasharray=""/><path fill="white" stroke="black" paint-order="fill stroke markers" d=" M 371.226742771905 1006.5461640084985 L 387.56194607190497 1006.5461640084985 L 387.56194607190497 1254.8412541684984 L 371.226742771905 1254.8412541684984 L 371.226742771905 1006.5461640084985" stroke-miterlimit="10" stroke-width="1.3612669416666667" stroke-dasharray=""/><path fill="white" stroke="black" paint-order="fill stroke markers" d=" M 379.394344421905 1068.6199365484986 L 395.72954772190496 1068.6199365484986 L 395.72954772190496 1130.6937090884985 L 379.394344421905 1130.6937090884985 L 379.394344421905 1068.6199365484986" stroke-miterlimit="10" stroke-width="1.3612669416666667" stroke-dasharray=""/><path fill="white" stroke="black" paint-order="fill stroke markers" d=" M 379.394344421905 1192.7674816284984 L 395.72954772190496 1192.7674816284984 L 395.72954772190496 1254.8412541684984 L 379.394344421905 1254.8412541684984 L 379.394344421905 1192.7674816284984" stroke-miterlimit="10" stroke-width="1.3612669416666667" stroke-dasharray=""/><g><g><rect fill="white" stroke="none" x="47.05740623026041" y="161.4734846205" width="60.32644905152344" height="21.23576429"/></g><text fill="black" stroke="none" font-family="sans-serif" font-size="11pt" font-style="normal" font-weight="normal" text-decoration="normal" x="49.50768672526041" y="176.17516759049997" text-anchor="start" dominant-baseline="alphabetic">hello.pdf</text></g><g><path fill="none" stroke="black" paint-order="fill stroke markers" d=" M 23.64361483359375 182.70924891049998 L 128.07511279511718 182.70924891049998" stroke-miterlimit="10" stroke-width="1.3612669416666667" stroke-dasharray=""/><g transform="translate(130.79764667845052,182.70924891049998) translate(-130.79764667845052,-182.70924891049998)"><path fill="black" stroke="none" paint-order="stroke fill markers" d=" M 117.18497726178386 175.90291420216664 L 130.79764667845052 182.70924891049998 L 117.18497726178386 189.51558361883332 Z"/></g></g><g><g><rect fill="white" stroke="none" x="116.14656843776238" y="207.2120538605" width="40.748781815195315" height="21.23576429"/></g><text fill="black" stroke="none" font-family="sans-serif" font-size="11pt" font-style="normal" font-weight="normal" text-decoration="normal" x="118.59684893276238" y="221.91373683049997" text-anchor="start" dominant-baseline="alphabetic">press</text></g><g><path fill="none" stroke="black" paint-order="fill stroke markers" d=" M 23.64361483359375 228.44781815049998 L 246.675769973793 228.44781815049998" stroke-miterlimit="10" stroke-width="1.3612669416666667" stroke-dasharray=""/><g transform="translate(249.39830385712634,228.44781815049998) translate(-249.39830385712634,-228.44781815049998)"><path fill="black" stroke="none" paint-order="stroke fill markers" d=" M 235.78563444045966 221.64148344216665 L 249.39830385712634 228.44781815049998 L 235.78563444045966 235.25415285883332 Z"/></g></g><g><g><rect fill="white" stroke="none" x="285.063497728793" y="252.9506231005" width="66.83325447144531" height="21.23576429"/></g><text fill="black" stroke="none" font-family="sans-serif" font-size="11pt" font-style="normal" font-weight="normal" text-decoration="normal" x="287.513778223793" y="267.6523060705" text-anchor="start" dominant-baseline="alphabetic">onSubmit</text></g><g><path fill="none" stroke="black" paint-order="fill stroke markers" d=" M 265.7335071571263 274.1863873905 L 368.50420888857167 274.1863873905" stroke-miterlimit="10" stroke-width="1.3612669416666667" stroke-dasharray=""/><g transform="translate(371.226742771905,274.1863873905) translate(-371.226742771905,-274.1863873905)"><path fill="black" stroke="none" paint-order="stroke fill markers" d=" M 357.6140733552383 267.38005268216665 L 371.226742771905 274.1863873905 L 357.6140733552383 280.9927220988333 Z"/></g></g><g><g><rect fill="white" stroke="none" x="235.1224606606465" y="298.6891923405" width="39.9470697790625" height="21.23576429"/></g><text fill="black" stroke="none" font-family="sans-serif" font-size="11pt" font-style="normal" font-weight="normal" text-decoration="normal" x="237.5727411556465" y="313.39087531049995" text-anchor="start" dominant-baseline="alphabetic">value</text></g><g><path fill="none" stroke="black" paint-order="fill stroke markers" d=" M 371.226742771905 319.9249566305 L 141.68778221178385 319.9249566305" stroke-miterlimit="10" stroke-width="1.3612669416666667" stroke-dasharray=""/><g transform="translate(138.9652483284505,319.9249566305) translate(-138.9652483284505,-319.9249566305)"><path fill="black" stroke="none" paint-order="stroke fill markers" d=" M 152.5779177451172 313.11862192216665 L 138.9652483284505 319.9249566305 L 152.5779177451172 326.73129133883333 Z"/></g></g><g><g><rect fill="white" stroke="none" x="224.93277102441604" y="344.4277615805" width="60.32644905152344" height="21.23576429"/></g><text fill="black" stroke="none" font-family="sans-serif" font-size="11pt" font-style="normal" font-weight="normal" text-decoration="normal" x="227.38305151941603" y="359.12944455049995" text-anchor="start" dominant-baseline="alphabetic">hello.pdf</text></g><g><path fill="none" stroke="black" paint-order="fill stroke markers" d=" M 138.9652483284505 365.6635258705 L 368.50420888857167 365.6635258705" stroke-miterlimit="10" stroke-width="1.3612669416666667" stroke-dasharray="6.53408132"/><g transform="translate(371.226742771905,365.6635258705) translate(-371.226742771905,-365.6635258705)"><path fill="black" stroke="none" paint-order="stroke fill markers" d=" M 357.6140733552383 358.85719116216666 L 371.226742771905 365.6635258705 L 357.6140733552383 372.46986057883333 Z"/></g></g><g><g><rect fill="white" stroke="none" x="415.0595382935716" y="390.1663308205" width="149.93988288941406" height="21.23576429"/></g><text fill="black" stroke="none" font-family="sans-serif" font-size="11pt" font-style="normal" font-weight="normal" text-decoration="normal" x="417.50981878857164" y="404.86801379049996" text-anchor="start" dominant-baseline="alphabetic">onFileMessageSubmit</text></g><g><path fill="none" stroke="black" paint-order="fill stroke markers" d=" M 387.56194607190497 411.4020951105 L 461.070360921905 411.4020951105 L 461.070360921905 427.7372984105 L 398.4520816052383 427.7372984105" stroke-miterlimit="10" stroke-width="1.3612669416666667" stroke-dasharray=""/><g transform="translate(395.72954772190496,427.7372984105) translate(-395.72954772190496,-427.7372984105)"><path fill="black" stroke="none" paint-order="stroke fill markers" d=" M 409.34221713857164 420.93096370216665 L 395.72954772190496 427.7372984105 L 409.34221713857164 434.5436331188333 Z"/></g></g><path fill="none" stroke="none"/><g><path fill="white" stroke="black" paint-order="fill stroke markers" d=" M 522.4469340589493 453.628595641 L 641.0009536379181 453.628595641 L 641.0009536379181 497.733644551 L 522.4469340589493 497.733644551 L 522.4469340589493 453.628595641 Z" stroke-miterlimit="10" stroke-width="2.613632528" stroke-dasharray=""/></g><g><g/><text fill="black" stroke="none" font-family="sans-serif" font-size="11pt" font-style="normal" font-weight="normal" text-decoration="normal" x="540.1706296394493" y="481.398441251" text-anchor="start" dominant-baseline="alphabetic">FileMessage</text></g><g><g><rect fill="white" stroke="none" x="419.14333911857165" y="454.44535580599995" width="79.88980354371094" height="21.23576429"/></g><text fill="black" stroke="none" font-family="sans-serif" font-size="11pt" font-style="normal" font-weight="normal" text-decoration="normal" x="421.59361961357166" y="469.14703877599993" text-anchor="start" dominant-baseline="alphabetic">&lt;&lt;create&gt;&gt;</text></g><g><path fill="none" stroke="black" paint-order="fill stroke markers" d=" M 395.72954772190496 475.681120096 L 519.724400175616 475.681120096" stroke-miterlimit="10" stroke-width="1.3612669416666667" stroke-dasharray="6.53408132"/><g transform="translate(522.4469340589493,475.681120096) translate(-522.4469340589493,-475.681120096)"><path fill="black" stroke="none" paint-order="stroke fill markers" d=" M 508.8342646422826 468.87478538766663 L 522.4469340589493 475.681120096 L 508.8342646422826 482.4874548043333 Z"/></g></g><g><g><rect fill="white" stroke="none" x="423.2271399435716" y="523.6249417815" width="136.92628730835938" height="21.23576429"/></g><text fill="black" stroke="none" font-family="sans-serif" font-size="11pt" font-style="normal" font-weight="normal" text-decoration="normal" x="425.67742043857163" y="538.3266247514999" text-anchor="start" dominant-baseline="alphabetic">appendFileMessage</text></g><g><path fill="none" stroke="black" paint-order="fill stroke markers" d=" M 395.72954772190496 544.8607060715 L 469.237962571905 544.8607060715 L 469.237962571905 561.1959093715 L 406.6196832552383 561.1959093715" stroke-miterlimit="10" stroke-width="1.3612669416666667" stroke-dasharray=""/><g transform="translate(403.89714937190496,561.1959093715) translate(-403.89714937190496,-561.1959093715)"><path fill="black" stroke="none" paint-order="stroke fill markers" d=" M 417.50981878857164 554.3895746631666 L 403.89714937190496 561.1959093715 L 417.50981878857164 568.0022440798333 Z"/></g></g><g><g><rect fill="white" stroke="none" x="495.04537177359896" y="585.6987143214999" width="133.53328193726563" height="21.23576429"/></g><text fill="black" stroke="none" font-family="sans-serif" font-size="11pt" font-style="normal" font-weight="normal" text-decoration="normal" x="497.495652268599" y="600.4003972914999" text-anchor="start" dominant-baseline="alphabetic">emit 'chat message'</text></g><g><path fill="none" stroke="black" paint-order="fill stroke markers" d=" M 403.89714937190496 597.2523591405317 L 717.0043422292254 629.6411383906659" stroke-miterlimit="10" stroke-width="1.3612669416666667" stroke-dasharray=""/><g transform="translate(719.7268761125587,629.9227657405316) rotate(5.905847805139593,0,0) translate(-719.7268761125587,-629.9227657405316)"><path fill="black" stroke="none" paint-order="stroke fill markers" d=" M 706.114206695892 623.1164310321983 L 719.7268761125587 629.9227657405316 L 706.114206695892 636.729100448865 Z"/><g transform="rotate(-5.905847805139593,0,0)"/></g></g><g><g><rect fill="white" stroke="none" x="423.2271399435716" y="654.4255706905317" width="4.90056099" height="21.23576429"/></g><text fill="black" stroke="none" font-family="sans-serif" font-size="11pt" font-style="normal" font-weight="normal" text-decoration="normal" x="425.67742043857163" y="669.1272536605317" text-anchor="start" dominant-baseline="alphabetic"></text></g><g><path fill="none" stroke="black" paint-order="fill stroke markers" d=" M 403.89714937190496 675.6613349805317 L 469.237962571905 675.6613349805317 L 469.237962571905 691.9965382805317 L 406.6196832552383 691.9965382805317" stroke-miterlimit="10" stroke-width="1.3612669416666667" stroke-dasharray="6.53408132"/><g transform="translate(403.89714937190496,691.9965382805317) translate(-403.89714937190496,-691.9965382805317)"><path fill="black" stroke="none" paint-order="stroke fill markers" d=" M 417.50981878857164 685.1902035721984 L 403.89714937190496 691.9965382805317 L 417.50981878857164 698.802872988865 Z"/></g></g><g><g><rect fill="white" stroke="none" x="415.0595382935716" y="716.4993432305316" width="4.90056099" height="21.23576429"/></g><text fill="black" stroke="none" font-family="sans-serif" font-size="11pt" font-style="normal" font-weight="normal" text-decoration="normal" x="417.50981878857164" y="731.2010262005316" text-anchor="start" dominant-baseline="alphabetic"></text></g><g><path fill="none" stroke="black" paint-order="fill stroke markers" d=" M 395.72954772190496 737.7351075205316 L 461.070360921905 737.7351075205316 L 461.070360921905 754.0703108205316 L 398.4520816052383 754.0703108205316" stroke-miterlimit="10" stroke-width="1.3612669416666667" stroke-dasharray="6.53408132"/><g transform="translate(395.72954772190496,754.0703108205316) translate(-395.72954772190496,-754.0703108205316)"><path fill="black" stroke="none" paint-order="stroke fill markers" d=" M 409.34221713857164 747.2639761121983 L 395.72954772190496 754.0703108205316 L 409.34221713857164 760.876645528865 Z"/></g></g><g><g><rect fill="white" stroke="none" x="316.02984446951564" y="778.5731157705316" width="4.90056099" height="21.23576429"/></g><text fill="black" stroke="none" font-family="sans-serif" font-size="11pt" font-style="normal" font-weight="normal" text-decoration="normal" x="318.48012496451565" y="793.2747987405315" text-anchor="start" dominant-baseline="alphabetic"></text></g><g><path fill="none" stroke="black" paint-order="fill stroke markers" d=" M 371.226742771905 799.8088800605316 L 268.45604104045964 799.8088800605316" stroke-miterlimit="10" stroke-width="1.3612669416666667" stroke-dasharray="6.53408132"/><g transform="translate(265.7335071571263,799.8088800605316) translate(-265.7335071571263,-799.8088800605316)"><path fill="black" stroke="none" paint-order="stroke fill markers" d=" M 279.346176573793 793.0025453521982 L 265.7335071571263 799.8088800605316 L 279.346176573793 806.6152147688649 Z"/></g></g><g><g><rect fill="white" stroke="none" x="134.07067885036005" y="824.3116850105315" width="4.90056099" height="21.23576429"/></g><text fill="black" stroke="none" font-family="sans-serif" font-size="11pt" font-style="normal" font-weight="normal" text-decoration="normal" x="136.52095934536004" y="839.0133679805315" text-anchor="start" dominant-baseline="alphabetic"></text></g><g><path fill="none" stroke="black" paint-order="fill stroke markers" d=" M 249.39830385712634 845.5474493005315 L 26.366148716927086 845.5474493005315" stroke-miterlimit="10" stroke-width="1.3612669416666667" stroke-dasharray="6.53408132"/><g transform="translate(23.64361483359375,845.5474493005315) translate(-23.64361483359375,-845.5474493005315)"><path fill="black" stroke="none" paint-order="stroke fill markers" d=" M 37.25628425026042 838.7411145921982 L 23.64361483359375 845.5474493005315 L 37.25628425026042 852.3537840088649 Z"/></g></g><g><g><rect fill="white" stroke="none" x="761.2460055149045" y="870.0502542505315" width="65.20834602417969" height="21.23576429"/></g><text fill="black" stroke="none" font-family="sans-serif" font-size="11pt" font-style="normal" font-weight="normal" text-decoration="normal" x="763.6962860099045" y="884.7519372205314" text-anchor="start" dominant-baseline="alphabetic">getModel</text></g><g><path fill="none" stroke="black" paint-order="fill stroke markers" d=" M 736.0620794125588 891.2860185405315 L 848.9157437580965 891.2860185405315" stroke-miterlimit="10" stroke-width="1.3612669416666667" stroke-dasharray=""/><g transform="translate(851.6382776414298,891.2860185405315) translate(-851.6382776414298,-891.2860185405315)"><path fill="black" stroke="none" paint-order="stroke fill markers" d=" M 838.0256082247631 884.4796838321981 L 851.6382776414298 891.2860185405315 L 838.0256082247631 898.0923532488648 Z"/></g></g><g><g><rect fill="white" stroke="none" x="774.6998324192014" y="915.7888234905314" width="38.30069221558594" height="21.23576429"/></g><text fill="black" stroke="none" font-family="sans-serif" font-size="11pt" font-style="normal" font-weight="normal" text-decoration="normal" x="777.1501129142014" y="930.4905064605314" text-anchor="start" dominant-baseline="alphabetic">room</text></g><g><path fill="none" stroke="black" paint-order="fill stroke markers" d=" M 851.6382776414298 937.0245877805314 L 738.7846132958921 937.0245877805314" stroke-miterlimit="10" stroke-width="1.3612669416666667" stroke-dasharray="6.53408132"/><g transform="translate(736.0620794125588,937.0245877805314) translate(-736.0620794125588,-937.0245877805314)"><path fill="black" stroke="none" paint-order="stroke fill markers" d=" M 749.6747488292255 930.2182530721981 L 736.0620794125588 937.0245877805314 L 749.6747488292255 943.8309224888648 Z"/></g></g><g><g><rect fill="white" stroke="none" x="475.4711920596342" y="961.5273927305313" width="156.34643806519531" height="21.23576429"/></g><text fill="black" stroke="none" font-family="sans-serif" font-size="11pt" font-style="normal" font-weight="normal" text-decoration="normal" x="477.9214725546342" y="976.2290757005313" text-anchor="start" dominant-baseline="alphabetic">emit 'chat file message'</text></g><g><path fill="none" stroke="black" paint-order="fill stroke markers" d=" M 719.7268761125587 973.8757574084985 L 390.2844799552383 1006.2783865253672" stroke-miterlimit="10" stroke-width="1.3612669416666667" stroke-dasharray=""/><g transform="translate(387.56194607190497,1006.5461640084985) rotate(-5.617315151818499,0,0) translate(-387.56194607190497,-1006.5461640084985)"><path fill="black" stroke="none" paint-order="stroke fill markers" d=" M 401.17461548857165 999.7398293001652 L 387.56194607190497 1006.5461640084985 L 401.17461548857165 1013.3524987168319 Z"/><g transform="rotate(5.617315151818499,0,0)"/></g></g><g><g><rect fill="white" stroke="none" x="415.0595382935716" y="1031.0489689584986" width="125.49466194214844" height="21.23576429"/></g><text fill="black" stroke="none" font-family="sans-serif" font-size="11pt" font-style="normal" font-weight="normal" text-decoration="normal" x="417.50981878857164" y="1045.7506519284987" text-anchor="start" dominant-baseline="alphabetic">getCurrentRoomId</text></g><g><path fill="none" stroke="black" paint-order="fill stroke markers" d=" M 387.56194607190497 1052.2847332484985 L 461.070360921905 1052.2847332484985 L 461.070360921905 1068.6199365484986 L 398.4520816052383 1068.6199365484986" stroke-miterlimit="10" stroke-width="1.3612669416666667" stroke-dasharray=""/><g transform="translate(395.72954772190496,1068.6199365484986) translate(-395.72954772190496,-1068.6199365484986)"><path fill="black" stroke="none" paint-order="stroke fill markers" d=" M 409.34221713857164 1061.8136018401653 L 395.72954772190496 1068.6199365484986 L 409.34221713857164 1075.4262712568318 Z"/></g></g><g><g><rect fill="white" stroke="none" x="415.0595382935716" y="1093.1227414984985" width="50.52688850464844" height="21.23576429"/></g><text fill="black" stroke="none" font-family="sans-serif" font-size="11pt" font-style="normal" font-weight="normal" text-decoration="normal" x="417.50981878857164" y="1107.8244244684986" text-anchor="start" dominant-baseline="alphabetic">roomId</text></g><g><path fill="none" stroke="black" paint-order="fill stroke markers" d=" M 395.72954772190496 1114.3585057884984 L 461.070360921905 1114.3585057884984 L 461.070360921905 1130.6937090884985 L 398.4520816052383 1130.6937090884985" stroke-miterlimit="10" stroke-width="1.3612669416666667" stroke-dasharray="6.53408132"/><g transform="translate(395.72954772190496,1130.6937090884985) translate(-395.72954772190496,-1130.6937090884985)"><path fill="black" stroke="none" paint-order="stroke fill markers" d=" M 409.34221713857164 1123.8873743801653 L 395.72954772190496 1130.6937090884985 L 409.34221713857164 1137.5000437968317 Z"/></g></g><g><g><rect fill="white" stroke="none" x="415.0595382935716" y="1155.1965140384984" width="136.92628730835938" height="21.23576429"/></g><text fill="black" stroke="none" font-family="sans-serif" font-size="11pt" font-style="normal" font-weight="normal" text-decoration="normal" x="417.50981878857164" y="1169.8981970084985" text-anchor="start" dominant-baseline="alphabetic">appendFileMessage</text></g><g><path fill="none" stroke="black" paint-order="fill stroke markers" d=" M 387.56194607190497 1176.4322783284983 L 461.070360921905 1176.4322783284983 L 461.070360921905 1192.7674816284984 L 398.4520816052383 1192.7674816284984" stroke-miterlimit="10" stroke-width="1.3612669416666667" stroke-dasharray=""/><g transform="translate(395.72954772190496,1192.7674816284984) translate(-395.72954772190496,-1192.7674816284984)"><path fill="black" stroke="none" paint-order="stroke fill markers" d=" M 409.34221713857164 1185.9611469201652 L 395.72954772190496 1192.7674816284984 L 409.34221713857164 1199.5738163368317 Z"/></g></g><g><g><rect fill="white" stroke="none" x="415.0595382935716" y="1217.2702865784984" width="4.90056099" height="21.23576429"/></g><text fill="black" stroke="none" font-family="sans-serif" font-size="11pt" font-style="normal" font-weight="normal" text-decoration="normal" x="417.50981878857164" y="1231.9719695484985" text-anchor="start" dominant-baseline="alphabetic"></text></g><g><path fill="none" stroke="black" paint-order="fill stroke markers" d=" M 395.72954772190496 1238.5060508684983 L 461.070360921905 1238.5060508684983 L 461.070360921905 1254.8412541684984 L 398.4520816052383 1254.8412541684984" stroke-miterlimit="10" stroke-width="1.3612669416666667" stroke-dasharray="6.53408132"/><g transform="translate(395.72954772190496,1254.8412541684984) translate(-395.72954772190496,-1254.8412541684984)"><path fill="black" stroke="none" paint-order="stroke fill markers" d=" M 409.34221713857164 1248.0349194601652 L 395.72954772190496 1254.8412541684984 L 409.34221713857164 1261.6475888768316 Z"/></g></g></g><g/><g/><g/><g/><g/><g/></g></svg>