<svg version="1.1" xmlns="http://www.w3.org/2000/svg" xmlns:xlink="http://www.w3.org/1999/xlink" width="684" height="2485"><defs/><g><g/><g/><g/><g/><g/><g/><g/><g/><g/><g/><g/><g/><g/><g/><g/><g/><g/><g/><g/><g/><g/><g/><g/><g/><g/><g/><g/><g/><g/><g/><g/><g/><g><rect fill="white" stroke="none" x="0" y="0" width="684" height="2485"/></g><g><text fill="black" stroke="none" font-family="sans-serif" font-size="16.5pt" font-style="normal" font-weight="normal" text-decoration="normal" x="132.44191711962884" y="24.50280495" text-anchor="start" dominant-baseline="alphabetic">Selecting a Group / Changing active Group</text></g><g/><g><path fill="none" stroke="black" paint-order="fill stroke markers" d=" M 23.64361483359375 128.80307802049998 L 23.64361483359375 2485.899319524234" stroke-miterlimit="10" stroke-width="1.3612669416666667" stroke-dasharray="12.565541,5.445067766666667"/><path fill="none" stroke="black" paint-order="fill stroke markers" d=" M 111.2199794421224 128.80307802049998 L 111.2199794421224 2485.899319524234" stroke-miterlimit="10" stroke-width="1.3612669416666667" stroke-dasharray="12.565541,5.445067766666667"/><path fill="none" stroke="black" paint-order="fill stroke markers" d=" M 285.2173331518229 128.80307802049998 L 285.2173331518229 2485.899319524234" stroke-miterlimit="10" stroke-width="1.3612669416666667" stroke-dasharray="12.565541,5.445067766666667"/><path fill="none" stroke="black" paint-order="fill stroke markers" d=" M 566.3256592927082 128.80307802049998 L 566.3256592927082 2485.899319524234" stroke-miterlimit="10" stroke-width="1.3612669416666667" stroke-dasharray="12.565541,5.445067766666667"/></g><g><g><path fill="white" stroke="black" paint-order="fill stroke markers" d=" M 32.95468071459375 59.70516806150002 A 9.311065881 9.311065881 0 1 1 32.9546760590612 59.69585699717086 M 23.64361483359375 69.01623394250002 L 23.64361483359375 88.94518196850002 M 11.882268457593753 76.20372339450002 L 35.40496120959375 76.20372339450002 M 23.64361483359375 88.94518196850002 L 11.882268457593753 107.56731373050002 M 23.64361483359375 88.94518196850002 L 35.40496120959375 107.56731373050002" stroke-miterlimit="10" stroke-width="2.7769845610000004" stroke-dasharray=""/></g><g><g/><text fill="black" stroke="none" font-family="sans-serif" font-size="11pt" font-style="normal" font-weight="normal" text-decoration="normal" x="8.167601650000002" y="123.90251703050001" text-anchor="start" dominant-baseline="alphabetic">User</text></g><path fill="none" stroke="none"/><g><path fill="white" stroke="black" paint-order="fill stroke markers" d=" M 67.83415922783333 84.69802911050002 L 154.60579965641148 84.69802911050002 L 154.60579965641148 128.8030780205 L 67.83415922783333 128.8030780205 L 67.83415922783333 84.69802911050002 Z" stroke-miterlimit="10" stroke-width="2.613632528" stroke-dasharray=""/></g><g><g/><text fill="black" stroke="none" font-family="sans-serif" font-size="11pt" font-style="normal" font-weight="normal" text-decoration="normal" x="85.55785480833333" y="112.46787472049999" text-anchor="start" dominant-baseline="alphabetic">ListItem</text></g><path fill="none" stroke="none"/><g><path fill="white" stroke="black" paint-order="fill stroke markers" d=" M 246.308968076694 84.69802911050002 L 324.12569822695184 84.69802911050002 L 324.12569822695184 128.8030780205 L 246.308968076694 128.8030780205 L 246.308968076694 84.69802911050002 Z" stroke-miterlimit="10" stroke-width="2.613632528" stroke-dasharray=""/></g><g><g/><text fill="black" stroke="none" font-family="sans-serif" font-size="11pt" font-style="normal" font-weight="normal" text-decoration="normal" x="264.032663657194" y="112.46787472049999" text-anchor="start" dominant-baseline="alphabetic">chat.js</text></g><path fill="none" stroke="none"/><g><path fill="white" stroke="black" paint-order="fill stroke markers" d=" M 513.9777953162121 84.69802911050002 L 618.6735232692043 84.69802911050002 L 618.6735232692043 128.8030780205 L 513.9777953162121 128.8030780205 L 513.9777953162121 84.69802911050002 Z" stroke-miterlimit="10" stroke-width="2.613632528" stroke-dasharray=""/></g><g><g/><text fill="black" stroke="none" font-family="sans-serif" font-size="11pt" font-style="normal" font-weight="normal" text-decoration="normal" x="531.7014908967121" y="112.46787472049999" text-anchor="start" dominant-baseline="alphabetic">user_list.js</text></g></g><g><path fill="white" stroke="black" paint-order="fill stroke markers" d=" M 103.0523777921224 182.70924891049998 L 119.38758109212239 182.70924891049998 L 119.38758109212239 2469.564116224234 L 103.0523777921224 2469.564116224234 L 103.0523777921224 182.70924891049998" stroke-miterlimit="10" stroke-width="1.3612669416666667" stroke-dasharray=""/><path fill="white" stroke="black" paint-order="fill stroke markers" d=" M 277.0497315018229 228.44781815049998 L 293.3849348018229 228.44781815049998 L 293.3849348018229 2382.9875387342345 L 277.0497315018229 2382.9875387342345 L 277.0497315018229 228.44781815049998" stroke-miterlimit="10" stroke-width="1.3612669416666667" stroke-dasharray=""/><path fill="white" stroke="black" paint-order="fill stroke markers" d=" M 558.1580576427082 295.34855699423565 L 574.4932609427083 295.34855699423565 L 574.4932609427083 533.8425251742356 L 558.1580576427082 533.8425251742356 L 558.1580576427082 295.34855699423565" stroke-miterlimit="10" stroke-width="1.3612669416666667" stroke-dasharray=""/><path fill="white" stroke="black" paint-order="fill stroke markers" d=" M 566.3256592927082 339.45360590423564 L 582.6608625927083 339.45360590423564 L 582.6608625927083 463.60115098423563 L 566.3256592927082 463.60115098423563 L 566.3256592927082 339.45360590423564" stroke-miterlimit="10" stroke-width="1.3612669416666667" stroke-dasharray=""/><path fill="white" stroke="black" paint-order="fill stroke markers" d=" M 285.2173331518229 595.9162977142355 L 301.5525364518229 595.9162977142355 L 301.5525364518229 657.9900702542354 L 285.2173331518229 657.9900702542354 L 285.2173331518229 595.9162977142355" stroke-miterlimit="10" stroke-width="1.3612669416666667" stroke-dasharray=""/><path fill="white" stroke="black" paint-order="fill stroke markers" d=" M 285.2173331518229 720.0638427942354 L 301.5525364518229 720.0638427942354 L 301.5525364518229 782.1376153342353 L 285.2173331518229 782.1376153342353 L 285.2173331518229 720.0638427942354" stroke-miterlimit="10" stroke-width="1.3612669416666667" stroke-dasharray=""/><path fill="white" stroke="black" paint-order="fill stroke markers" d=" M 285.2173331518229 844.2113878742352 L 301.5525364518229 844.2113878742352 L 301.5525364518229 2064.4510743842347 L 285.2173331518229 2064.4510743842347 L 285.2173331518229 844.2113878742352" stroke-miterlimit="10" stroke-width="1.3612669416666667" stroke-dasharray=""/><path fill="white" stroke="black" paint-order="fill stroke markers" d=" M 293.3849348018229 994.4952582342353 L 309.7201381018229 994.4952582342353 L 309.7201381018229 1056.5690307742352 L 293.3849348018229 1056.5690307742352 L 293.3849348018229 994.4952582342353" stroke-miterlimit="10" stroke-width="1.3612669416666667" stroke-dasharray=""/><path fill="white" stroke="black" paint-order="fill stroke markers" d=" M 293.3849348018229 1162.7478522242352 L 309.7201381018229 1162.7478522242352 L 309.7201381018229 1224.8216247642351 L 293.3849348018229 1224.8216247642351 L 293.3849348018229 1162.7478522242352" stroke-miterlimit="10" stroke-width="1.3612669416666667" stroke-dasharray=""/><path fill="white" stroke="black" paint-order="fill stroke markers" d=" M 293.3849348018229 1331.0004462142351 L 309.7201381018229 1331.0004462142351 L 309.7201381018229 1517.221763834235 L 293.3849348018229 1517.221763834235 L 293.3849348018229 1331.0004462142351" stroke-miterlimit="10" stroke-width="1.3612669416666667" stroke-dasharray=""/><path fill="white" stroke="black" paint-order="fill stroke markers" d=" M 301.5525364518229 1393.074218754235 L 317.8877397518229 1393.074218754235 L 317.8877397518229 1455.147991294235 L 301.5525364518229 1455.147991294235 L 301.5525364518229 1393.074218754235" stroke-miterlimit="10" stroke-width="1.3612669416666667" stroke-dasharray=""/><path fill="white" stroke="black" paint-order="fill stroke markers" d=" M 293.3849348018229 1623.400585284235 L 309.7201381018229 1623.400585284235 L 309.7201381018229 1809.6219029042347 L 293.3849348018229 1809.6219029042347 L 293.3849348018229 1623.400585284235" stroke-miterlimit="10" stroke-width="1.3612669416666667" stroke-dasharray=""/><path fill="white" stroke="black" paint-order="fill stroke markers" d=" M 301.5525364518229 1685.4743578242349 L 317.8877397518229 1685.4743578242349 L 317.8877397518229 1747.5481303642348 L 301.5525364518229 1747.5481303642348 L 301.5525364518229 1685.4743578242349" stroke-miterlimit="10" stroke-width="1.3612669416666667" stroke-dasharray=""/><path fill="white" stroke="black" paint-order="fill stroke markers" d=" M 293.3849348018229 1915.8007243542347 L 309.7201381018229 1915.8007243542347 L 309.7201381018229 1977.8744968942347 L 293.3849348018229 1977.8744968942347 L 293.3849348018229 1915.8007243542347" stroke-miterlimit="10" stroke-width="1.3612669416666667" stroke-dasharray=""/><path fill="white" stroke="black" paint-order="fill stroke markers" d=" M 285.2173331518229 2151.027651874235 L 301.5525364518229 2151.027651874235 L 301.5525364518229 2213.1014244142348 L 285.2173331518229 2213.1014244142348 L 285.2173331518229 2151.027651874235" stroke-miterlimit="10" stroke-width="1.3612669416666667" stroke-dasharray=""/><path fill="white" stroke="black" paint-order="fill stroke markers" d=" M 285.2173331518229 2275.1751969542347 L 301.5525364518229 2275.1751969542347 L 301.5525364518229 2337.2489694942346 L 285.2173331518229 2337.2489694942346 L 285.2173331518229 2275.1751969542347" stroke-miterlimit="10" stroke-width="1.3612669416666667" stroke-dasharray=""/><g><g><rect fill="white" stroke="none" x="42.97360540526042" y="161.4734846205" width="40.748781815195315" height="21.23576429"/></g><text fill="black" stroke="none" font-family="sans-serif" font-size="11pt" font-style="normal" font-weight="normal" text-decoration="normal" x="45.42388590026042" y="176.17516759049997" text-anchor="start" dominant-baseline="alphabetic">press</text></g><g><path fill="none" stroke="black" paint-order="fill stroke markers" d=" M 23.64361483359375 182.70924891049998 L 100.32984390878906 182.70924891049998" stroke-miterlimit="10" stroke-width="1.3612669416666667" stroke-dasharray=""/><g transform="translate(103.0523777921224,182.70924891049998) translate(-103.0523777921224,-182.70924891049998)"><path fill="black" stroke="none" paint-order="stroke fill markers" d=" M 89.43970837545574 175.90291420216664 L 103.0523777921224 182.70924891049998 L 89.43970837545574 189.51558361883332 Z"/></g></g><g><g><rect fill="white" stroke="none" x="138.71757166378907" y="207.2120538605" width="119.00216926636719" height="21.23576429"/></g><text fill="black" stroke="none" font-family="sans-serif" font-size="11pt" font-style="normal" font-weight="normal" text-decoration="normal" x="141.16785215878906" y="221.91373683049997" text-anchor="start" dominant-baseline="alphabetic">onGroupSelected</text></g><g><path fill="none" stroke="black" paint-order="fill stroke markers" d=" M 119.38758109212239 228.44781815049998 L 274.3271976184896 228.44781815049998" stroke-miterlimit="10" stroke-width="1.3612669416666667" stroke-dasharray=""/><g transform="translate(277.0497315018229,228.44781815049998) translate(-277.0497315018229,-228.44781815049998)"><path fill="black" stroke="none" paint-order="stroke fill markers" d=" M 263.43706208515624 221.64148344216665 L 277.0497315018229 228.44781815049998 L 263.43706208515624 235.25415285883332 Z"/></g></g><g><g><rect fill="white" stroke="none" x="384.20168600314446" y="252.95062310049997" width="83.13962043824219" height="21.23576429"/></g><text fill="black" stroke="none" font-family="sans-serif" font-size="11pt" font-style="normal" font-weight="normal" text-decoration="normal" x="386.6519664981445" y="267.65230607049995" text-anchor="start" dominant-baseline="alphabetic">addChatList</text></g><g><path fill="none" stroke="black" paint-order="fill stroke markers" d=" M 293.3849348018229 262.6781503942357 L 555.4355237593749 295.0126230142439" stroke-miterlimit="10" stroke-width="1.3612669416666667" stroke-dasharray=""/><g transform="translate(558.1580576427082,295.34855699423565) rotate(7.034182255953597,0,0) translate(-558.1580576427082,-295.34855699423565)"><path fill="black" stroke="none" paint-order="stroke fill markers" d=" M 544.5453882260415 288.5422222859023 L 558.1580576427082 295.34855699423565 L 544.5453882260415 302.154891702569 Z"/><g transform="rotate(-7.034182255953597,0,0)"/></g></g><g><g><rect fill="white" stroke="none" x="601.9908531643749" y="363.9564108542356" width="60.312136307382815" height="21.23576429"/></g><text fill="black" stroke="none" font-family="sans-serif" font-size="11pt" font-style="normal" font-weight="normal" text-decoration="normal" x="604.4411336593749" y="378.6580938242356" text-anchor="start" dominant-baseline="alphabetic">addUser</text></g><g><path fill="none" stroke="black" paint-order="fill stroke markers" d=" M 582.6608625927082 385.19217514423565 L 648.0016757927082 385.19217514423565 L 648.0016757927082 401.52737844423564 L 585.3833964760415 401.52737844423564" stroke-miterlimit="10" stroke-width="1.3612669416666667" stroke-dasharray=""/><g transform="translate(582.6608625927082,401.52737844423564) translate(-582.6608625927082,-401.52737844423564)"><path fill="black" stroke="none" paint-order="stroke fill markers" d=" M 596.2735320093749 394.7210437359023 L 582.6608625927082 401.52737844423564 L 596.2735320093749 408.333713152569 Z"/></g></g><g><g><rect fill="white" stroke="none" x="601.9908531643749" y="426.0301833942356" width="4.90056099" height="21.23576429"/></g><text fill="black" stroke="none" font-family="sans-serif" font-size="11pt" font-style="normal" font-weight="normal" text-decoration="normal" x="604.4411336593749" y="440.7318663642356" text-anchor="start" dominant-baseline="alphabetic"></text></g><g><path fill="none" stroke="black" paint-order="fill stroke markers" d=" M 582.6608625927082 447.26594768423564 L 648.0016757927082 447.26594768423564 L 648.0016757927082 463.60115098423563 L 585.3833964760415 463.60115098423563" stroke-miterlimit="10" stroke-width="1.3612669416666667" stroke-dasharray="6.53408132"/><g transform="translate(582.6608625927082,463.60115098423563) translate(-582.6608625927082,-463.60115098423563)"><path fill="black" stroke="none" paint-order="stroke fill markers" d=" M 596.2735320093749 456.7948162759023 L 582.6608625927082 463.60115098423563 L 596.2735320093749 470.40748569256897 Z"/></g></g><g><g><rect fill="white" stroke="none" x="423.32121572726555" y="512.6067608842355" width="4.90056099" height="21.23576429"/></g><text fill="black" stroke="none" font-family="sans-serif" font-size="11pt" font-style="normal" font-weight="normal" text-decoration="normal" x="425.77149622226557" y="527.3084438542355" text-anchor="start" dominant-baseline="alphabetic"></text></g><g><path fill="none" stroke="black" paint-order="fill stroke markers" d=" M 558.1580576427082 533.8425251742356 L 296.1074686851562 533.8425251742356" stroke-miterlimit="10" stroke-width="1.3612669416666667" stroke-dasharray="6.53408132"/><g transform="translate(293.3849348018229,533.8425251742356) translate(-293.3849348018229,-533.8425251742356)"><path fill="black" stroke="none" paint-order="stroke fill markers" d=" M 306.9976042184896 527.0361904659022 L 293.3849348018229 533.8425251742356 L 306.9976042184896 540.6488598825689 Z"/></g></g><g><g><rect fill="white" stroke="none" x="320.88252702348956" y="558.3453301242355" width="66.83325447144531" height="21.23576429"/></g><text fill="black" stroke="none" font-family="sans-serif" font-size="11pt" font-style="normal" font-weight="normal" text-decoration="normal" x="323.3328075184896" y="573.0470130942355" text-anchor="start" dominant-baseline="alphabetic">onSubmit</text></g><g><path fill="none" stroke="black" paint-order="fill stroke markers" d=" M 293.3849348018229 579.5810944142355 L 366.8933496518229 579.5810944142355 L 366.8933496518229 595.9162977142355 L 304.2750703351562 595.9162977142355" stroke-miterlimit="10" stroke-width="1.3612669416666667" stroke-dasharray=""/><g transform="translate(301.5525364518229,595.9162977142355) translate(-301.5525364518229,-595.9162977142355)"><path fill="black" stroke="none" paint-order="stroke fill markers" d=" M 315.1652058684896 589.1099630059022 L 301.5525364518229 595.9162977142355 L 315.1652058684896 602.7226324225688 Z"/></g></g><g><g><rect fill="white" stroke="none" x="320.88252702348956" y="620.4191026642354" width="4.90056099" height="21.23576429"/></g><text fill="black" stroke="none" font-family="sans-serif" font-size="11pt" font-style="normal" font-weight="normal" text-decoration="normal" x="323.3328075184896" y="635.1207856342354" text-anchor="start" dominant-baseline="alphabetic"></text></g><g><path fill="none" stroke="black" paint-order="fill stroke markers" d=" M 301.5525364518229 641.6548669542354 L 366.8933496518229 641.6548669542354 L 366.8933496518229 657.9900702542354 L 304.2750703351562 657.9900702542354" stroke-miterlimit="10" stroke-width="1.3612669416666667" stroke-dasharray="6.53408132"/><g transform="translate(301.5525364518229,657.9900702542354) translate(-301.5525364518229,-657.9900702542354)"><path fill="black" stroke="none" paint-order="stroke fill markers" d=" M 315.1652058684896 651.1837355459021 L 301.5525364518229 657.9900702542354 L 315.1652058684896 664.7964049625688 Z"/></g></g><g><g><rect fill="white" stroke="none" x="320.88252702348956" y="682.4928752042354" width="95.35866035523438" height="21.23576429"/></g><text fill="black" stroke="none" font-family="sans-serif" font-size="11pt" font-style="normal" font-weight="normal" text-decoration="normal" x="323.3328075184896" y="697.1945581742353" text-anchor="start" dominant-baseline="alphabetic">onFileChosen</text></g><g><path fill="none" stroke="black" paint-order="fill stroke markers" d=" M 293.3849348018229 703.7286394942354 L 366.8933496518229 703.7286394942354 L 366.8933496518229 720.0638427942354 L 304.2750703351562 720.0638427942354" stroke-miterlimit="10" stroke-width="1.3612669416666667" stroke-dasharray=""/><g transform="translate(301.5525364518229,720.0638427942354) translate(-301.5525364518229,-720.0638427942354)"><path fill="black" stroke="none" paint-order="stroke fill markers" d=" M 315.1652058684896 713.257508085902 L 301.5525364518229 720.0638427942354 L 315.1652058684896 726.8701775025687 Z"/></g></g><g><g><rect fill="white" stroke="none" x="320.88252702348956" y="744.5666477442353" width="4.90056099" height="21.23576429"/></g><text fill="black" stroke="none" font-family="sans-serif" font-size="11pt" font-style="normal" font-weight="normal" text-decoration="normal" x="323.3328075184896" y="759.2683307142353" text-anchor="start" dominant-baseline="alphabetic"></text></g><g><path fill="none" stroke="black" paint-order="fill stroke markers" d=" M 301.5525364518229 765.8024120342353 L 366.8933496518229 765.8024120342353 L 366.8933496518229 782.1376153342353 L 304.2750703351562 782.1376153342353" stroke-miterlimit="10" stroke-width="1.3612669416666667" stroke-dasharray="6.53408132"/><g transform="translate(301.5525364518229,782.1376153342353) translate(-301.5525364518229,-782.1376153342353)"><path fill="black" stroke="none" paint-order="stroke fill markers" d=" M 315.1652058684896 775.331280625902 L 301.5525364518229 782.1376153342353 L 315.1652058684896 788.9439500425686 Z"/></g></g><g><g><rect fill="white" stroke="none" x="320.88252702348956" y="806.6404202842352" width="101.05659736695313" height="21.23576429"/></g><text fill="black" stroke="none" font-family="sans-serif" font-size="11pt" font-style="normal" font-weight="normal" text-decoration="normal" x="323.3328075184896" y="821.3421032542352" text-anchor="start" dominant-baseline="alphabetic">populateHTML</text></g><g><path fill="none" stroke="black" paint-order="fill stroke markers" d=" M 293.3849348018229 827.8761845742353 L 366.8933496518229 827.8761845742353 L 366.8933496518229 844.2113878742352 L 304.2750703351562 844.2113878742352" stroke-miterlimit="10" stroke-width="1.3612669416666667" stroke-dasharray=""/><g transform="translate(301.5525364518229,844.2113878742352) translate(-301.5525364518229,-844.2113878742352)"><path fill="black" stroke="none" paint-order="stroke fill markers" d=" M 315.1652058684896 837.4050531659019 L 301.5525364518229 844.2113878742352 L 315.1652058684896 851.0177225825686 Z"/></g></g><g><g><rect fill="white" stroke="none" x="329.05012867348955" y="956.9242906442353" width="144.256273880625" height="21.23576429"/></g><text fill="black" stroke="none" font-family="sans-serif" font-size="11pt" font-style="normal" font-weight="normal" text-decoration="normal" x="331.50040916848957" y="971.6259736142352" text-anchor="start" dominant-baseline="alphabetic">appendUserMessage</text></g><g><path fill="none" stroke="black" paint-order="fill stroke markers" d=" M 301.5525364518229 978.1600549342353 L 375.0609513018229 978.1600549342353 L 375.0609513018229 994.4952582342353 L 312.4426719851562 994.4952582342353" stroke-miterlimit="10" stroke-width="1.3612669416666667" stroke-dasharray=""/><g transform="translate(309.7201381018229,994.4952582342353) translate(-309.7201381018229,-994.4952582342353)"><path fill="black" stroke="none" paint-order="stroke fill markers" d=" M 323.3328075184896 987.6889235259019 L 309.7201381018229 994.4952582342353 L 323.3328075184896 1001.3015929425686 Z"/></g></g><g><g><rect fill="white" stroke="none" x="329.05012867348955" y="1018.9980631842352" width="4.90056099" height="21.23576429"/></g><text fill="black" stroke="none" font-family="sans-serif" font-size="11pt" font-style="normal" font-weight="normal" text-decoration="normal" x="331.50040916848957" y="1033.6997461542353" text-anchor="start" dominant-baseline="alphabetic"></text></g><g><path fill="none" stroke="black" paint-order="fill stroke markers" d=" M 309.7201381018229 1040.233827474235 L 375.0609513018229 1040.233827474235 L 375.0609513018229 1056.5690307742352 L 312.4426719851562 1056.5690307742352" stroke-miterlimit="10" stroke-width="1.3612669416666667" stroke-dasharray="6.53408132"/><g transform="translate(309.7201381018229,1056.5690307742352) translate(-309.7201381018229,-1056.5690307742352)"><path fill="black" stroke="none" paint-order="stroke fill markers" d=" M 323.3328075184896 1049.762696065902 L 309.7201381018229 1056.5690307742352 L 323.3328075184896 1063.3753654825684 Z"/></g></g><g><g><rect fill="white" stroke="none" x="329.05012867348955" y="1125.1768846342352" width="136.92628730835938" height="21.23576429"/></g><text fill="black" stroke="none" font-family="sans-serif" font-size="11pt" font-style="normal" font-weight="normal" text-decoration="normal" x="331.50040916848957" y="1139.8785676042353" text-anchor="start" dominant-baseline="alphabetic">appendFileMessage</text></g><g><path fill="none" stroke="black" paint-order="fill stroke markers" d=" M 301.5525364518229 1146.412648924235 L 375.0609513018229 1146.412648924235 L 375.0609513018229 1162.7478522242352 L 312.4426719851562 1162.7478522242352" stroke-miterlimit="10" stroke-width="1.3612669416666667" stroke-dasharray=""/><g transform="translate(309.7201381018229,1162.7478522242352) translate(-309.7201381018229,-1162.7478522242352)"><path fill="black" stroke="none" paint-order="stroke fill markers" d=" M 323.3328075184896 1155.941517515902 L 309.7201381018229 1162.7478522242352 L 323.3328075184896 1169.5541869325684 Z"/></g></g><g><g><rect fill="white" stroke="none" x="329.05012867348955" y="1187.2506571742351" width="4.90056099" height="21.23576429"/></g><text fill="black" stroke="none" font-family="sans-serif" font-size="11pt" font-style="normal" font-weight="normal" text-decoration="normal" x="331.50040916848957" y="1201.9523401442352" text-anchor="start" dominant-baseline="alphabetic"></text></g><g><path fill="none" stroke="black" paint-order="fill stroke markers" d=" M 309.7201381018229 1208.486421464235 L 375.0609513018229 1208.486421464235 L 375.0609513018229 1224.8216247642351 L 312.4426719851562 1224.8216247642351" stroke-miterlimit="10" stroke-width="1.3612669416666667" stroke-dasharray="6.53408132"/><g transform="translate(309.7201381018229,1224.8216247642351) translate(-309.7201381018229,-1224.8216247642351)"><path fill="black" stroke="none" paint-order="stroke fill markers" d=" M 323.3328075184896 1218.015290055902 L 309.7201381018229 1224.8216247642351 L 323.3328075184896 1231.6279594725684 Z"/></g></g><g><g><rect fill="white" stroke="none" x="329.05012867348955" y="1293.4294786242351" width="158.93055976929688" height="21.23576429"/></g><text fill="black" stroke="none" font-family="sans-serif" font-size="11pt" font-style="normal" font-weight="normal" text-decoration="normal" x="331.50040916848957" y="1308.1311615942352" text-anchor="start" dominant-baseline="alphabetic">appendPrivateMessage</text></g><g><path fill="none" stroke="black" paint-order="fill stroke markers" d=" M 301.5525364518229 1314.665242914235 L 375.0609513018229 1314.665242914235 L 375.0609513018229 1331.0004462142351 L 312.4426719851562 1331.0004462142351" stroke-miterlimit="10" stroke-width="1.3612669416666667" stroke-dasharray=""/><g transform="translate(309.7201381018229,1331.0004462142351) translate(-309.7201381018229,-1331.0004462142351)"><path fill="black" stroke="none" paint-order="stroke fill markers" d=" M 323.3328075184896 1324.194111505902 L 309.7201381018229 1331.0004462142351 L 323.3328075184896 1337.8067809225684 Z"/></g></g><g><g><rect fill="white" stroke="none" x="337.21773032348955" y="1355.503251164235" width="174.37796272339844" height="21.23576429"/></g><text fill="black" stroke="none" font-family="sans-serif" font-size="11pt" font-style="normal" font-weight="normal" text-decoration="normal" x="339.66801081848956" y="1370.2049341342351" text-anchor="start" dominant-baseline="alphabetic">addPrivateMessageHTML</text></g><g><path fill="none" stroke="black" paint-order="fill stroke markers" d=" M 309.7201381018229 1376.739015454235 L 383.2285529518229 1376.739015454235 L 383.2285529518229 1393.074218754235 L 320.6102736351562 1393.074218754235" stroke-miterlimit="10" stroke-width="1.3612669416666667" stroke-dasharray=""/><g transform="translate(317.8877397518229,1393.074218754235) translate(-317.8877397518229,-1393.074218754235)"><path fill="black" stroke="none" paint-order="stroke fill markers" d=" M 331.50040916848957 1386.2678840459018 L 317.8877397518229 1393.074218754235 L 331.50040916848957 1399.8805534625683 Z"/></g></g><g><g><rect fill="white" stroke="none" x="337.21773032348955" y="1417.577023704235" width="4.90056099" height="21.23576429"/></g><text fill="black" stroke="none" font-family="sans-serif" font-size="11pt" font-style="normal" font-weight="normal" text-decoration="normal" x="339.66801081848956" y="1432.278706674235" text-anchor="start" dominant-baseline="alphabetic"></text></g><g><path fill="none" stroke="black" paint-order="fill stroke markers" d=" M 317.8877397518229 1438.812787994235 L 383.2285529518229 1438.812787994235 L 383.2285529518229 1455.147991294235 L 320.6102736351562 1455.147991294235" stroke-miterlimit="10" stroke-width="1.3612669416666667" stroke-dasharray="6.53408132"/><g transform="translate(317.8877397518229,1455.147991294235) translate(-317.8877397518229,-1455.147991294235)"><path fill="black" stroke="none" paint-order="stroke fill markers" d=" M 331.50040916848957 1448.3416565859018 L 317.8877397518229 1455.147991294235 L 331.50040916848957 1461.9543260025682 Z"/></g></g><g><g><rect fill="white" stroke="none" x="329.05012867348955" y="1479.650796244235" width="4.90056099" height="21.23576429"/></g><text fill="black" stroke="none" font-family="sans-serif" font-size="11pt" font-style="normal" font-weight="normal" text-decoration="normal" x="331.50040916848957" y="1494.352479214235" text-anchor="start" dominant-baseline="alphabetic"></text></g><g><path fill="none" stroke="black" paint-order="fill stroke markers" d=" M 309.7201381018229 1500.8865605342348 L 375.0609513018229 1500.8865605342348 L 375.0609513018229 1517.221763834235 L 312.4426719851562 1517.221763834235" stroke-miterlimit="10" stroke-width="1.3612669416666667" stroke-dasharray="6.53408132"/><g transform="translate(309.7201381018229,1517.221763834235) translate(-309.7201381018229,-1517.221763834235)"><path fill="black" stroke="none" paint-order="stroke fill markers" d=" M 323.3328075184896 1510.4154291259017 L 309.7201381018229 1517.221763834235 L 323.3328075184896 1524.0280985425682 Z"/></g></g><g><g><rect fill="white" stroke="none" x="329.05012867348955" y="1585.829617694235" width="182.55259956421875" height="21.23576429"/></g><text fill="black" stroke="none" font-family="sans-serif" font-size="11pt" font-style="normal" font-weight="normal" text-decoration="normal" x="331.50040916848957" y="1600.531300664235" text-anchor="start" dominant-baseline="alphabetic">appendPrivateFileMessage</text></g><g><path fill="none" stroke="black" paint-order="fill stroke markers" d=" M 301.5525364518229 1607.0653819842348 L 375.0609513018229 1607.0653819842348 L 375.0609513018229 1623.400585284235 L 312.4426719851562 1623.400585284235" stroke-miterlimit="10" stroke-width="1.3612669416666667" stroke-dasharray=""/><g transform="translate(309.7201381018229,1623.400585284235) translate(-309.7201381018229,-1623.400585284235)"><path fill="black" stroke="none" paint-order="stroke fill markers" d=" M 323.3328075184896 1616.5942505759017 L 309.7201381018229 1623.400585284235 L 323.3328075184896 1630.2069199925681 Z"/></g></g><g><g><rect fill="white" stroke="none" x="337.21773032348955" y="1647.9033902342348" width="174.37796272339844" height="21.23576429"/></g><text fill="black" stroke="none" font-family="sans-serif" font-size="11pt" font-style="normal" font-weight="normal" text-decoration="normal" x="339.66801081848956" y="1662.605073204235" text-anchor="start" dominant-baseline="alphabetic">addPrivateMessageHTML</text></g><g><path fill="none" stroke="black" paint-order="fill stroke markers" d=" M 309.7201381018229 1669.1391545242348 L 383.2285529518229 1669.1391545242348 L 383.2285529518229 1685.4743578242349 L 320.6102736351562 1685.4743578242349" stroke-miterlimit="10" stroke-width="1.3612669416666667" stroke-dasharray=""/><g transform="translate(317.8877397518229,1685.4743578242349) translate(-317.8877397518229,-1685.4743578242349)"><path fill="black" stroke="none" paint-order="stroke fill markers" d=" M 331.50040916848957 1678.6680231159016 L 317.8877397518229 1685.4743578242349 L 331.50040916848957 1692.280692532568 Z"/></g></g><g><g><rect fill="white" stroke="none" x="337.21773032348955" y="1709.9771627742348" width="4.90056099" height="21.23576429"/></g><text fill="black" stroke="none" font-family="sans-serif" font-size="11pt" font-style="normal" font-weight="normal" text-decoration="normal" x="339.66801081848956" y="1724.6788457442349" text-anchor="start" dominant-baseline="alphabetic"></text></g><g><path fill="none" stroke="black" paint-order="fill stroke markers" d=" M 317.8877397518229 1731.2129270642347 L 383.2285529518229 1731.2129270642347 L 383.2285529518229 1747.5481303642348 L 320.6102736351562 1747.5481303642348" stroke-miterlimit="10" stroke-width="1.3612669416666667" stroke-dasharray="6.53408132"/><g transform="translate(317.8877397518229,1747.5481303642348) translate(-317.8877397518229,-1747.5481303642348)"><path fill="black" stroke="none" paint-order="stroke fill markers" d=" M 331.50040916848957 1740.7417956559016 L 317.8877397518229 1747.5481303642348 L 331.50040916848957 1754.354465072568 Z"/></g></g><g><g><rect fill="white" stroke="none" x="329.05012867348955" y="1772.0509353142347" width="4.90056099" height="21.23576429"/></g><text fill="black" stroke="none" font-family="sans-serif" font-size="11pt" font-style="normal" font-weight="normal" text-decoration="normal" x="331.50040916848957" y="1786.7526182842348" text-anchor="start" dominant-baseline="alphabetic"></text></g><g><path fill="none" stroke="black" paint-order="fill stroke markers" d=" M 309.7201381018229 1793.2866996042346 L 375.0609513018229 1793.2866996042346 L 375.0609513018229 1809.6219029042347 L 312.4426719851562 1809.6219029042347" stroke-miterlimit="10" stroke-width="1.3612669416666667" stroke-dasharray="6.53408132"/><g transform="translate(309.7201381018229,1809.6219029042347) translate(-309.7201381018229,-1809.6219029042347)"><path fill="black" stroke="none" paint-order="stroke fill markers" d=" M 323.3328075184896 1802.8155681959015 L 309.7201381018229 1809.6219029042347 L 323.3328075184896 1816.428237612568 Z"/></g></g><g><g><rect fill="white" stroke="none" x="329.05012867348955" y="1878.2297567642347" width="156.48245491089844" height="21.23576429"/></g><text fill="black" stroke="none" font-family="sans-serif" font-size="11pt" font-style="normal" font-weight="normal" text-decoration="normal" x="331.50040916848957" y="1892.9314397342348" text-anchor="start" dominant-baseline="alphabetic">appendServerMessage</text></g><g><path fill="none" stroke="black" paint-order="fill stroke markers" d=" M 301.5525364518229 1899.4655210542346 L 375.0609513018229 1899.4655210542346 L 375.0609513018229 1915.8007243542347 L 312.4426719851562 1915.8007243542347" stroke-miterlimit="10" stroke-width="1.3612669416666667" stroke-dasharray=""/><g transform="translate(309.7201381018229,1915.8007243542347) translate(-309.7201381018229,-1915.8007243542347)"><path fill="black" stroke="none" paint-order="stroke fill markers" d=" M 323.3328075184896 1908.9943896459015 L 309.7201381018229 1915.8007243542347 L 323.3328075184896 1922.607059062568 Z"/></g></g><g><g><rect fill="white" stroke="none" x="329.05012867348955" y="1940.3035293042346" width="4.90056099" height="21.23576429"/></g><text fill="black" stroke="none" font-family="sans-serif" font-size="11pt" font-style="normal" font-weight="normal" text-decoration="normal" x="331.50040916848957" y="1955.0052122742347" text-anchor="start" dominant-baseline="alphabetic"></text></g><g><path fill="none" stroke="black" paint-order="fill stroke markers" d=" M 309.7201381018229 1961.5392935942346 L 375.0609513018229 1961.5392935942346 L 375.0609513018229 1977.8744968942347 L 312.4426719851562 1977.8744968942347" stroke-miterlimit="10" stroke-width="1.3612669416666667" stroke-dasharray="6.53408132"/><g transform="translate(309.7201381018229,1977.8744968942347) translate(-309.7201381018229,-1977.8744968942347)"><path fill="black" stroke="none" paint-order="stroke fill markers" d=" M 323.3328075184896 1971.0681621859014 L 309.7201381018229 1977.8744968942347 L 323.3328075184896 1984.6808316025679 Z"/></g></g><g><g><rect fill="white" stroke="none" x="320.88252702348956" y="2026.8801067942347" width="4.90056099" height="21.23576429"/></g><text fill="black" stroke="none" font-family="sans-serif" font-size="11pt" font-style="normal" font-weight="normal" text-decoration="normal" x="323.3328075184896" y="2041.5817897642348" text-anchor="start" dominant-baseline="alphabetic"></text></g><g><path fill="none" stroke="black" paint-order="fill stroke markers" d=" M 301.5525364518229 2048.1158710842346 L 366.8933496518229 2048.1158710842346 L 366.8933496518229 2064.4510743842347 L 304.2750703351562 2064.4510743842347" stroke-miterlimit="10" stroke-width="1.3612669416666667" stroke-dasharray="6.53408132"/><g transform="translate(301.5525364518229,2064.4510743842347) translate(-301.5525364518229,-2064.4510743842347)"><path fill="black" stroke="none" paint-order="stroke fill markers" d=" M 315.1652058684896 2057.6447396759013 L 301.5525364518229 2064.4510743842347 L 315.1652058684896 2071.257409092568 Z"/></g></g><g><g><rect fill="white" stroke="none" x="320.88252702348956" y="2113.456684284235" width="105.11526741089844" height="21.23576429"/></g><text fill="black" stroke="none" font-family="sans-serif" font-size="11pt" font-style="normal" font-weight="normal" text-decoration="normal" x="323.3328075184896" y="2128.158367254235" text-anchor="start" dominant-baseline="alphabetic">showUserInvite</text></g><g><path fill="none" stroke="black" paint-order="fill stroke markers" d=" M 293.3849348018229 2134.6924485742347 L 366.8933496518229 2134.6924485742347 L 366.8933496518229 2151.027651874235 L 304.2750703351562 2151.027651874235" stroke-miterlimit="10" stroke-width="1.3612669416666667" stroke-dasharray=""/><g transform="translate(301.5525364518229,2151.027651874235) translate(-301.5525364518229,-2151.027651874235)"><path fill="black" stroke="none" paint-order="stroke fill markers" d=" M 315.1652058684896 2144.2213171659014 L 301.5525364518229 2151.027651874235 L 315.1652058684896 2157.8339865825683 Z"/></g></g><g><g><rect fill="white" stroke="none" x="320.88252702348956" y="2175.530456824235" width="4.90056099" height="21.23576429"/></g><text fill="black" stroke="none" font-family="sans-serif" font-size="11pt" font-style="normal" font-weight="normal" text-decoration="normal" x="323.3328075184896" y="2190.232139794235" text-anchor="start" dominant-baseline="alphabetic"></text></g><g><path fill="none" stroke="black" paint-order="fill stroke markers" d=" M 301.5525364518229 2196.7662211142347 L 366.8933496518229 2196.7662211142347 L 366.8933496518229 2213.1014244142348 L 304.2750703351562 2213.1014244142348" stroke-miterlimit="10" stroke-width="1.3612669416666667" stroke-dasharray="6.53408132"/><g transform="translate(301.5525364518229,2213.1014244142348) translate(-301.5525364518229,-2213.1014244142348)"><path fill="black" stroke="none" paint-order="stroke fill markers" d=" M 315.1652058684896 2206.2950897059013 L 301.5525364518229 2213.1014244142348 L 315.1652058684896 2219.907759122568 Z"/></g></g><g><g><rect fill="white" stroke="none" x="320.88252702348956" y="2237.604229364235" width="121.42163337769531" height="21.23576429"/></g><text fill="black" stroke="none" font-family="sans-serif" font-size="11pt" font-style="normal" font-weight="normal" text-decoration="normal" x="323.3328075184896" y="2252.305912334235" text-anchor="start" dominant-baseline="alphabetic">showMessageBar</text></g><g><path fill="none" stroke="black" paint-order="fill stroke markers" d=" M 293.3849348018229 2258.8399936542346 L 366.8933496518229 2258.8399936542346 L 366.8933496518229 2275.1751969542347 L 304.2750703351562 2275.1751969542347" stroke-miterlimit="10" stroke-width="1.3612669416666667" stroke-dasharray=""/><g transform="translate(301.5525364518229,2275.1751969542347) translate(-301.5525364518229,-2275.1751969542347)"><path fill="black" stroke="none" paint-order="stroke fill markers" d=" M 315.1652058684896 2268.3688622459013 L 301.5525364518229 2275.1751969542347 L 315.1652058684896 2281.981531662568 Z"/></g></g><g><g><rect fill="white" stroke="none" x="320.88252702348956" y="2299.678001904235" width="4.90056099" height="21.23576429"/></g><text fill="black" stroke="none" font-family="sans-serif" font-size="11pt" font-style="normal" font-weight="normal" text-decoration="normal" x="323.3328075184896" y="2314.379684874235" text-anchor="start" dominant-baseline="alphabetic"></text></g><g><path fill="none" stroke="black" paint-order="fill stroke markers" d=" M 301.5525364518229 2320.9137661942345 L 366.8933496518229 2320.9137661942345 L 366.8933496518229 2337.2489694942346 L 304.2750703351562 2337.2489694942346" stroke-miterlimit="10" stroke-width="1.3612669416666667" stroke-dasharray="6.53408132"/><g transform="translate(301.5525364518229,2337.2489694942346) translate(-301.5525364518229,-2337.2489694942346)"><path fill="black" stroke="none" paint-order="stroke fill markers" d=" M 315.1652058684896 2330.442634785901 L 301.5525364518229 2337.2489694942346 L 315.1652058684896 2344.055304202568 Z"/></g></g><g><g><rect fill="white" stroke="none" x="195.76837580197267" y="2361.7517744442343" width="4.90056099" height="21.23576429"/></g><text fill="black" stroke="none" font-family="sans-serif" font-size="11pt" font-style="normal" font-weight="normal" text-decoration="normal" x="198.21865629697265" y="2376.4534574142344" text-anchor="start" dominant-baseline="alphabetic"></text></g><g><path fill="none" stroke="black" paint-order="fill stroke markers" d=" M 277.0497315018229 2382.9875387342345 L 122.11011497545573 2382.9875387342345" stroke-miterlimit="10" stroke-width="1.3612669416666667" stroke-dasharray="6.53408132"/><g transform="translate(119.38758109212239,2382.9875387342345) translate(-119.38758109212239,-2382.9875387342345)"><path fill="black" stroke="none" paint-order="stroke fill markers" d=" M 133.00025050878907 2376.181204025901 L 119.38758109212239 2382.9875387342345 L 133.00025050878907 2389.793873442568 Z"/></g></g><g><g><rect fill="white" stroke="none" x="60.89771581785808" y="2407.490343684234" width="4.90056099" height="21.23576429"/></g><text fill="black" stroke="none" font-family="sans-serif" font-size="11pt" font-style="normal" font-weight="normal" text-decoration="normal" x="63.34799631285808" y="2422.1920266542343" text-anchor="start" dominant-baseline="alphabetic"></text></g><g><path fill="none" stroke="black" paint-order="fill stroke markers" d=" M 103.0523777921224 2428.7261079742343 L 26.366148716927086 2428.7261079742343" stroke-miterlimit="10" stroke-width="1.3612669416666667" stroke-dasharray="6.53408132"/><g transform="translate(23.64361483359375,2428.7261079742343) translate(-23.64361483359375,-2428.7261079742343)"><path fill="black" stroke="none" paint-order="stroke fill markers" d=" M 37.25628425026042 2421.919773265901 L 23.64361483359375 2428.7261079742343 L 37.25628425026042 2435.5324426825678 Z"/></g></g><g><g/><path fill="none" stroke="black" paint-order="fill stroke markers" d=" M 509.1524477427082 319.85136194423563 L 668.0203106267577 319.85136194423563 L 668.0203106267577 488.1039559342356 L 509.1524477427082 488.1039559342356 L 509.1524477427082 319.85136194423563 Z" stroke-miterlimit="10" stroke-width="2.3336004714285714" stroke-dasharray=""/><path fill="white" stroke="black" paint-order="fill stroke markers" d=" M 509.1524477427082 319.85136194423563 L 509.1524477427082 339.45360590423564 L 566.5772488739582 339.45360590423564 L 576.3783708539581 329.65248392423564 L 576.3783708539581 319.85136194423563 L 509.1524477427082 319.85136194423563" stroke-miterlimit="10" stroke-width="2.3336004714285714" stroke-dasharray=""/><text fill="black" stroke="none" font-family="sans-serif" font-size="8.8pt" font-style="normal" font-weight="bold" text-decoration="normal" x="525.4876510427082" y="332.91952458423566" text-anchor="start" dominant-baseline="alphabetic">loop</text></g><g><g/><path fill="none" stroke="black" paint-order="fill stroke markers" d=" M 211.7089183018229 868.7141928242353 L 541.8228543427083 868.7141928242353 L 541.8228543427083 2088.953879334235 L 211.7089183018229 2088.953879334235 L 211.7089183018229 868.7141928242353 Z" stroke-miterlimit="10" stroke-width="2.3336004714285714" stroke-dasharray=""/><path fill="white" stroke="black" paint-order="fill stroke markers" d=" M 211.7089183018229 868.7141928242353 L 211.7089183018229 888.3164367842353 L 269.1337194330729 888.3164367842353 L 278.9348414130729 878.5153148042352 L 278.9348414130729 868.7141928242353 L 211.7089183018229 868.7141928242353" stroke-miterlimit="10" stroke-width="2.3336004714285714" stroke-dasharray=""/><text fill="black" stroke="none" font-family="sans-serif" font-size="8.8pt" font-style="normal" font-weight="bold" text-decoration="normal" x="228.0441216018229" y="881.7823554642353" text-anchor="start" dominant-baseline="alphabetic">loop</text></g><g><g/><path fill="none" stroke="black" paint-order="fill stroke markers" d=" M 228.04412160182292 912.8192417342353 L 525.4876510427083 912.8192417342353 L 525.4876510427083 2002.3773018442344 L 228.04412160182292 2002.3773018442344 L 228.04412160182292 912.8192417342353 Z" stroke-miterlimit="10" stroke-width="2.3336004714285714" stroke-dasharray=""/><path fill="white" stroke="black" paint-order="fill stroke markers" d=" M 228.04412160182292 912.8192417342353 L 228.04412160182292 932.4214856942353 L 274.40332519889324 932.4214856942353 L 284.20444717889325 922.6203637142353 L 284.20444717889325 912.8192417342353 L 228.04412160182292 912.8192417342353" stroke-miterlimit="10" stroke-width="2.3336004714285714" stroke-dasharray=""/><text fill="black" stroke="none" font-family="sans-serif" font-size="8.8pt" font-style="normal" font-weight="bold" text-decoration="normal" x="244.3793249018229" y="925.8874043742353" text-anchor="start" dominant-baseline="alphabetic">alt</text><text fill="black" stroke="none" font-family="sans-serif" font-size="8.8pt" font-style="normal" font-weight="bold" text-decoration="normal" x="300.53965047889324" y="925.8874043742353" text-anchor="start" dominant-baseline="alphabetic">[case user message]</text><g><path fill="none" stroke="black" paint-order="fill stroke markers" d=" M 228.04412160182292 1081.0718357242354 L 525.4876510427083 1081.0718357242354" stroke-miterlimit="10" stroke-width="2.3336004714285714" stroke-dasharray="4.083800825"/></g><g/><text fill="black" stroke="none" font-family="sans-serif" font-size="8.8pt" font-style="normal" font-weight="bold" text-decoration="normal" x="300.53965047889324" y="1094.1399983642352" text-anchor="start" dominant-baseline="alphabetic">[case file message]</text><g><path fill="none" stroke="black" paint-order="fill stroke markers" d=" M 228.04412160182292 1249.3244297142353 L 525.4876510427083 1249.3244297142353" stroke-miterlimit="10" stroke-width="2.3336004714285714" stroke-dasharray="4.083800825"/></g><g/><text fill="black" stroke="none" font-family="sans-serif" font-size="8.8pt" font-style="normal" font-weight="bold" text-decoration="normal" x="300.53965047889324" y="1262.3925923542351" text-anchor="start" dominant-baseline="alphabetic">[case private user message]</text><g><path fill="none" stroke="black" paint-order="fill stroke markers" d=" M 228.04412160182292 1541.724568784235 L 525.4876510427083 1541.724568784235" stroke-miterlimit="10" stroke-width="2.3336004714285714" stroke-dasharray="4.083800825"/></g><g/><text fill="black" stroke="none" font-family="sans-serif" font-size="8.8pt" font-style="normal" font-weight="bold" text-decoration="normal" x="300.53965047889324" y="1554.792731424235" text-anchor="start" dominant-baseline="alphabetic">[case private file message]</text><g><path fill="none" stroke="black" paint-order="fill stroke markers" d=" M 228.04412160182292 1834.1247078542349 L 525.4876510427083 1834.1247078542349" stroke-miterlimit="10" stroke-width="2.3336004714285714" stroke-dasharray="4.083800825"/></g><g/><text fill="black" stroke="none" font-family="sans-serif" font-size="8.8pt" font-style="normal" font-weight="bold" text-decoration="normal" x="300.53965047889324" y="1847.1928704942347" text-anchor="start" dominant-baseline="alphabetic">[case server message]</text></g><g/><g/><g/><g/></g><g/><g/><g/><g/></g></svg>