<svg version="1.1" xmlns="http://www.w3.org/2000/svg" xmlns:xlink="http://www.w3.org/1999/xlink" width="1332" height="1983"><defs/><g><g/><g/><g/><g/><g/><g/><g/><g/><g/><g/><g/><g/><g/><g/><g/><g/><g/><g/><g/><g/><g/><g/><g/><g/><g/><g/><g/><g/><g/><g/><g/><g><rect fill="white" stroke="none" x="0" y="0" width="1332" height="1983"/></g><g><text fill="black" stroke="none" font-family="sans-serif" font-size="16.5pt" font-style="normal" font-weight="normal" text-decoration="normal" x="556.8515911006764" y="24.50280495" text-anchor="start" dominant-baseline="alphabetic">Send private message</text></g><g/><g><path fill="none" stroke="black" paint-order="fill stroke markers" d=" M 23.64361483359375 128.80307802049998 L 23.64361483359375 1983.2076537932462" stroke-miterlimit="10" stroke-width="1.3612669416666667" stroke-dasharray="12.565541,5.445067766666667"/><path fill="none" stroke="black" paint-order="fill stroke markers" d=" M 180.51848713255205 128.80307802049998 L 180.51848713255205 1983.2076537932462" stroke-miterlimit="10" stroke-width="1.3612669416666667" stroke-dasharray="12.565541,5.445067766666667"/><path fill="none" stroke="black" paint-order="fill stroke markers" d=" M 300.3576077776341 128.80307802049998 L 300.3576077776341 1983.2076537932462" stroke-miterlimit="10" stroke-width="1.3612669416666667" stroke-dasharray="12.565541,5.445067766666667"/><path fill="none" stroke="black" paint-order="fill stroke markers" d=" M 422.18604669241273 128.80307802049998 L 422.18604669241273 1983.2076537932462" stroke-miterlimit="10" stroke-width="1.3612669416666667" stroke-dasharray="12.565541,5.445067766666667"/><path fill="none" stroke="black" paint-order="fill stroke markers" d=" M 662.4493293924778 499.1221368315 L 662.4493293924778 1983.2076537932462" stroke-miterlimit="10" stroke-width="1.3612669416666667" stroke-dasharray="12.565541,5.445067766666667"/><path fill="none" stroke="black" paint-order="fill stroke markers" d=" M 796.5296686044544 756.7282928724999 L 796.5296686044544 1983.2076537932462" stroke-miterlimit="10" stroke-width="1.3612669416666667" stroke-dasharray="12.565541,5.445067766666667"/><path fill="none" stroke="black" paint-order="fill stroke markers" d=" M 944.8655391274661 128.80307802049998 L 944.8655391274661 1983.2076537932462" stroke-miterlimit="10" stroke-width="1.3612669416666667" stroke-dasharray="12.565541,5.445067766666667"/><path fill="none" stroke="black" paint-order="fill stroke markers" d=" M 1120.4955914742084 128.80307802049998 L 1120.4955914742084 1983.2076537932462" stroke-miterlimit="10" stroke-width="1.3612669416666667" stroke-dasharray="12.565541,5.445067766666667"/><path fill="none" stroke="black" paint-order="fill stroke markers" d=" M 1279.4220000221223 128.80307802049998 L 1279.4220000221223 1983.2076537932462" stroke-miterlimit="10" stroke-width="1.3612669416666667" stroke-dasharray="12.565541,5.445067766666667"/></g><g><g><path fill="white" stroke="black" paint-order="fill stroke markers" d=" M 32.95468071459375 59.70516806150002 A 9.311065881 9.311065881 0 1 1 32.9546760590612 59.69585699717086 M 23.64361483359375 69.01623394250002 L 23.64361483359375 88.94518196850002 M 11.882268457593753 76.20372339450002 L 35.40496120959375 76.20372339450002 M 23.64361483359375 88.94518196850002 L 11.882268457593753 107.56731373050002 M 23.64361483359375 88.94518196850002 L 35.40496120959375 107.56731373050002" stroke-miterlimit="10" stroke-width="2.7769845610000004" stroke-dasharray=""/></g><g><g/><text fill="black" stroke="none" font-family="sans-serif" font-size="11pt" font-style="normal" font-weight="normal" text-decoration="normal" x="8.167601650000002" y="123.90251703050001" text-anchor="start" dominant-baseline="alphabetic">User</text></g><path fill="none" stroke="none"/><g><path fill="white" stroke="black" paint-order="fill stroke markers" d=" M 133.04891905449347 84.69802911050002 L 227.98805521061067 84.69802911050002 L 227.98805521061067 128.8030780205 L 133.04891905449347 128.8030780205 L 133.04891905449347 84.69802911050002 Z" stroke-miterlimit="10" stroke-width="2.613632528" stroke-dasharray=""/></g><g><g/><text fill="black" stroke="none" font-family="sans-serif" font-size="11pt" font-style="normal" font-weight="normal" text-decoration="normal" x="150.77261463499346" y="112.46787472049999" text-anchor="start" dominant-baseline="alphabetic">TextInput</text></g><path fill="none" stroke="none"/><g><path fill="white" stroke="black" paint-order="fill stroke markers" d=" M 244.32325851061063 84.69802911050002 L 356.3919570446575 84.69802911050002 L 356.3919570446575 128.8030780205 L 244.32325851061063 128.8030780205 L 244.32325851061063 84.69802911050002 Z" stroke-miterlimit="10" stroke-width="2.613632528" stroke-dasharray=""/></g><g><g/><text fill="black" stroke="none" font-family="sans-serif" font-size="11pt" font-style="normal" font-weight="normal" text-decoration="normal" x="262.04695409111065" y="112.46787472049999" text-anchor="start" dominant-baseline="alphabetic">SendButton</text></g><path fill="none" stroke="none"/><g><path fill="white" stroke="black" paint-order="fill stroke markers" d=" M 383.2776816172838 84.69802911050002 L 461.0944117675416 84.69802911050002 L 461.0944117675416 128.8030780205 L 383.2776816172838 128.8030780205 L 383.2776816172838 84.69802911050002 Z" stroke-miterlimit="10" stroke-width="2.613632528" stroke-dasharray=""/></g><g><g/><text fill="black" stroke="none" font-family="sans-serif" font-size="11pt" font-style="normal" font-weight="normal" text-decoration="normal" x="401.0013771977838" y="112.46787472049999" text-anchor="start" dominant-baseline="alphabetic">chat.js</text></g><path fill="none" stroke="none"/><g><path fill="white" stroke="black" paint-order="fill stroke markers" d=" M 883.1440179244075 84.69802911050002 L 1006.5870603305248 84.69802911050002 L 1006.5870603305248 128.8030780205 L 883.1440179244075 128.8030780205 L 883.1440179244075 84.69802911050002 Z" stroke-miterlimit="10" stroke-width="2.613632528" stroke-dasharray=""/></g><g><g/><text fill="black" stroke="none" font-family="sans-serif" font-size="11pt" font-style="normal" font-weight="normal" text-decoration="normal" x="900.8677135049076" y="112.46787472049999" text-anchor="start" dominant-baseline="alphabetic">ServerSocket</text></g><path fill="none" stroke="none"/><g><path fill="white" stroke="black" paint-order="fill stroke markers" d=" M 1022.9222636305248 84.69802911050002 L 1218.0689193178919 84.69802911050002 L 1218.0689193178919 128.8030780205 L 1022.9222636305248 128.8030780205 L 1022.9222636305248 84.69802911050002 Z" stroke-miterlimit="10" stroke-width="2.613632528" stroke-dasharray=""/></g><g><g/><text fill="black" stroke="none" font-family="sans-serif" font-size="11pt" font-style="normal" font-weight="normal" text-decoration="normal" x="1040.6459592110248" y="112.46787472049999" text-anchor="start" dominant-baseline="alphabetic">PrivateMessageProvider</text></g><path fill="none" stroke="none"/><g><path fill="white" stroke="black" paint-order="fill stroke markers" d=" M 1234.404122617892 84.69802911050002 L 1324.439877426353 84.69802911050002 L 1324.439877426353 128.8030780205 L 1234.404122617892 128.8030780205 L 1234.404122617892 84.69802911050002 Z" stroke-miterlimit="10" stroke-width="2.613632528" stroke-dasharray=""/></g><g><g/><text fill="black" stroke="none" font-family="sans-serif" font-size="11pt" font-style="normal" font-weight="normal" text-decoration="normal" x="1252.1278181983919" y="112.46787472049999" text-anchor="start" dominant-baseline="alphabetic">Provider</text></g></g><g><path fill="white" stroke="black" paint-order="fill stroke markers" d=" M 292.1900061276341 228.44781815049998 L 308.5252094276341 228.44781815049998 L 308.5252094276341 1287.5531279156096 L 292.1900061276341 1287.5531279156096 L 292.1900061276341 228.44781815049998" stroke-miterlimit="10" stroke-width="1.3612669416666667" stroke-dasharray=""/><path fill="white" stroke="black" paint-order="fill stroke markers" d=" M 414.01844504241274 274.1863873905 L 430.3536483424127 274.1863873905 L 430.3536483424127 1241.8145586756095 L 414.01844504241274 1241.8145586756095 L 414.01844504241274 274.1863873905" stroke-miterlimit="10" stroke-width="1.3612669416666667" stroke-dasharray=""/><path fill="white" stroke="black" paint-order="fill stroke markers" d=" M 172.35088548255206 319.9249566305 L 188.68608878255205 319.9249566305 L 188.68608878255205 365.6635258705 L 172.35088548255206 365.6635258705 L 172.35088548255206 319.9249566305" stroke-miterlimit="10" stroke-width="1.3612669416666667" stroke-dasharray=""/><path fill="white" stroke="black" paint-order="fill stroke markers" d=" M 422.18604669241273 427.7372984105 L 438.5212499924127 427.7372984105 L 438.5212499924127 1196.0759894356095 L 422.18604669241273 1196.0759894356095 L 422.18604669241273 427.7372984105" stroke-miterlimit="10" stroke-width="1.3612669416666667" stroke-dasharray=""/><path fill="white" stroke="black" paint-order="fill stroke markers" d=" M 430.3536483424127 561.1959093715 L 446.6888516424127 561.1959093715 L 446.6888516424127 1134.0022168956095 L 430.3536483424127 1134.0022168956095 L 430.3536483424127 561.1959093715" stroke-miterlimit="10" stroke-width="1.3612669416666667" stroke-dasharray=""/><path fill="white" stroke="black" paint-order="fill stroke markers" d=" M 438.5212499924127 623.2696819114999 L 454.8564532924127 623.2696819114999 L 454.8564532924127 685.3434544514998 L 438.5212499924127 685.3434544514998 L 438.5212499924127 623.2696819114999" stroke-miterlimit="10" stroke-width="1.3612669416666667" stroke-dasharray=""/><path fill="white" stroke="black" paint-order="fill stroke markers" d=" M 438.5212499924127 818.8020654124998 L 454.8564532924127 818.8020654124998 L 454.8564532924127 1005.0233830324996 L 438.5212499924127 1005.0233830324996 L 438.5212499924127 818.8020654124998" stroke-miterlimit="10" stroke-width="1.3612669416666667" stroke-dasharray=""/><path fill="white" stroke="black" paint-order="fill stroke markers" d=" M 446.6888516424127 880.8758379524998 L 463.0240549424127 880.8758379524998 L 463.0240549424127 942.9496104924997 L 446.6888516424127 942.9496104924997 L 446.6888516424127 880.8758379524998" stroke-miterlimit="10" stroke-width="1.3612669416666667" stroke-dasharray=""/><path fill="white" stroke="black" paint-order="fill stroke markers" d=" M 936.6979374774661 1071.9284443556096 L 953.0331407774662 1071.9284443556096 L 953.0331407774662 1458.8476278632468 L 936.6979374774661 1458.8476278632468 L 936.6979374774661 1071.9284443556096" stroke-miterlimit="10" stroke-width="1.3612669416666667" stroke-dasharray=""/><path fill="white" stroke="black" paint-order="fill stroke markers" d=" M 1112.3279898242083 1333.2916971556097 L 1128.6631931242084 1333.2916971556097 L 1128.6631931242084 1379.0302663956097 L 1112.3279898242083 1379.0302663956097 L 1112.3279898242083 1333.2916971556097" stroke-miterlimit="10" stroke-width="1.3612669416666667" stroke-dasharray=""/><path fill="white" stroke="black" paint-order="fill stroke markers" d=" M 1271.2543983721223 1379.0302663956097 L 1287.5896016721224 1379.0302663956097 L 1287.5896016721224 1424.7688356356098 L 1271.2543983721223 1424.7688356356098 L 1271.2543983721223 1379.0302663956097" stroke-miterlimit="10" stroke-width="1.3612669416666667" stroke-dasharray=""/><path fill="white" stroke="black" paint-order="fill stroke markers" d=" M 414.01844504241274 1491.5180344632467 L 430.3536483424127 1491.5180344632467 L 430.3536483424127 1966.872450493246 L 414.01844504241274 1966.872450493246 L 414.01844504241274 1491.5180344632467" stroke-miterlimit="10" stroke-width="1.3612669416666667" stroke-dasharray=""/><path fill="white" stroke="black" paint-order="fill stroke markers" d=" M 422.18604669241273 1553.5918070032467 L 438.5212499924127 1553.5918070032467 L 438.5212499924127 1615.6655795432466 L 422.18604669241273 1615.6655795432466 L 422.18604669241273 1553.5918070032467" stroke-miterlimit="10" stroke-width="1.3612669416666667" stroke-dasharray=""/><path fill="white" stroke="black" paint-order="fill stroke markers" d=" M 422.18604669241273 1677.7393520832466 L 438.5212499924127 1677.7393520832466 L 438.5212499924127 1863.9606697032464 L 422.18604669241273 1863.9606697032464 L 422.18604669241273 1677.7393520832466" stroke-miterlimit="10" stroke-width="1.3612669416666667" stroke-dasharray=""/><path fill="white" stroke="black" paint-order="fill stroke markers" d=" M 430.3536483424127 1739.8131246232465 L 446.6888516424127 1739.8131246232465 L 446.6888516424127 1801.8868971632464 L 430.3536483424127 1801.8868971632464 L 430.3536483424127 1739.8131246232465" stroke-miterlimit="10" stroke-width="1.3612669416666667" stroke-dasharray=""/><g><g><rect fill="white" stroke="none" x="47.05740623026041" y="161.4734846205" width="110.047289505625" height="21.23576429"/></g><text fill="black" stroke="none" font-family="sans-serif" font-size="11pt" font-style="normal" font-weight="normal" text-decoration="normal" x="49.50768672526041" y="176.17516759049997" text-anchor="start" dominant-baseline="alphabetic">"@Nacho Hello"</text></g><g><path fill="none" stroke="black" paint-order="fill stroke markers" d=" M 23.64361483359375 182.70924891049998 L 177.7959532492187 182.70924891049998" stroke-miterlimit="10" stroke-width="1.3612669416666667" stroke-dasharray=""/><g transform="translate(180.51848713255205,182.70924891049998) translate(-180.51848713255205,-182.70924891049998)"><path fill="black" stroke="none" paint-order="stroke fill markers" d=" M 166.90581771588538 175.90291420216664 L 180.51848713255205 182.70924891049998 L 166.90581771588538 189.51558361883332 Z"/></g></g><g><g><rect fill="white" stroke="none" x="137.54241957301628" y="207.2120538605" width="40.748781815195315" height="21.23576429"/></g><text fill="black" stroke="none" font-family="sans-serif" font-size="11pt" font-style="normal" font-weight="normal" text-decoration="normal" x="139.99270006801626" y="221.91373683049997" text-anchor="start" dominant-baseline="alphabetic">press</text></g><g><path fill="none" stroke="black" paint-order="fill stroke markers" d=" M 23.64361483359375 228.44781815049998 L 289.4674722443008 228.44781815049998" stroke-miterlimit="10" stroke-width="1.3612669416666667" stroke-dasharray=""/><g transform="translate(292.1900061276341,228.44781815049998) translate(-292.1900061276341,-228.44781815049998)"><path fill="black" stroke="none" paint-order="stroke fill markers" d=" M 278.5773367109674 221.64148344216665 L 292.1900061276341 228.44781815049998 L 278.5773367109674 235.25415285883332 Z"/></g></g><g><g><rect fill="white" stroke="none" x="327.85519999930074" y="252.9506231005" width="66.83325447144531" height="21.23576429"/></g><text fill="black" stroke="none" font-family="sans-serif" font-size="11pt" font-style="normal" font-weight="normal" text-decoration="normal" x="330.30548049430075" y="267.6523060705" text-anchor="start" dominant-baseline="alphabetic">onSubmit</text></g><g><path fill="none" stroke="black" paint-order="fill stroke markers" d=" M 308.5252094276341 274.1863873905 L 411.2959111590794 274.1863873905" stroke-miterlimit="10" stroke-width="1.3612669416666667" stroke-dasharray=""/><g transform="translate(414.01844504241274,274.1863873905) translate(-414.01844504241274,-274.1863873905)"><path fill="black" stroke="none" paint-order="stroke fill markers" d=" M 400.40577562574606 267.38005268216665 L 414.01844504241274 274.1863873905 L 400.40577562574606 280.9927220988333 Z"/></g></g><g><g><rect fill="white" stroke="none" x="281.3787320229511" y="298.6891923405" width="39.9470697790625" height="21.23576429"/></g><text fill="black" stroke="none" font-family="sans-serif" font-size="11pt" font-style="normal" font-weight="normal" text-decoration="normal" x="283.8290125179511" y="313.39087531049995" text-anchor="start" dominant-baseline="alphabetic">value</text></g><g><path fill="none" stroke="black" paint-order="fill stroke markers" d=" M 414.01844504241274 319.9249566305 L 191.4086226658854 319.9249566305" stroke-miterlimit="10" stroke-width="1.3612669416666667" stroke-dasharray=""/><g transform="translate(188.68608878255205,319.9249566305) translate(-188.68608878255205,-319.9249566305)"><path fill="black" stroke="none" paint-order="stroke fill markers" d=" M 202.29875819921872 313.11862192216665 L 188.68608878255205 319.9249566305 L 202.29875819921872 326.73129133883333 Z"/></g></g><g><g><rect fill="white" stroke="none" x="246.3286221596699" y="344.4277615805" width="110.047289505625" height="21.23576429"/></g><text fill="black" stroke="none" font-family="sans-serif" font-size="11pt" font-style="normal" font-weight="normal" text-decoration="normal" x="248.77890265466988" y="359.12944455049995" text-anchor="start" dominant-baseline="alphabetic">"@Nacho Hello"</text></g><g><path fill="none" stroke="black" paint-order="fill stroke markers" d=" M 188.68608878255205 365.6635258705 L 411.2959111590794 365.6635258705" stroke-miterlimit="10" stroke-width="1.3612669416666667" stroke-dasharray="6.53408132"/><g transform="translate(414.01844504241274,365.6635258705) translate(-414.01844504241274,-365.6635258705)"><path fill="black" stroke="none" paint-order="stroke fill markers" d=" M 400.40577562574606 358.85719116216666 L 414.01844504241274 365.6635258705 L 400.40577562574606 372.46986057883333 Z"/></g></g><g><g><rect fill="white" stroke="none" x="457.8512405640794" y="390.1663308205" width="126.31784309449219" height="21.23576429"/></g><text fill="black" stroke="none" font-family="sans-serif" font-size="11pt" font-style="normal" font-weight="normal" text-decoration="normal" x="460.3015210590794" y="404.86801379049996" text-anchor="start" dominant-baseline="alphabetic">onMessageSubmit</text></g><g><path fill="none" stroke="black" paint-order="fill stroke markers" d=" M 430.3536483424127 411.4020951105 L 503.86206319241273 411.4020951105 L 503.86206319241273 427.7372984105 L 441.24378387574603 427.7372984105" stroke-miterlimit="10" stroke-width="1.3612669416666667" stroke-dasharray=""/><g transform="translate(438.5212499924127,427.7372984105) translate(-438.5212499924127,-427.7372984105)"><path fill="black" stroke="none" paint-order="stroke fill markers" d=" M 452.1339194090794 420.93096370216665 L 438.5212499924127 427.7372984105 L 452.1339194090794 434.5436331188333 Z"/></g></g><path fill="none" stroke="none"/><g><path fill="white" stroke="black" paint-order="fill stroke markers" d=" M 614.9833395004543 453.628595641 L 709.9153192845013 453.628595641 L 709.9153192845013 497.733644551 L 614.9833395004543 497.733644551 L 614.9833395004543 453.628595641 Z" stroke-miterlimit="10" stroke-width="2.613632528" stroke-dasharray=""/></g><g><g/><text fill="black" stroke="none" font-family="sans-serif" font-size="11pt" font-style="normal" font-weight="normal" text-decoration="normal" x="632.7070350809544" y="481.398441251" text-anchor="start" dominant-baseline="alphabetic">Message</text></g><g><g><rect fill="white" stroke="none" x="486.8073929745781" y="454.44535580599995" width="79.88980354371094" height="21.23576429"/></g><text fill="black" stroke="none" font-family="sans-serif" font-size="11pt" font-style="normal" font-weight="normal" text-decoration="normal" x="489.2576734695781" y="469.14703877599993" text-anchor="start" dominant-baseline="alphabetic">&lt;&lt;create&gt;&gt;</text></g><g><path fill="none" stroke="black" paint-order="fill stroke markers" d=" M 438.5212499924127 475.681120096 L 612.260805617121 475.681120096" stroke-miterlimit="10" stroke-width="1.3612669416666667" stroke-dasharray="6.53408132"/><g transform="translate(614.9833395004543,475.681120096) translate(-614.9833395004543,-475.681120096)"><path fill="black" stroke="none" paint-order="stroke fill markers" d=" M 601.3706700837877 468.87478538766663 L 614.9833395004543 475.681120096 L 601.3706700837877 482.4874548043333 Z"/></g></g><g><g><rect fill="white" stroke="none" x="466.01884221407937" y="523.6249417815" width="141.8009973913672" height="21.23576429"/></g><text fill="black" stroke="none" font-family="sans-serif" font-size="11pt" font-style="normal" font-weight="normal" text-decoration="normal" x="468.4691227090794" y="538.3266247514999" text-anchor="start" dominant-baseline="alphabetic">sendPrivateMessage</text></g><g><path fill="none" stroke="black" paint-order="fill stroke markers" d=" M 438.5212499924127 544.8607060715 L 512.0296648424127 544.8607060715 L 512.0296648424127 561.1959093715 L 449.411385525746 561.1959093715" stroke-miterlimit="10" stroke-width="1.3612669416666667" stroke-dasharray=""/><g transform="translate(446.6888516424127,561.1959093715) translate(-446.6888516424127,-561.1959093715)"><path fill="black" stroke="none" paint-order="stroke fill markers" d=" M 460.3015210590794 554.3895746631666 L 446.6888516424127 561.1959093715 L 460.3015210590794 568.0022440798333 Z"/></g></g><g><g><rect fill="white" stroke="none" x="474.18644386407937" y="585.6987143214999" width="146.68287910523438" height="21.23576429"/></g><text fill="black" stroke="none" font-family="sans-serif" font-size="11pt" font-style="normal" font-weight="normal" text-decoration="normal" x="476.6367243590794" y="600.4003972914999" text-anchor="start" dominant-baseline="alphabetic">parsePrivateMessage</text></g><g><path fill="none" stroke="black" paint-order="fill stroke markers" d=" M 446.6888516424127 606.9344786114999 L 520.1972664924127 606.9344786114999 L 520.1972664924127 623.2696819114999 L 457.578987175746 623.2696819114999" stroke-miterlimit="10" stroke-width="1.3612669416666667" stroke-dasharray=""/><g transform="translate(454.8564532924127,623.2696819114999) translate(-454.8564532924127,-623.2696819114999)"><path fill="black" stroke="none" paint-order="stroke fill markers" d=" M 468.4691227090794 616.4633472031666 L 454.8564532924127 623.2696819114999 L 468.4691227090794 630.0760166198332 Z"/></g></g><g><g><rect fill="white" stroke="none" x="474.18644386407937" y="647.7724868614998" width="4.90056099" height="21.23576429"/></g><text fill="black" stroke="none" font-family="sans-serif" font-size="11pt" font-style="normal" font-weight="normal" text-decoration="normal" x="476.6367243590794" y="662.4741698314998" text-anchor="start" dominant-baseline="alphabetic"></text></g><g><path fill="none" stroke="black" paint-order="fill stroke markers" d=" M 454.8564532924127 669.0082511514998 L 520.1972664924127 669.0082511514998 L 520.1972664924127 685.3434544514998 L 457.578987175746 685.3434544514998" stroke-miterlimit="10" stroke-width="1.3612669416666667" stroke-dasharray="6.53408132"/><g transform="translate(454.8564532924127,685.3434544514998) translate(-454.8564532924127,-685.3434544514998)"><path fill="black" stroke="none" paint-order="stroke fill markers" d=" M 468.4691227090794 678.5371197431665 L 454.8564532924127 685.3434544514998 L 468.4691227090794 692.1497891598332 Z"/></g></g><path fill="none" stroke="none"/><g><path fill="white" stroke="black" paint-order="fill stroke markers" d=" M 726.2505225845013 711.2347516819998 L 866.8088146244075 711.2347516819998 L 866.8088146244075 755.3398005919998 L 726.2505225845013 755.3398005919998 L 726.2505225845013 711.2347516819998 Z" stroke-miterlimit="10" stroke-width="2.613632528" stroke-dasharray=""/></g><g><g/><text fill="black" stroke="none" font-family="sans-serif" font-size="11pt" font-style="normal" font-weight="normal" text-decoration="normal" x="743.9742181650013" y="739.0045972919999" text-anchor="start" dominant-baseline="alphabetic">PrivateMessage</text></g><g><g><rect fill="white" stroke="none" x="546.5247853416015" y="712.0515118469999" width="79.88980354371094" height="21.23576429"/></g><text fill="black" stroke="none" font-family="sans-serif" font-size="11pt" font-style="normal" font-weight="normal" text-decoration="normal" x="548.9750658366015" y="726.7531948169999" text-anchor="start" dominant-baseline="alphabetic">&lt;&lt;create&gt;&gt;</text></g><g><path fill="none" stroke="black" paint-order="fill stroke markers" d=" M 446.6888516424127 733.2872761369999 L 723.5279887011679 733.2872761369999" stroke-miterlimit="10" stroke-width="1.3612669416666667" stroke-dasharray="6.53408132"/><g transform="translate(726.2505225845013,733.2872761369999) translate(-726.2505225845013,-733.2872761369999)"><path fill="black" stroke="none" paint-order="stroke fill markers" d=" M 712.6378531678346 726.4809414286666 L 726.2505225845013 733.2872761369999 L 712.6378531678346 740.0936108453333 Z"/></g></g><g><g><rect fill="white" stroke="none" x="474.18644386407937" y="781.2310978224998" width="158.93055976929688" height="21.23576429"/></g><text fill="black" stroke="none" font-family="sans-serif" font-size="11pt" font-style="normal" font-weight="normal" text-decoration="normal" x="476.6367243590794" y="795.9327807924998" text-anchor="start" dominant-baseline="alphabetic">appendPrivateMessage</text></g><g><path fill="none" stroke="black" paint-order="fill stroke markers" d=" M 446.6888516424127 802.4668621124998 L 520.1972664924127 802.4668621124998 L 520.1972664924127 818.8020654124998 L 457.578987175746 818.8020654124998" stroke-miterlimit="10" stroke-width="1.3612669416666667" stroke-dasharray=""/><g transform="translate(454.8564532924127,818.8020654124998) translate(-454.8564532924127,-818.8020654124998)"><path fill="black" stroke="none" paint-order="stroke fill markers" d=" M 468.4691227090794 811.9957307041665 L 454.8564532924127 818.8020654124998 L 468.4691227090794 825.6084001208332 Z"/></g></g><g><g><rect fill="white" stroke="none" x="482.35404551407936" y="843.3048703624997" width="174.37796272339844" height="21.23576429"/></g><text fill="black" stroke="none" font-family="sans-serif" font-size="11pt" font-style="normal" font-weight="normal" text-decoration="normal" x="484.8043260090794" y="858.0065533324997" text-anchor="start" dominant-baseline="alphabetic">addPrivateMessageHTML</text></g><g><path fill="none" stroke="black" paint-order="fill stroke markers" d=" M 454.8564532924127 864.5406346524998 L 528.3648681424127 864.5406346524998 L 528.3648681424127 880.8758379524998 L 465.746588825746 880.8758379524998" stroke-miterlimit="10" stroke-width="1.3612669416666667" stroke-dasharray=""/><g transform="translate(463.0240549424127,880.8758379524998) translate(-463.0240549424127,-880.8758379524998)"><path fill="black" stroke="none" paint-order="stroke fill markers" d=" M 476.6367243590794 874.0695032441664 L 463.0240549424127 880.8758379524998 L 476.6367243590794 887.6821726608331 Z"/></g></g><g><g><rect fill="white" stroke="none" x="482.35404551407936" y="905.3786429024997" width="4.90056099" height="21.23576429"/></g><text fill="black" stroke="none" font-family="sans-serif" font-size="11pt" font-style="normal" font-weight="normal" text-decoration="normal" x="484.8043260090794" y="920.0803258724997" text-anchor="start" dominant-baseline="alphabetic"></text></g><g><path fill="none" stroke="black" paint-order="fill stroke markers" d=" M 463.0240549424127 926.6144071924997 L 528.3648681424127 926.6144071924997 L 528.3648681424127 942.9496104924997 L 465.746588825746 942.9496104924997" stroke-miterlimit="10" stroke-width="1.3612669416666667" stroke-dasharray="6.53408132"/><g transform="translate(463.0240549424127,942.9496104924997) translate(-463.0240549424127,-942.9496104924997)"><path fill="black" stroke="none" paint-order="stroke fill markers" d=" M 476.6367243590794 936.1432757841663 L 463.0240549424127 942.9496104924997 L 476.6367243590794 949.755945200833 Z"/></g></g><g><g><rect fill="white" stroke="none" x="474.18644386407937" y="967.4524154424996" width="4.90056099" height="21.23576429"/></g><text fill="black" stroke="none" font-family="sans-serif" font-size="11pt" font-style="normal" font-weight="normal" text-decoration="normal" x="476.6367243590794" y="982.1540984124996" text-anchor="start" dominant-baseline="alphabetic"></text></g><g><path fill="none" stroke="black" paint-order="fill stroke markers" d=" M 454.8564532924127 988.6881797324996 L 520.1972664924127 988.6881797324996 L 520.1972664924127 1005.0233830324996 L 457.578987175746 1005.0233830324996" stroke-miterlimit="10" stroke-width="1.3612669416666667" stroke-dasharray="6.53408132"/><g transform="translate(454.8564532924127,1005.0233830324996) translate(-454.8564532924127,-1005.0233830324996)"><path fill="black" stroke="none" paint-order="stroke fill markers" d=" M 468.4691227090794 998.2170483241663 L 454.8564532924127 1005.0233830324996 L 468.4691227090794 1011.829717740833 Z"/></g></g><g><g><rect fill="white" stroke="none" x="616.780734609373" y="1029.5261879824998" width="149.82531990113281" height="21.23576429"/></g><text fill="black" stroke="none" font-family="sans-serif" font-size="11pt" font-style="normal" font-weight="normal" text-decoration="normal" x="619.231015104373" y="1044.2278709524999" text-anchor="start" dominant-baseline="alphabetic">emit 'private message'</text></g><g><path fill="none" stroke="black" paint-order="fill stroke markers" d=" M 446.6888516424127 1039.2580377556096 L 933.9754035941328 1071.7469246827668" stroke-miterlimit="10" stroke-width="1.3612669416666667" stroke-dasharray=""/><g transform="translate(936.6979374774661,1071.9284443556096) rotate(3.814439689560789,0,0) translate(-936.6979374774661,-1071.9284443556096)"><path fill="black" stroke="none" paint-order="stroke fill markers" d=" M 923.0852680607994 1065.1221096472764 L 936.6979374774661 1071.9284443556096 L 923.0852680607994 1078.7347790639428 Z"/><g transform="rotate(-3.814439689560789,0,0)"/></g></g><g><g><rect fill="white" stroke="none" x="466.01884221407937" y="1096.4312493056095" width="4.90056099" height="21.23576429"/></g><text fill="black" stroke="none" font-family="sans-serif" font-size="11pt" font-style="normal" font-weight="normal" text-decoration="normal" x="468.4691227090794" y="1111.1329322756096" text-anchor="start" dominant-baseline="alphabetic"></text></g><g><path fill="none" stroke="black" paint-order="fill stroke markers" d=" M 446.6888516424127 1117.6670135956094 L 512.0296648424127 1117.6670135956094 L 512.0296648424127 1134.0022168956095 L 449.411385525746 1134.0022168956095" stroke-miterlimit="10" stroke-width="1.3612669416666667" stroke-dasharray="6.53408132"/><g transform="translate(446.6888516424127,1134.0022168956095) translate(-446.6888516424127,-1134.0022168956095)"><path fill="black" stroke="none" paint-order="stroke fill markers" d=" M 460.3015210590794 1127.1958821872763 L 446.6888516424127 1134.0022168956095 L 460.3015210590794 1140.8085516039428 Z"/></g></g><g><g><rect fill="white" stroke="none" x="457.8512405640794" y="1158.5050218456095" width="4.90056099" height="21.23576429"/></g><text fill="black" stroke="none" font-family="sans-serif" font-size="11pt" font-style="normal" font-weight="normal" text-decoration="normal" x="460.3015210590794" y="1173.2067048156096" text-anchor="start" dominant-baseline="alphabetic"></text></g><g><path fill="none" stroke="black" paint-order="fill stroke markers" d=" M 438.5212499924127 1179.7407861356094 L 503.86206319241273 1179.7407861356094 L 503.86206319241273 1196.0759894356095 L 441.24378387574603 1196.0759894356095" stroke-miterlimit="10" stroke-width="1.3612669416666667" stroke-dasharray="6.53408132"/><g transform="translate(438.5212499924127,1196.0759894356095) translate(-438.5212499924127,-1196.0759894356095)"><path fill="black" stroke="none" paint-order="stroke fill markers" d=" M 452.1339194090794 1189.2696547272762 L 438.5212499924127 1196.0759894356095 L 452.1339194090794 1202.8823241439427 Z"/></g></g><g><g><rect fill="white" stroke="none" x="358.8215467400234" y="1220.5787943856096" width="4.90056099" height="21.23576429"/></g><text fill="black" stroke="none" font-family="sans-serif" font-size="11pt" font-style="normal" font-weight="normal" text-decoration="normal" x="361.2718272350234" y="1235.2804773556097" text-anchor="start" dominant-baseline="alphabetic"></text></g><g><path fill="none" stroke="black" paint-order="fill stroke markers" d=" M 414.01844504241274 1241.8145586756095 L 311.2477433109674 1241.8145586756095" stroke-miterlimit="10" stroke-width="1.3612669416666667" stroke-dasharray="6.53408132"/><g transform="translate(308.5252094276341,1241.8145586756095) translate(-308.5252094276341,-1241.8145586756095)"><path fill="black" stroke="none" paint-order="stroke fill markers" d=" M 322.13787884430076 1235.0082239672763 L 308.5252094276341 1241.8145586756095 L 322.13787884430076 1248.6208933839428 Z"/></g></g><g><g><rect fill="white" stroke="none" x="155.46652998561393" y="1266.3173636256097" width="4.90056099" height="21.23576429"/></g><text fill="black" stroke="none" font-family="sans-serif" font-size="11pt" font-style="normal" font-weight="normal" text-decoration="normal" x="157.91681048061392" y="1281.0190465956098" text-anchor="start" dominant-baseline="alphabetic"></text></g><g><path fill="none" stroke="black" paint-order="fill stroke markers" d=" M 292.1900061276341 1287.5531279156096 L 26.366148716927086 1287.5531279156096" stroke-miterlimit="10" stroke-width="1.3612669416666667" stroke-dasharray="6.53408132"/><g transform="translate(23.64361483359375,1287.5531279156096) translate(-23.64361483359375,-1287.5531279156096)"><path fill="black" stroke="none" paint-order="stroke fill markers" d=" M 37.25628425026042 1280.7467932072764 L 23.64361483359375 1287.5531279156096 L 37.25628425026042 1294.3594626239428 Z"/></g></g><g><g><rect fill="white" stroke="none" x="989.8938666539818" y="1312.0559328656097" width="85.57339729371094" height="21.23576429"/></g><text fill="black" stroke="none" font-family="sans-serif" font-size="11pt" font-style="normal" font-weight="normal" text-decoration="normal" x="992.3441471489818" y="1326.7576158356098" text-anchor="start" dominant-baseline="alphabetic">createModel</text></g><g><path fill="none" stroke="black" paint-order="fill stroke markers" d=" M 953.0331407774662 1333.2916971556097 L 1109.605455940875 1333.2916971556097" stroke-miterlimit="10" stroke-width="1.3612669416666667" stroke-dasharray=""/><g transform="translate(1112.3279898242083,1333.2916971556097) translate(-1112.3279898242083,-1333.2916971556097)"><path fill="black" stroke="none" paint-order="stroke fill markers" d=" M 1098.7153204075416 1326.4853624472764 L 1112.3279898242083 1333.2916971556097 L 1098.7153204075416 1340.0980318639429 Z"/></g></g><g><g><rect fill="white" stroke="none" x="1079.5395965627044" y="1357.7945021056098" width="65.20834602417969" height="21.23576429"/></g><text fill="black" stroke="none" font-family="sans-serif" font-size="11pt" font-style="normal" font-weight="normal" text-decoration="normal" x="1081.9898770577045" y="1372.49618507561" text-anchor="start" dominant-baseline="alphabetic">getModel</text></g><g><path fill="none" stroke="black" paint-order="fill stroke markers" d=" M 953.0331407774662 1379.0302663956097 L 1268.5318644887889 1379.0302663956097" stroke-miterlimit="10" stroke-width="1.3612669416666667" stroke-dasharray=""/><g transform="translate(1271.2543983721223,1379.0302663956097) translate(-1271.2543983721223,-1379.0302663956097)"><path fill="black" stroke="none" paint-order="stroke fill markers" d=" M 1257.6417289554556 1372.2239316872765 L 1271.2543983721223 1379.0302663956097 L 1257.6417289554556 1385.836601103943 Z"/></g></g><g><g><rect fill="white" stroke="none" x="1092.9934234670013" y="1403.5330713456099" width="38.30069221558594" height="21.23576429"/></g><text fill="black" stroke="none" font-family="sans-serif" font-size="11pt" font-style="normal" font-weight="normal" text-decoration="normal" x="1095.4437039620013" y="1418.23475431561" text-anchor="start" dominant-baseline="alphabetic">room</text></g><g><path fill="none" stroke="black" paint-order="fill stroke markers" d=" M 1271.2543983721223 1424.7688356356098 L 955.7556746607995 1424.7688356356098" stroke-miterlimit="10" stroke-width="1.3612669416666667" stroke-dasharray="6.53408132"/><g transform="translate(953.0331407774662,1424.7688356356098) translate(-953.0331407774662,-1424.7688356356098)"><path fill="black" stroke="none" paint-order="stroke fill markers" d=" M 966.6458101941329 1417.9625009272766 L 953.0331407774662 1424.7688356356098 L 966.6458101941329 1431.575170343943 Z"/></g></g><g><g><rect fill="white" stroke="none" x="608.6131329593729" y="1449.27164058561" width="149.82531990113281" height="21.23576429"/></g><text fill="black" stroke="none" font-family="sans-serif" font-size="11pt" font-style="normal" font-weight="normal" text-decoration="normal" x="611.063413454373" y="1463.97332355561" text-anchor="start" dominant-baseline="alphabetic">emit 'private message'</text></g><g><path fill="none" stroke="black" paint-order="fill stroke markers" d=" M 936.6979374774661 1458.8476278632468 L 433.07618222574604 1491.3423708073917" stroke-miterlimit="10" stroke-width="1.3612669416666667" stroke-dasharray=""/><g transform="translate(430.3536483424127,1491.5180344632467) rotate(-3.691727777287291,0,0) translate(-430.3536483424127,-1491.5180344632467)"><path fill="black" stroke="none" paint-order="stroke fill markers" d=" M 443.9663177590794 1484.7116997549135 L 430.3536483424127 1491.5180344632467 L 443.9663177590794 1498.32436917158 Z"/><g transform="rotate(3.691727777287291,0,0)"/></g></g><g><g><rect fill="white" stroke="none" x="457.8512405640794" y="1516.0208394132467" width="125.49466194214844" height="21.23576429"/></g><text fill="black" stroke="none" font-family="sans-serif" font-size="11pt" font-style="normal" font-weight="normal" text-decoration="normal" x="460.3015210590794" y="1530.7225223832468" text-anchor="start" dominant-baseline="alphabetic">getCurrentRoomId</text></g><g><path fill="none" stroke="black" paint-order="fill stroke markers" d=" M 430.3536483424127 1537.2566037032466 L 503.86206319241273 1537.2566037032466 L 503.86206319241273 1553.5918070032467 L 441.24378387574603 1553.5918070032467" stroke-miterlimit="10" stroke-width="1.3612669416666667" stroke-dasharray=""/><g transform="translate(438.5212499924127,1553.5918070032467) translate(-438.5212499924127,-1553.5918070032467)"><path fill="black" stroke="none" paint-order="stroke fill markers" d=" M 452.1339194090794 1546.7854722949135 L 438.5212499924127 1553.5918070032467 L 452.1339194090794 1560.39814171158 Z"/></g></g><g><g><rect fill="white" stroke="none" x="457.8512405640794" y="1578.0946119532466" width="50.52688850464844" height="21.23576429"/></g><text fill="black" stroke="none" font-family="sans-serif" font-size="11pt" font-style="normal" font-weight="normal" text-decoration="normal" x="460.3015210590794" y="1592.7962949232467" text-anchor="start" dominant-baseline="alphabetic">roomId</text></g><g><path fill="none" stroke="black" paint-order="fill stroke markers" d=" M 438.5212499924127 1599.3303762432465 L 503.86206319241273 1599.3303762432465 L 503.86206319241273 1615.6655795432466 L 441.24378387574603 1615.6655795432466" stroke-miterlimit="10" stroke-width="1.3612669416666667" stroke-dasharray="6.53408132"/><g transform="translate(438.5212499924127,1615.6655795432466) translate(-438.5212499924127,-1615.6655795432466)"><path fill="black" stroke="none" paint-order="stroke fill markers" d=" M 452.1339194090794 1608.8592448349134 L 438.5212499924127 1615.6655795432466 L 452.1339194090794 1622.4719142515798 Z"/></g></g><g><g><rect fill="white" stroke="none" x="457.8512405640794" y="1640.1683844932465" width="158.93055976929688" height="21.23576429"/></g><text fill="black" stroke="none" font-family="sans-serif" font-size="11pt" font-style="normal" font-weight="normal" text-decoration="normal" x="460.3015210590794" y="1654.8700674632466" text-anchor="start" dominant-baseline="alphabetic">appendPrivateMessage</text></g><g><path fill="none" stroke="black" paint-order="fill stroke markers" d=" M 430.3536483424127 1661.4041487832465 L 503.86206319241273 1661.4041487832465 L 503.86206319241273 1677.7393520832466 L 441.24378387574603 1677.7393520832466" stroke-miterlimit="10" stroke-width="1.3612669416666667" stroke-dasharray=""/><g transform="translate(438.5212499924127,1677.7393520832466) translate(-438.5212499924127,-1677.7393520832466)"><path fill="black" stroke="none" paint-order="stroke fill markers" d=" M 452.1339194090794 1670.9330173749133 L 438.5212499924127 1677.7393520832466 L 452.1339194090794 1684.5456867915798 Z"/></g></g><g><g><rect fill="white" stroke="none" x="466.01884221407937" y="1702.2421570332465" width="174.37796272339844" height="21.23576429"/></g><text fill="black" stroke="none" font-family="sans-serif" font-size="11pt" font-style="normal" font-weight="normal" text-decoration="normal" x="468.4691227090794" y="1716.9438400032466" text-anchor="start" dominant-baseline="alphabetic">addPrivateMessageHTML</text></g><g><path fill="none" stroke="black" paint-order="fill stroke markers" d=" M 438.5212499924127 1723.4779213232464 L 512.0296648424127 1723.4779213232464 L 512.0296648424127 1739.8131246232465 L 449.411385525746 1739.8131246232465" stroke-miterlimit="10" stroke-width="1.3612669416666667" stroke-dasharray=""/><g transform="translate(446.6888516424127,1739.8131246232465) translate(-446.6888516424127,-1739.8131246232465)"><path fill="black" stroke="none" paint-order="stroke fill markers" d=" M 460.3015210590794 1733.0067899149133 L 446.6888516424127 1739.8131246232465 L 460.3015210590794 1746.6194593315797 Z"/></g></g><g><g><rect fill="white" stroke="none" x="466.01884221407937" y="1764.3159295732464" width="4.90056099" height="21.23576429"/></g><text fill="black" stroke="none" font-family="sans-serif" font-size="11pt" font-style="normal" font-weight="normal" text-decoration="normal" x="468.4691227090794" y="1779.0176125432465" text-anchor="start" dominant-baseline="alphabetic"></text></g><g><path fill="none" stroke="black" paint-order="fill stroke markers" d=" M 446.6888516424127 1785.5516938632463 L 512.0296648424127 1785.5516938632463 L 512.0296648424127 1801.8868971632464 L 449.411385525746 1801.8868971632464" stroke-miterlimit="10" stroke-width="1.3612669416666667" stroke-dasharray="6.53408132"/><g transform="translate(446.6888516424127,1801.8868971632464) translate(-446.6888516424127,-1801.8868971632464)"><path fill="black" stroke="none" paint-order="stroke fill markers" d=" M 460.3015210590794 1795.0805624549132 L 446.6888516424127 1801.8868971632464 L 460.3015210590794 1808.6932318715797 Z"/></g></g><g><g><rect fill="white" stroke="none" x="457.8512405640794" y="1826.3897021132464" width="4.90056099" height="21.23576429"/></g><text fill="black" stroke="none" font-family="sans-serif" font-size="11pt" font-style="normal" font-weight="normal" text-decoration="normal" x="460.3015210590794" y="1841.0913850832465" text-anchor="start" dominant-baseline="alphabetic"></text></g><g><path fill="none" stroke="black" paint-order="fill stroke markers" d=" M 438.5212499924127 1847.6254664032463 L 503.86206319241273 1847.6254664032463 L 503.86206319241273 1863.9606697032464 L 441.24378387574603 1863.9606697032464" stroke-miterlimit="10" stroke-width="1.3612669416666667" stroke-dasharray="6.53408132"/><g transform="translate(438.5212499924127,1863.9606697032464) translate(-438.5212499924127,-1863.9606697032464)"><path fill="black" stroke="none" paint-order="stroke fill markers" d=" M 452.1339194090794 1857.1543349949131 L 438.5212499924127 1863.9606697032464 L 452.1339194090794 1870.7670044115796 Z"/></g></g><g><g><rect fill="white" stroke="none" x="449.6836389140794" y="1888.4634746532463" width="4.90056099" height="21.23576429"/></g><text fill="black" stroke="none" font-family="sans-serif" font-size="11pt" font-style="normal" font-weight="normal" text-decoration="normal" x="452.1339194090794" y="1903.1651576232464" text-anchor="start" dominant-baseline="alphabetic"></text></g><g><path fill="none" stroke="black" paint-order="fill stroke markers" d=" M 430.3536483424127 1909.6992389432462 L 495.69446154241274 1909.6992389432462 L 495.69446154241274 1926.0344422432463 L 433.07618222574604 1926.0344422432463" stroke-miterlimit="10" stroke-width="1.3612669416666667" stroke-dasharray="6.53408132"/><g transform="translate(430.3536483424127,1926.0344422432463) translate(-430.3536483424127,-1926.0344422432463)"><path fill="black" stroke="none" paint-order="stroke fill markers" d=" M 443.9663177590794 1919.228107534913 L 430.3536483424127 1926.0344422432463 L 443.9663177590794 1932.8407769515795 Z"/></g></g></g><g/><g/><g/><g/><g/><g/><g/></g></svg>